<svg xmlns="http://www.w3.org/2000/svg">
<defs>
<font id="eacologica-round_slab" horiz-adv-x="632" >
  <font-face 
    font-family="eacolgica round slab"
    font-weight="400"
    font-stretch="normal"
    units-per-em="1000"
    panose-1="2 0 0 0 0 0 0 0 0 0"
    ascent="750"
    descent="-250"
    x-height="538"
    cap-height="744"
    bbox="-115.923 -271.067 1316.69 991"
    underline-thickness="47"
    underline-position="-48"
    unicode-range="U+000D-U+FB06"
  />
<missing-glyph horiz-adv-x="479" 
d="M138 587h202v-136h137v-202h-339v338zM265 493v50h-50v-50h50zM138 249v-137l-136 137h136zM6 679h13q8 0 14 -2t6 -14q0 -9 -3 -13t-17 -4h-5v-19h-8v52zM14 654h5h7.5t2.5 9q0 5 -3 6t-7 1h-5v-16zM46 679h31v-9h-23v-12h23v-8h-23v-14h24v-9h-32v52zM86 679h18
q9 0 12.5 -2t3.5 -11q0 -16 -9 -16l5 -5l9 -18h-10l-11 18q-2 4 -9 4v-22h-9v52zM102 655q5 0 8 1.5t3 7.5q0 4 -1 4l-2 2h-15v-15h7zM137 644q2 -10 10 -10q7 0 7 7q0 5 -4 5.5t-8.5 1.5t-8.5 4t-4 15q0 4 4 8.5t13 4.5q15 0 15 -16h-7q-4 7 -8 7q-5 0 -7 -3h-1q0 -6 4 -8
l8 -4t8.5 -4.5t4.5 -10.5q0 -5 -4 -9.5t-13 -4.5q-16 0 -18 17h9zM169 652q0 19 6.5 23.5t14.5 4.5t14.5 -6t6.5 -22q0 -25 -21 -25q-11 0 -16 7t-5 18zM178 653q0 -7 2 -13t10 -6q6 0 9 5.5t3 13.5q0 18 -12 18q-8 0 -10 -6t-2 -12zM218 679h9l16 -35v35h10v-52h-10l-16 33
v-33h-9v52zM291 627l-3 12h-18l-4 -12h-9l17 52h9l17 -52h-9zM279 668l-6 -21h11zM305 679h11v-43h21v-9h-32v52zM370 679v-38q1 -7 8 -7q4 0 6 3l3 3v39h9v-28q0 -14 -2.5 -19t-15.5 -5q-11 0 -14 5t-3 19v28h9zM411 644q2 -10 10 -10q5 0 7 3t2 4q0 5 -4.5 5.5t-8.5 0.5
t-8 3.5t-4 16.5q0 8 5 10.5t9 2.5q18 0 18 -16h-9q0 7 -9 7q-4 0 -6 -3v0q0 -2 1 -5t8 -4q9 -5 13 -7t4 -11q0 -4 -3.5 -9t-14.5 -5q-16 0 -17 17h7zM446 679h31v-9h-23v-12h22v-8h-22v-14h24v-9h-32v52zM6 751h30v-8h-22v-13h18v-9h-18v-20h-8v50zM42 751h18q9 0 13 -2.5
t4 -10.5t-3 -11t-7 -6q3 -1 4 -3l10 -17h-10l-12 17q0 2 -3.5 2.5t-4.5 0.5v-20h-9v50zM58 729q5 0 7.5 0.5t2.5 7.5q0 4 -3 6h-14v-14h7zM86 751h31v-8h-23v-12h22v-10h-22v-13h23v-7h-31v50zM125 751h31v-8h-23v-12h22v-10h-22v-13h25v-7h-33v50zM181 725q0 27 19 27

<glyph glyph-name="fi" unicode="fi" horiz-adv-x="738" 
d="M587 538q35 0 59.5 -24.5t24.5 -60.5v-306q30 0 51.5 -22t21.5 -52t-21.5 -51.5t-51.5 -21.5h-200q-30 0 -51.5 21.5t-21.5 51.5t21.5 52t51.5 22v244h-183v-244q31 0 52.5 -22t21.5 -52t-21.5 -51.5t-51.5 -21.5h-197q-30 0 -51.5 21.5t-21.5 51.5q0 15 5.5 29t15 23.5
t22 15.5t25.5 6v244q-30 0 -51.5 21.5t-21.5 51.5t21.5 52t51.5 22v25q0 60 21.5 98t53.5 60.5t69 31t70 10.5q17 2 32.5 -2t27.5 -13.5t20.5 -23.5t10.5 -31t-2.5 -32.5t-14 -28t-23.5 -21t-31 -9.5q-18 -3 -25.5 -11.5t-7.5 -22.5v-30h299zM550 599q-31 0 -53 22t-22 53
t22 53t53 22h42q31 0 53 -22t22 -53t-22 -53t-53 -22h-42z" />
    <glyph glyph-name="fl" unicode="fl" horiz-adv-x="736" 
d="M92 0q-30 0 -51.5 21.5t-21.5 51.5t21.5 52t51.5 22h-5v244q-30 0 -51.5 21.5t-21.5 51.5t21.5 52t51.5 22v15q0 60 24.5 102t66.5 68t98 38.5t120 12.5q59 0 106.5 -5t94.5 -16q28 -7 45.5 -30t17.5 -52v-441q0 -31 4 -46.5t16 -19.5q24 -15 37 -39t9 -53
q-2 -18 -11 -33.5t-22.5 -25.5t-31 -15.5t-35.5 -2.5q-31 3 -60.5 13t-52.5 35t-37.5 67t-14.5 109v404h-67q-61 -2 -83.5 -20t-22.5 -46v-19h95q30 0 51.5 -22t21.5 -52t-21.5 -51.5t-51.5 -21.5h-95v-244h65q31 0 52.5 -22t21.5 -52t-21.5 -51.5t-52.5 -21.5h-261z" />
    <glyph glyph-name="f_f" unicode="ff" horiz-adv-x="776" 
d="M87 0q-30 0 -51.5 21.5t-21.5 51.5t21.5 52t51.5 22v244q-30 0 -51.5 21.5t-21.5 51.5t21.5 52t51.5 22v25q0 60 21 98t53 60t68.5 31t73.5 12q34 3 59.5 -18t29.5 -55q2 -17 -3 -32.5t-15 -27.5t-24 -20t-31 -9q-17 -4 -24 -12.5t-7 -21.5v-30h183v25q0 60 21 98
t52.5 60.5t68.5 31t70 10.5q35 4 61.5 -16.5t30.5 -54.5q2 -17 -2.5 -32t-14.5 -27.5t-23.5 -21t-30.5 -9.5q-19 -3 -26 -11.5t-7 -22.5v-30h23q30 0 51.5 -22t21.5 -52t-21.5 -51.5t-51.5 -21.5h-23v-244h24q30 0 51.5 -22t21.5 -52t-21.5 -51.5t-51.5 -21.5h-224
q-30 0 -51.5 21.5t-21.5 51.5t21.5 52t51.5 22v244h-183v-244q30 0 51.5 -22t21.5 -52t-21.5 -51.5t-51.5 -21.5h-201z" />
    <glyph glyph-name="f_f_i" unicode="ffi" horiz-adv-x="1114" 
d="M930 599q-31 0 -53.5 22t-22.5 53t22.5 53t53.5 22h42q31 0 53 -22t22 -53t-22 -53t-53 -22h-42zM969 538q36 0 60.5 -24.5t24.5 -60.5v-306q29 0 50.5 -22t21.5 -52t-21.5 -51.5t-51.5 -21.5h-201q-30 0 -52 21.5t-22 51.5t22 52t52 22v244h-183v-244q30 0 52 -22
t22 -52t-22 -51.5t-52 -21.5h-201q-30 0 -51.5 21.5t-21.5 51.5t21.5 52t51.5 22v244h-182v-244q30 0 51.5 -22t21.5 -52t-21.5 -51.5t-51.5 -21.5h-201q-30 0 -52 21.5t-22 51.5t22 52t52 22v244h-5q-30 0 -51.5 21.5t-21.5 51.5t21.5 52t51.5 22h6v25q0 60 20.5 98t52 60
t68.5 31t70 11q31 5 57.5 -12t33.5 -48q5 -16 2.5 -32t-10.5 -29.5t-20.5 -24t-29.5 -14.5q-25 -1 -34.5 -10t-9.5 -25v-30h183v25q0 60 21 98t53 60.5t69.5 31t71.5 10.5q17 2 32.5 -3t27.5 -15t20 -23.5t10 -30.5q2 -34 -19 -60.5t-55 -28.5q-17 -4 -24 -12.5t-7 -21.5
v-30h300z" />
    <glyph glyph-name="f_f_l" unicode="ffl" horiz-adv-x="1112" 
d="M86 0q-31 0 -52.5 21.5t-21.5 51.5t21.5 52t52.5 22v244h-5q-30 0 -51.5 21.5t-21.5 51.5t21.5 52t51.5 22h4v25q0 59 20 97t51 60.5t67.5 31.5t69.5 11q33 7 60.5 -11.5t34.5 -50.5q4 -17 1 -33t-11.5 -29t-21.5 -22.5t-30 -13.5q-22 -1 -31.5 -10t-9.5 -25v-30h183v15
q0 60 24.5 102t66.5 68t98 38.5t120 12.5q58 0 107.5 -6.5t93.5 -14.5q28 -6 45.5 -29t17.5 -53v-441q0 -28 3 -43t13 -22q26 -13 39.5 -37.5t10.5 -53.5q-2 -19 -10.5 -34.5t-22.5 -25.5t-31 -15.5t-35 -3.5q-31 3 -61 13t-53.5 34.5t-38 66.5t-14.5 110v394l-24 4
q-10 2 -24 3t-29 1q-51 0 -73.5 -18t-22.5 -46v-19h29q30 0 51.5 -22t21.5 -52t-21.5 -51.5t-51.5 -21.5h-29v-244q31 0 53 -22t22 -52t-22 -51.5t-52 -21.5h-201q-30 0 -51.5 21.5t-21.5 51.5t21.5 52t51.5 22v244h-183v-244q31 0 52.5 -22t21.5 -52t-21.5 -51.5
t-51.5 -21.5h-200z" />
    <glyph glyph-name="f_j" unicode="fj" horiz-adv-x="719" 
d="M673 453v-462q0 -57 -19.5 -95t-50.5 -62t-67.5 -35.5t-69.5 -15.5q-33 -5 -60.5 13t-35.5 51q-8 34 10 64t52 38q16 6 28 18t12 36v388h-184v-244h65q31 0 52.5 -22t21.5 -52t-21.5 -51.5t-52.5 -21.5h-321q-30 0 -51.5 21.5t-21.5 51.5t21.5 52t51.5 22h55v244h-60
q-30 0 -51.5 21.5t-21.5 51.5t21.5 52t51.5 22h60v25q0 60 21.5 98t53 60.5t68.5 31t70 10.5q1 0 2 0.5t2 0.5q33 3 59 -18.5t30 -55.5q1 -17 -4 -32t-15 -27t-24 -20t-31 -9q-17 -4 -24 -12.5t-7 -21.5v-30h300q36 0 60.5 -24.5t24.5 -60.5zM555 599q-31 0 -53.5 22
t-22.5 53t22.5 53t53.5 22h42q31 0 53 -22t22 -53t-22 -53t-53 -22h-42z" />
    <glyph glyph-name=".notdef" horiz-adv-x="479" 
d="M138 587h202v-136h137v-202h-339v338zM265 493v50h-50v-50h50zM138 249v-137l-136 137h136zM6 679h13q8 0 14 -2t6 -14q0 -9 -3 -13t-17 -4h-5v-19h-8v52zM14 654h5h7.5t2.5 9q0 5 -3 6t-7 1h-5v-16zM46 679h31v-9h-23v-12h23v-8h-23v-14h24v-9h-32v52zM86 679h18
q9 0 12.5 -2t3.5 -11q0 -16 -9 -16l5 -5l9 -18h-10l-11 18q-2 4 -9 4v-22h-9v52zM102 655q5 0 8 1.5t3 7.5q0 4 -1 4l-2 2h-15v-15h7zM137 644q2 -10 10 -10q7 0 7 7q0 5 -4 5.5t-8.5 1.5t-8.5 4t-4 15q0 4 4 8.5t13 4.5q15 0 15 -16h-7q-4 7 -8 7q-5 0 -7 -3h-1q0 -6 4 -8
l8 -4t8.5 -4.5t4.5 -10.5q0 -5 -4 -9.5t-13 -4.5q-16 0 -18 17h9zM169 652q0 19 6.5 23.5t14.5 4.5t14.5 -6t6.5 -22q0 -25 -21 -25q-11 0 -16 7t-5 18zM178 653q0 -7 2 -13t10 -6q6 0 9 5.5t3 13.5q0 18 -12 18q-8 0 -10 -6t-2 -12zM218 679h9l16 -35v35h10v-52h-10l-16 33
v-33h-9v52zM291 627l-3 12h-18l-4 -12h-9l17 52h9l17 -52h-9zM279 668l-6 -21h11zM305 679h11v-43h21v-9h-32v52zM370 679v-38q1 -7 8 -7q4 0 6 3l3 3v39h9v-28q0 -14 -2.5 -19t-15.5 -5q-11 0 -14 5t-3 19v28h9zM411 644q2 -10 10 -10q5 0 7 3t2 4q0 5 -4.5 5.5t-8.5 0.5
t-8 3.5t-4 16.5q0 8 5 10.5t9 2.5q18 0 18 -16h-9q0 7 -9 7q-4 0 -6 -3v0q0 -2 1 -5t8 -4q9 -5 13 -7t4 -11q0 -4 -3.5 -9t-14.5 -5q-16 0 -17 17h7zM446 679h31v-9h-23v-12h22v-8h-22v-14h24v-9h-32v52zM6 751h30v-8h-22v-13h18v-9h-18v-20h-8v50zM42 751h18q9 0 13 -2.5
t4 -10.5t-3 -11t-7 -6q3 -1 4 -3l10 -17h-10l-12 17q0 2 -3.5 2.5t-4.5 0.5v-20h-9v50zM58 729q5 0 7.5 0.5t2.5 7.5q0 4 -3 6h-14v-14h7zM86 751h31v-8h-23v-12h22v-10h-22v-13h23v-7h-31v50zM125 751h31v-8h-23v-12h22v-10h-22v-13h25v-7h-33v50zM181 725q0 27 19 27
q11 0 16.5 -8t5.5 -19q0 -10 -5.5 -18t-16.5 -8q-19 0 -19 26zM189 726q0 -6 3 -12t8 -6q13 0 13 18q0 11 -4 15t-9 4q-11 0 -11 -19zM229 751h8l19 -35v35h7v-50h-8l-18 32v-32h-8v50zM271 751h11v-43h21v-7h-32v50zM316 721l-17 30h10l10 -20l11 20h8l-15 -30v-20h-7v20z
M360 751h28v-8h-20v-13h16v-9h-16v-20h-8v50zM393 725q0 9 5 18t17 9q9 0 15 -7t6 -20q0 -26 -21 -26q-10 0 -16 6.5t-6 19.5zM404 726q0 -18 11 -18q12 0 12 18q0 11 -4.5 15t-7.5 4q-5 0 -8 -4t-3 -15zM443 751h18q10 0 13 -2.5t3 -10.5q0 -9 -2.5 -11.5t-8.5 -5.5l6 -3
l8 -17h-9l-10 17q-2 2 -3.5 2.5t-7.5 0.5v-20h-7v50zM457 729h8.5t3.5 8q0 2 -2 4l-1 2h-16v-14h7zM128 2v4q-2 -4 -4.5 -4.5t-3.5 -0.5q-4 0 -6.5 5t-2.5 12q0 15 9 15q1 0 2 -0.5t3 -0.5l3 -2v14h6v-42h-6zM117 18q0 -4 1 -7.5t3 -3.5q5 0 6 3.5t1 6.5q0 10 -7 10
q-4 0 -4 -9zM161 9q-1 -4 -4 -6t-6 -2q-8 0 -10 5t-2 11t3.5 11t7.5 5q5 0 9 -3.5t4 -15.5h-16q0 -7 4 -7q3 0 4 4zM155 19q0 8 -4 8t-4 -8h8zM168 36q0 2 0.5 2.5t0.5 2.5l3 3q2 1 5 1t5 -1l-1 -5l-2.5 0.5t-2.5 -7.5h5v-6h-5v-24h-8v24h-4v6zM190 30q2 2 3.5 2.5t4.5 0.5
q1 0 5.5 -1t4.5 -13v-17h-9v16v7t-4 2q-5 0 -5 -10v-15h-8v42h8v-14zM211 26q4 7 11 7q8 0 9.5 -3.5t1.5 -7.5v-16l2 -4h-7l-1 4q0 -2 -2.5 -3.5t-4.5 -1.5q-4 0 -6.5 2.5t-2.5 5.5q0 5 4 9l6 4q5 0 6 1q0 4 -5 4l-2 -1l-3 -3zM227 17q0 -3 -5 -2.5t-5 -4.5q0 -3 5 -3
q3 0 5 2v8zM238 2v30h8v-4l4 4l1 1q5 0 5 -1l-1 -6h-5h-2q-1 -3 -1.5 -5t-0.5 -10v-9h-8zM256 18q0 15 14 15q13 0 13 -15q0 -17 -13 -17q-7 0 -10.5 5t-3.5 12zM263 17q0 -3 0.5 -6t6.5 -3t6 9q0 7 -2.5 8t-3.5 1q-7 0 -7 -9zM288 9h6v-7h-6v7zM317 23q0 4 -7 4q-5 0 -5 -9
q0 -10 5 -10h4.5t2.5 5l5 -2q-1 -10 -12 -10q-7 0 -9 5t-2 11q0 16 11 16q7 0 9 -1.5t3 -7.5zM325 18q0 5 2 8l5 6q3 1 5 1q7 0 11 -5t4 -10q0 -7 -4 -12t-11 -5q-12 0 -12 17zM332 17q0 -9 5 -9q6 0 6.5 2.5t0.5 6.5q0 7 -2.5 8t-4.5 1l-2.5 -1t-2.5 -8zM362 32v-4q2 3 4 4
t4 1q1 0 4 -1t3 -4q5 5 7 5q3 0 6 -1t3 -10v-20h-6v17q0 8 -4 8q-3 0 -4 -1.5t-1 -8.5v-15h-7v24q-1 0 -1.5 0.5t-2.5 0.5q-1 0 -1 -0.5t-1 -0.5l-1 -3v-21h-8v30h6zM111 85h15v-17q-3 -2 -8 -4.5t-7 -2.5q-17 0 -17 23q0 22 17 22q5 0 9.5 -2.5t4.5 -10.5l-8 -1q0 7 -6 7
q-11 0 -11 -15q0 -5 2 -9.5t9 -4.5h4l4 2v5h-8v8zM154 70q-4 -9 -12 -9q-5 0 -9 5t-4 11q0 7 4 11.5t9 4.5q6 0 9 -5t3 -13h-17q0 -8 5 -8t5 4zM148 80q0 7 -6 7q-5 0 -5 -7h11zM171 87h-6v-13q0 -6 3 -6q1 0 3 2l1 -7q-4 -2 -7 -2q-4 0 -5 2.5t-1 8.5l-4 15l4 6v8l6 2v-10
h6v-6zM189 96v6l2 3q3 0 3 0.5t1 0.5q2 0 3 -0.5t4 -0.5l-2 -6q-3 0 -4 1t-1 -7h4v-6h-4v-25h-6v25h-5v6zM220 67q-2 -1 -3.5 -3.5t-5.5 -2.5q-2 0 -5.5 3t-3.5 8v21h9v-14q-2 0 -2 -2v-3q0 -4 2 -5t4 -1q3 0 4 4t1 8v13h7v-31h-7v5zM231 105h7v-43h-7v43zM246 105h6v-43h-6
v43zM271 96q0 5 2 6l3 3q1 0 1.5 0.5t3.5 0.5q2 0 2 -0.5t3 -0.5l-2 -6q-1 0 -1 2q-1 0 -1.5 -1t-2.5 -1v-6h4v-6h-4v-25h-8v25h-2v6zM286 77q0 6 2 11t11 5q11 0 11 -16q0 -6 -3 -11t-8 -5q-13 0 -13 16zM292 77q0 -9 7 -9q5 0 5 9q0 10 -5 10q-7 0 -7 -10zM332 62v15
q0 10 -1 10h-5l-3 -3v-22h-6v31h5v-6q4 5 6 5.5t8 0.5l2 -6l0.5 -1.5t0.5 -4.5v-19h-7zM357 87h-4v-13v-4l2 -2h1l1 2v-7q-1 -2 -5 -2q-3 0 -3 2l-4 4v20h-2v6h2v8l8 2v-10h4v-6zM373 85q2 8 11 8q7 0 9.5 -0.5t2.5 -11.5v-14q0 -1 0.5 -2t0.5 -3h-6l-1 4q-2 0 -4.5 -2.5
t-3.5 -2.5q-4 0 -7.5 3t-3.5 6q0 2 1 3t1 2l4 4l6 1q1 0 1 0.5t2 0.5h2v6h-4q-5 0 -5 -3zM388 76q-2 0 -5.5 -2t-3.5 -3q0 -7 4 -4q1 0 1 1l4 2v6zM413 87h-4v-13v-4l1 -2h1l2 2v-7q-2 -2 -5 -2t-4 2.5t-3 3.5v20h-3v6h3v8l8 2v-10h4v-6z" />
    <glyph glyph-name=".null" horiz-adv-x="0" 
 />
    <glyph glyph-name=".null" horiz-adv-x="0" 
 />
    <glyph glyph-name="nonmarkingreturn" unicode="&#xd;" horiz-adv-x="235" 
 />
    <glyph glyph-name="space" unicode=" " horiz-adv-x="235" 
 />
    <glyph glyph-name="numbersign" unicode="#" horiz-adv-x="666" 
d="M368 323l11 73h-82l-10 -73h81zM134 0q-19 0 -31.5 14.5t-9.5 33.5l20 136h-35q-19 0 -31.5 14.5t-9.5 33.5l8 56q2 16 13.5 25.5t27.5 9.5h49l11 73h-32q-19 0 -31.5 14.5t-10.5 33.5l9 55q2 16 13.5 26t27.5 10h46l28 174q1 16 13 25.5t28 9.5h66q18 0 31 -15t10 -33
l-25 -161h82l27 174q2 16 13.5 25.5t27.5 9.5h67q19 0 31.5 -14.5t9.5 -32.5l-24 -162h39q19 0 31 -14.5t11 -33.5l-9 -56q-2 -16 -13.5 -25.5t-27.5 -9.5h-53l-11 -73h36q19 0 32 -14.5t10 -33.5l-9 -55q-2 -16 -13.5 -26t-27.5 -10h-51l-21 -148q-3 -16 -14.5 -26
t-27.5 -10h-67q-19 0 -32 14.5t-10 33.5l21 131v5h-83v-4l-21 -144q-3 -16 -14.5 -26t-27.5 -10h-66z" />
    <glyph glyph-name="dollar" unicode="$" horiz-adv-x="567" 
d="M225 8q-36 8 -64.5 19t-51.5 24q-4 2 -6 4q-16 10 -26 25t-14.5 32.5t-1 35t13.5 33.5q11 16 26 26.5t32 15t35 1t34 -13.5q21 -11 42.5 -19t40.5 -8q21 0 38.5 9t17.5 31q0 24 -26 38.5t-65 29.5q-34 14 -70.5 31t-67.5 42.5t-51.5 61.5t-20.5 88q0 43 14.5 79.5
t38.5 64.5t58 47.5t74 28.5v58q0 26 17.5 44t42.5 18t43 -18t18 -44v-54q44 -2 106 -29q17 -10 28.5 -24.5t16.5 -31.5t3.5 -35t-9.5 -35q-10 -17 -24.5 -29t-31.5 -17t-35 -3.5t-35 10.5q-18 8 -36 12.5t-36 4.5t-34.5 -8t-16.5 -29q0 -15 7.5 -25.5t20.5 -19.5t31 -16
l38 -15l69 -28t65.5 -38.5t48.5 -57.5t19 -85q0 -40 -12.5 -78t-37.5 -69t-61.5 -53t-83.5 -31v-57q0 -24 -18 -42t-43 -18t-42.5 18t-17.5 42v57z" />
    <glyph glyph-name="percent" unicode="%" horiz-adv-x="857" 
d="M245 0q-13 0 -21 11.5t-3 24.5l291 683q12 25 38 25h64q14 0 21.5 -11t3.5 -24l-292 -684q-10 -25 -38 -25h-64zM175.796 484.916q-17.6895 0 -29.8896 7.33301q-12.1992 7.33203 -21.3496 16.1914q-9.14941 8.86035 -15.8594 16.1924t-12.8096 7.94336h-4.87988
q-4.87988 0 -7.31934 -2.13867q-2.44043 -2.13867 -7.32031 -10.6934q-13.4199 -19.5527 -34.1592 -19.5527q-4.26953 0 -7.31934 0.611328q2.43945 1.83301 2.43945 3.66602t-2.43945 4.88867q6.70996 1.83301 5.48926 7.33203q-1.21973 4.27734 -8.53906 3.05469
q0 6.72168 -5.49023 6.72168q-4.87988 0 -4.87988 -6.72168q-7.32031 1.22266 -8.54004 -4.27637q-7.92969 12.8311 -7.92969 23.8291q0 6.11035 1.52539 10.3877q1.52441 4.27734 3.35449 7.33203q24.3994 42.7725 61.6084 42.7725q24.3994 0 37.5146 -7.33301
q13.1143 -7.33203 20.7393 -16.4971l14.0293 -16.498q6.40527 -7.33203 17.3848 -7.33203q9.75977 0 12.8096 7.33203q10.3701 23.2188 33.5498 23.2188q17.6895 0 28.6689 -11.915t10.9795 -26.5791q0 -15.8867 -6.4043 -26.8848q-6.40527 -10.999 -16.4697 -18.3311
q-10.0654 -7.33203 -21.96 -10.6924q-11.8945 -3.36133 -22.2646 -3.36133h-4.26953zM380.141 748.268q0 -5.5 0.305664 -10.6934q0.304688 -5.19336 0.304688 -10.082q0 -14.0537 -4.87988 -25.9688q-4.87988 -11.9141 -13.1143 -21.9961
q-8.23535 -10.082 -18.6045 -18.6367q-10.3701 -8.55371 -21.96 -16.4971q-4.87988 -2.44434 -13.7246 -3.05566q-8.84473 -0.610352 -17.9951 -1.83301q-1.21973 3.05566 -1.52441 5.19434t-0.304688 5.19336q0 8.55469 6.70996 25.9688q6.70898 17.4141 17.6895 31.4678
q17.6895 21.9961 33.5488 29.6338q15.8594 7.63867 33.5488 11.3047zM97.1074 517.301q4.87988 -0.611328 11.2852 -7.94336q6.4043 -7.33203 15.8594 -15.8867t22.875 -15.5811q13.4189 -7.02637 32.9385 -7.02637q-0.609375 0 3.96484 -0.305664
q4.5752 -0.305664 11.8955 0.610352q7.31934 0.916992 16.4688 3.05566q9.15039 2.13867 18.2998 6.41504q17.0801 6.72168 27.4492 21.3867q10.3701 14.6641 10.3701 34.2168q0 25.6631 -17.6895 43.0771t-43.3086 17.4141q-19.5195 0 -34.7695 -10.3877
q-15.25 -10.3867 -18.2998 -23.2188q-6.70996 3.05566 -14.0293 12.832q-7.32031 9.77637 -19.5195 19.5527q17.6895 25.6631 43.3086 36.0498q25.6191 10.3877 53.0693 10.3877q13.4189 0 22.5693 -2.75q9.14941 -2.74902 17.0791 -6.41504t16.165 -6.41602
q8.23438 -2.75 19.2139 -2.75q10.9805 0 18.9102 2.75t15.8594 6.41602t17.0801 6.41504q9.14941 2.75 23.1787 2.75q26.8398 0 50.6289 -10.082q23.79 -10.082 45.1387 -35.1338q-14.0293 -9.16504 -24.0938 -18.3311q-10.0654 -9.16504 -16.4697 -20.1631
q-6.40527 -10.999 -9.45508 -24.1357t-3.0498 -30.8564q0.610352 -23.8301 9.14941 -40.3271q8.54004 -16.498 19.2148 -27.1914q10.6748 -10.6924 21.0449 -16.1914q10.3691 -5.49902 15.249 -7.33203l-17.3848 -34.5234q-7.62402 -14.9697 -14.6396 -26.2734
q-7.01465 -11.3047 -14.0293 -20.4697t-15.5547 -17.1084l-8.23438 -8.55469t-9.45508 -7.33203t-13.4199 -5.19336t-20.1289 -2.13867q-10.9805 0 -19.2148 2.74902l-11.8945 3.97168q-14.0303 6.72168 -21.96 9.16602q-7.92969 2.44336 -16.4697 2.44336
q-7.92969 0 -16.4688 -2.44336q-8.54004 -2.44434 -22.5703 -9.16602l-10.6748 -4.27734q-7.62402 -3.05469 -17.9941 -3.05469q-18.9092 0 -30.499 6.72168q-11.5898 6.7207 -16.4697 11.6094q-22.5693 18.3301 -35.6846 39.1055q-13.1143 20.7744 -25.9238 51.3252
q-4.87988 8.55469 -9.15039 21.0811q-4.26953 12.5254 -7.31934 26.5791t-5.18457 29.0234q-2.13574 14.9707 -2.13574 29.0234q0 3.05566 0.305664 6.41602q0.304688 3.36035 1.52441 6.41602h3.0498zM20.25 551.518q0 -3.05469 2.13477 -5.19336t5.18457 -2.13867
t5.18457 2.13867q2.13574 2.13867 2.13574 5.19336q0 7.33203 -7.32031 7.33203q-3.0498 0 -5.18457 -2.1377q-2.13477 -2.13867 -2.13477 -5.19434zM660.796 195.916q-17.6895 0 -29.8896 7.33301q-12.1992 7.33203 -21.3496 16.1914q-9.14941 8.86035 -15.8594 16.1924
t-12.8096 7.94336h-4.87988q-4.87988 0 -7.31934 -2.13867q-2.44043 -2.13867 -7.32031 -10.6934q-13.4199 -19.5527 -34.1592 -19.5527q-4.26953 0 -7.31934 0.611328q2.43945 1.83301 2.43945 3.66602t-2.43945 4.88867q6.70996 1.83301 5.48926 7.33203
q-1.21973 4.27734 -8.53906 3.05469q0 6.72168 -5.49023 6.72168q-4.87988 0 -4.87988 -6.72168q-7.32031 1.22266 -8.54004 -4.27637q-7.92969 12.8311 -7.92969 23.8291q0 6.11035 1.52539 10.3877q1.52441 4.27734 3.35449 7.33203q24.3994 42.7725 61.6084 42.7725
q24.3994 0 37.5146 -7.33301q13.1143 -7.33203 20.7393 -16.4971l14.0293 -16.498q6.40527 -7.33203 17.3848 -7.33203q9.75977 0 12.8096 7.33203q10.3701 23.2188 33.5498 23.2188q17.6895 0 28.6689 -11.915t10.9795 -26.5791q0 -15.8867 -6.4043 -26.8848
q-6.40527 -10.999 -16.4697 -18.3311q-10.0654 -7.33203 -21.96 -10.6924q-11.8945 -3.36133 -22.2646 -3.36133h-4.26953zM865.141 459.268q0 -5.5 0.305664 -10.6934q0.304688 -5.19336 0.304688 -10.082q0 -14.0537 -4.87988 -25.9678
q-4.87988 -11.915 -13.1143 -21.9971q-8.23535 -10.082 -18.6045 -18.6367q-10.3701 -8.55371 -21.96 -16.4971q-4.87988 -2.44434 -13.7246 -3.05566q-8.84473 -0.610352 -17.9951 -1.83301q-1.21973 3.05566 -1.52441 5.19434t-0.304688 5.19336
q0 8.55469 6.70996 25.9688q6.70898 17.4141 17.6895 31.4678q17.6895 21.9961 33.5488 29.6338q15.8594 7.63867 33.5488 11.3047zM582.107 228.301q4.87988 -0.611328 11.2852 -7.94336q6.4043 -7.33203 15.8594 -15.8867t22.875 -15.5811
q13.4189 -7.02637 32.9385 -7.02637q-0.609375 0 3.96484 -0.305664q4.5752 -0.305664 11.8955 0.610352q7.31934 0.916992 16.4688 3.05566q9.15039 2.13867 18.2998 6.41504q17.0801 6.72168 27.4492 21.3867q10.3701 14.6641 10.3701 34.2168q0 25.6631 -17.6895 43.0771
t-43.3086 17.4141q-19.5195 0 -34.7695 -10.3877q-15.25 -10.3867 -18.2998 -23.2188q-6.70996 3.05566 -14.0293 12.832q-7.32031 9.77637 -19.5195 19.5527q17.6895 25.6631 43.3086 36.0498q25.6191 10.3877 53.0693 10.3877q13.4189 0 22.5693 -2.75
q9.14941 -2.74902 17.0791 -6.41504t16.165 -6.41602q8.23438 -2.75 19.2139 -2.75q10.9805 0 18.9102 2.75t15.8594 6.41602t17.0801 6.41504q9.14941 2.75 23.1787 2.75q26.8398 0 50.6289 -10.082q23.79 -10.082 45.1387 -35.1338q-14.0293 -9.16504 -24.0938 -18.3311
q-10.0654 -9.16504 -16.4697 -20.1631q-6.40527 -10.999 -9.45508 -24.1357t-3.0498 -30.8564q0.610352 -23.8301 9.14941 -40.3271q8.54004 -16.498 19.2148 -27.1914q10.6748 -10.6924 21.0449 -16.1914q10.3691 -5.49902 15.249 -7.33203l-17.3848 -34.5234
q-7.62402 -14.9697 -14.6396 -26.2734q-7.01465 -11.3047 -14.0293 -20.4697t-15.5547 -17.1084l-8.23438 -8.55469t-9.45508 -7.33203t-13.4199 -5.19336t-20.1289 -2.13867q-10.9805 0 -19.2148 2.74902l-11.8945 3.97168q-14.0303 6.72168 -21.96 9.16602
q-7.92969 2.44336 -16.4697 2.44336q-7.92969 0 -16.4688 -2.44336q-8.54004 -2.44434 -22.5703 -9.16602l-10.6748 -4.27734q-7.62402 -3.05469 -17.9941 -3.05469q-18.9092 0 -30.499 6.72168q-11.5898 6.7207 -16.4697 11.6094q-22.5693 18.3301 -35.6846 39.1055
q-13.1143 20.7744 -25.9238 51.3252q-4.87988 8.55469 -9.15039 21.0811q-4.26953 12.5254 -7.31934 26.5791t-5.18457 29.0234q-2.13574 14.9707 -2.13574 29.0234q0 3.05566 0.305664 6.41602q0.304688 3.36035 1.52441 6.41602h3.0498zM505.25 262.518
q0 -3.05469 2.13477 -5.19336t5.18457 -2.13867t5.18457 2.13867q2.13574 2.13867 2.13574 5.19336q0 7.33203 -7.32031 7.33203q-3.0498 0 -5.18457 -2.1377q-2.13477 -2.13867 -2.13477 -5.19434z" />
    <glyph glyph-name="ampersand" unicode="&#x26;" horiz-adv-x="668" 
d="M276 300q-53 -42 -53 -84q0 -32 22.5 -53.5t59.5 -21.5q32 0 50.5 9.5t38.5 24.5zM363 578q-1 25 -14 35.5t-35 10.5q-24 0 -37.5 -12.5t-13.5 -33.5q0 -26 50 -84q27 26 38 44t12 40zM637 173q18 -18 24 -34.5t6 -33.5t-7 -33.5t-20 -28.5q-13 -13 -29.5 -19t-33.5 -6
t-33.5 7t-37.5 29q-19 -14 -38 -25t-43 -20.5t-55 -14.5t-72 -5q-61 0 -110.5 13.5t-84 41t-54 68t-19.5 94.5q0 37 12.5 68t31.5 55t44 43.5t50 35.5q-45 49 -63.5 86.5t-18.5 77.5q0 42 18 78t50 62t74.5 41t92.5 15q47 0 86.5 -13t69 -37.5t46 -59.5t16.5 -77
q0 -32 -11.5 -59t-29 -49.5t-39.5 -42l-43 -36.5l77 -81l11 39q5 16 15.5 28t24.5 19t30.5 8.5t32.5 -4.5q16 -5 28 -15.5t19 -24.5t8.5 -30t-4.5 -32l-41 -107z" />
    <glyph glyph-name="quotesingle" unicode="'" horiz-adv-x="223" 
d="M29 691v7q1 17 8 31.5t19 25t27 16t32 4.5q17 0 31.5 -7.5t24.5 -19t16 -26.5t5 -32l-18 -142q-4 -26 -20 -44t-41 -18q-27 0 -43 19.5t-19 42.5z" />
    <glyph glyph-name="parenleft" unicode="(" horiz-adv-x="431" 
d="M348 -18q17 -24 12.5 -53t-28.5 -47q-12 -10 -26.5 -13t-28.5 -1.5t-26.5 8.5t-22.5 20q-40 46 -74.5 96t-59.5 105.5t-39.5 116.5t-14.5 129t15 129.5t40.5 118t60 106t73.5 94.5q17 21 44.5 26t51.5 -9q27 -16 34.5 -45.5t-8.5 -55.5q-30 -42 -53.5 -81t-40 -81.5
t-26 -91.5t-9.5 -110q0 -64 10.5 -116t28.5 -96t40.5 -80.5t46.5 -68.5z" />
    <glyph glyph-name="parenright" unicode=")" horiz-adv-x="431" 
d="M73.0215 -18q-16.999 -24 -12.499 -53q4.49902 -29 28.498 -47q11.999 -10 26.498 -13t28.498 -1.5t26.499 8.5q12.499 7 22.498 20q39.998 46 74.4961 96q34.4971 50 59.4961 105.5q24.998 55.5 39.4971 116.5t14.499 129t-14.999 129.5t-40.4971 118t-59.9961 106
t-73.4961 94.5q-16.999 21 -44.4971 26t-51.4971 -9q-26.998 -16 -34.498 -45.5q-7.49902 -29.5 8.5 -55.5q29.998 -42 53.4971 -81q23.498 -39 39.9971 -81.5t25.998 -91.5q9.5 -49 9.5 -110q0 -64 -10.499 -116q-10.5 -52 -28.499 -96t-40.4971 -80.5
q-22.499 -36.5 -46.4971 -68.5z" />
    <glyph glyph-name="asterisk" unicode="*" horiz-adv-x="476" 
d="M383 468q15 -21 15 -47q0 -18 -8 -35t-24 -28q-21 -15 -47 -15q-40 0 -64 33l-18 25l-18 -23q-11 -17 -28.5 -25t-36.5 -8q-26 0 -46 14q-32 23 -32 63q0 12 3.5 24.5t11.5 23.5l19 25l-28 10q-26 8 -40.5 28.5t-14.5 45.5q0 14 4 25q8 26 29 40.5t47 14.5q13 0 24 -4
l30 -9v29q0 33 23 56.5t56 23.5q32 0 55.5 -23.5t23.5 -56.5v-32l28 9q11 4 25 4q25 0 46 -14.5t29 -39.5q4 -11 4 -25q0 -26 -15 -46.5t-40 -28.5l-30 -9z" />
    <glyph glyph-name="plus" unicode="+" horiz-adv-x="600" 
d="M495 372q18 0 34 -6.5t28.5 -18t19 -27.5t6.5 -34t-6.5 -34t-19 -28t-28.5 -19t-34 -7h-100v-105q0 -21 -8 -38.5t-21.5 -31.5t-31.5 -21.5t-39 -7.5t-38.5 7.5t-31.5 21.5t-21.5 31.5t-7.5 38.5v104h-101q-18 0 -34 7t-27.5 19t-18.5 28t-7 34t7 34t18.5 28t27.5 18.5
t34 6.5h101v104q0 20 7.5 38t21.5 31t31.5 21t38.5 8t39 -8t31 -21t21 -31t8 -38v-104h101z" />
    <glyph glyph-name="comma" unicode="," horiz-adv-x="292" 
d="M31 -122q-12 0 -19.5 10t-4.5 22l61 259q6 27 33 27h120q13 0 21 -11t3 -24l-96 -261q-7 -22 -31 -22h-87z" />
    <glyph glyph-name="hyphen" unicode="-" horiz-adv-x="420" 
d="M138 208q-19 0 -35 7t-28 19t-19 28t-7 35t7 35.5t19 28.5t28 19t35 7h146q37 0 63.5 -26t26.5 -64q0 -19 -7 -35t-19 -28t-28.5 -19t-35.5 -7h-146z" />
    <glyph glyph-name="period" unicode="." horiz-adv-x="280" 
d="M258 94q0 -24 -9 -46t-25 -38t-38 -25t-46 -9t-46 9t-38 25t-24.5 38t-8.5 46t8.5 46t24.5 38t38 24.5t46 8.5t46 -8.5t38 -24.5t25 -38t9 -46z" />
    <glyph glyph-name="slash" unicode="/" horiz-adv-x="462" 
d="M65 -44q-13 0 -20.5 10t-4.5 23l223 761q5 13 16 21.5t25 8.5h96q14 0 22 -10t3 -23l-224 -761q-5 -13 -15 -21.5t-25 -8.5h-96z" />
    <glyph glyph-name="zero" unicode="0" horiz-adv-x="770" 
d="M280 319q-29 0 -49 12t-35 26.5t-26 26.5t-21 13h-8q-8 0 -12 -3.5t-12 -17.5q-22 -32 -56 -32q-7 0 -12 1q4 3 4 6t-4 8q11 3 9 12q-2 7 -14 5q0 11 -9 11q-8 0 -8 -11q-12 2 -14 -7q-13 21 -13 39q0 10 2.5 17t5.5 12q40 70 101 70q40 0 61.5 -12t34 -27l23 -27
t28.5 -12q16 0 21 12q17 38 55 38q29 0 47 -19.5t18 -43.5q0 -26 -10.5 -44t-27 -30t-36 -17.5t-36.5 -5.5h-7zM615 750q0 -9 0.5 -17.5t0.5 -16.5q0 -23 -8 -42.5t-21.5 -36t-30.5 -30.5t-36 -27q-8 -4 -22.5 -5t-29.5 -3q-2 5 -2.5 8.5t-0.5 8.5q0 14 11 42.5t29 51.5
q29 36 55 48.5t55 18.5zM151 372q8 -1 18.5 -13t26 -26t37.5 -25.5t54 -11.5q-1 0 6.5 -0.5t19.5 1t27 5t30 10.5q28 11 45 35t17 56q0 42 -29 70.5t-71 28.5q-32 0 -57 -17t-30 -38q-11 5 -23 21t-32 32q29 42 71 59t87 17q22 0 37 -4.5t28 -10.5t26.5 -10.5t31.5 -4.5
t31 4.5t26 10.5t28 10.5t38 4.5q44 0 83 -16.5t74 -57.5q-23 -15 -39.5 -30t-27 -33t-15.5 -39.5t-5 -50.5q1 -39 15 -66t31.5 -44.5t34.5 -26.5t25 -12l-28.5 -56.5t-24 -43t-23 -33.5t-25.5 -28l-13.5 -14t-15.5 -12t-22 -8.5t-33 -3.5q-18 0 -31.5 4.5l-19.5 6.5
q-23 11 -36 15t-27 4q-13 0 -27 -4t-37 -15l-17.5 -7t-29.5 -5q-31 0 -50 11t-27 19q-37 30 -58.5 64t-42.5 84q-8 14 -15 34.5t-12 43.5t-8.5 47.5t-3.5 47.5q0 5 0.5 10.5t2.5 10.5h5zM25 428q0 -5 3.5 -8.5t8.5 -3.5t8.5 3.5t3.5 8.5q0 12 -12 12q-5 0 -8.5 -3.5
t-3.5 -8.5z" />
    <glyph glyph-name="one" unicode="1" horiz-adv-x="536" 
d="M106 0q-35 0 -59 24t-24 59q0 34 24 58.5t59 24.5h81v318q-14 -23 -37 -45q-27 -24 -62 -21t-59 30q-23 28 -20.5 63t30.5 59l135 138q35 36 86 36q27 0 49 -9t39 -26t26.5 -39t9.5 -48v-456h61q34 0 58.5 -24.5t24.5 -58.5q0 -35 -24.5 -59t-58.5 -24h-339z" />
    <glyph glyph-name="two" unicode="2" horiz-adv-x="778" 
d="M280 319q-29 0 -49 12t-35 26.5t-26 26.5t-21 13h-8q-8 0 -12 -3.5t-12 -17.5q-22 -32 -56 -32q-7 0 -12 1q4 3 4 6t-4 8q11 3 9 12q-2 7 -14 5q0 11 -9 11q-8 0 -8 -11q-12 2 -14 -7q-13 21 -13 39q0 10 2.5 17t5.5 12q40 70 101 70q40 0 61.5 -12t34 -27l23 -27
t28.5 -12q16 0 21 12q17 38 55 38q29 0 47 -19.5t18 -43.5q0 -26 -10.5 -44t-27 -30t-36 -17.5t-36.5 -5.5h-7zM615 750q0 -9 0.5 -17.5t0.5 -16.5q0 -23 -8 -42.5t-21.5 -36t-30.5 -30.5t-36 -27q-8 -4 -22.5 -5t-29.5 -3q-2 5 -2.5 8.5t-0.5 8.5q0 14 11 42.5t29 51.5
q29 36 55 48.5t55 18.5zM151 372q8 -1 18.5 -13t26 -26t37.5 -25.5t54 -11.5q-1 0 6.5 -0.5t19.5 1t27 5t30 10.5q28 11 45 35t17 56q0 42 -29 70.5t-71 28.5q-32 0 -57 -17t-30 -38q-11 5 -23 21t-32 32q29 42 71 59t87 17q22 0 37 -4.5t28 -10.5t26.5 -10.5t31.5 -4.5
t31 4.5t26 10.5t28 10.5t38 4.5q44 0 83 -16.5t74 -57.5q-23 -15 -39.5 -30t-27 -33t-15.5 -39.5t-5 -50.5q1 -39 15 -66t31.5 -44.5t34.5 -26.5t25 -12l-28.5 -56.5t-24 -43t-23 -33.5t-25.5 -28l-13.5 -14t-15.5 -12t-22 -8.5t-33 -3.5q-18 0 -31.5 4.5l-19.5 6.5
q-23 11 -36 15t-27 4q-13 0 -27 -4t-37 -15l-17.5 -7t-29.5 -5q-31 0 -50 11t-27 19q-37 30 -58.5 64t-42.5 84q-8 14 -15 34.5t-12 43.5t-8.5 47.5t-3.5 47.5q0 5 0.5 10.5t2.5 10.5h5zM25 428q0 -5 3.5 -8.5t8.5 -3.5t8.5 3.5t3.5 8.5q0 12 -12 12q-5 0 -8.5 -3.5
t-3.5 -8.5z" />
    <glyph glyph-name="three" unicode="3" horiz-adv-x="563" 
d="M40 661q0 35 24.5 59t59.5 24h263q27 0 50 -9t39.5 -25.5t25.5 -39t7 -48.5q-2 -31 -20 -55l-90 -125v-8q35 -10 61 -29.5t43 -44t25 -54t8 -59.5q0 -48 -15 -94.5t-48 -83t-84.5 -59t-122.5 -22.5q-55 0 -94.5 11.5t-69.5 27.5q-31 18 -41.5 51t3.5 66q7 17 21 29t30 18
t34 5.5t35 -7.5q16 -8 32.5 -12t33.5 -4q42 0 60 19t18 45t-20 46t-68 20h-7q-11 -1 -20.5 4t-14.5 15l-22 53q-8 17 3 32l122 166v9h-99q0 -20 -6.5 -34.5t-17.5 -26t-25.5 -17.5t-31.5 -6q-34 0 -57.5 23.5t-23.5 57.5v82z" />
    <glyph glyph-name="four" unicode="4" horiz-adv-x="781" 
d="M280 319q-29 0 -49 12t-35 26.5t-26 26.5t-21 13h-8q-8 0 -12 -3.5t-12 -17.5q-22 -32 -56 -32q-7 0 -12 1q4 3 4 6t-4 8q11 3 9 12q-2 7 -14 5q0 11 -9 11q-8 0 -8 -11q-12 2 -14 -7q-13 21 -13 39q0 10 2.5 17t5.5 12q40 70 101 70q40 0 61.5 -12t34 -27l23 -27
t28.5 -12q16 0 21 12q17 38 55 38q29 0 47 -19.5t18 -43.5q0 -26 -10.5 -44t-27 -30t-36 -17.5t-36.5 -5.5h-7zM615 750q0 -9 0.5 -17.5t0.5 -16.5q0 -23 -8 -42.5t-21.5 -36t-30.5 -30.5t-36 -27q-8 -4 -22.5 -5t-29.5 -3q-2 5 -2.5 8.5t-0.5 8.5q0 14 11 42.5t29 51.5
q29 36 55 48.5t55 18.5zM151 372q8 -1 18.5 -13t26 -26t37.5 -25.5t54 -11.5q-1 0 6.5 -0.5t19.5 1t27 5t30 10.5q28 11 45 35t17 56q0 42 -29 70.5t-71 28.5q-32 0 -57 -17t-30 -38q-11 5 -23 21t-32 32q29 42 71 59t87 17q22 0 37 -4.5t28 -10.5t26.5 -10.5t31.5 -4.5
t31 4.5t26 10.5t28 10.5t38 4.5q44 0 83 -16.5t74 -57.5q-23 -15 -39.5 -30t-27 -33t-15.5 -39.5t-5 -50.5q1 -39 15 -66t31.5 -44.5t34.5 -26.5t25 -12l-28.5 -56.5t-24 -43t-23 -33.5t-25.5 -28l-13.5 -14t-15.5 -12t-22 -8.5t-33 -3.5q-18 0 -31.5 4.5l-19.5 6.5
q-23 11 -36 15t-27 4q-13 0 -27 -4t-37 -15l-17.5 -7t-29.5 -5q-31 0 -50 11t-27 19q-37 30 -58.5 64t-42.5 84q-8 14 -15 34.5t-12 43.5t-8.5 47.5t-3.5 47.5q0 5 0.5 10.5t2.5 10.5h5zM25 428q0 -5 3.5 -8.5t8.5 -3.5t8.5 3.5t3.5 8.5q0 12 -12 12q-5 0 -8.5 -3.5
t-3.5 -8.5z" />
    <glyph glyph-name="five" unicode="5" horiz-adv-x="569" 
d="M268 -11q-49 0 -88 10t-62.5 21t-36.5 23t-20 27.5t-8 33t4 35.5q6 18 18 31t28 21t34 9.5t36 -4.5q19 -9 39.5 -15.5t41.5 -6.5q33 0 58 17.5t25 54.5q0 29 -21 50t-55 21t-48 -2t-30 -7q-43 -11 -83 10q-23 11 -35.5 32t-10.5 47q15 258 16 269q0 17 7.5 31.5t18.5 25
t25.5 16.5t31.5 6h262q35 0 59 -24t24 -59v-63q0 -28 -17 -49.5t-44 -28.5q-17 -5 -33 -2t-29.5 11t-24 20.5t-13.5 29.5h-98l-10 -106q45 7 68 7q60 0 106 -18t77 -49.5t47 -75t16 -92.5q0 -54 -19.5 -101t-55.5 -82t-86.5 -54.5t-113.5 -19.5z" />
    <glyph glyph-name="six" unicode="6" horiz-adv-x="778" 
d="M280 319q-29 0 -49 12t-35 26.5t-26 26.5t-21 13h-8q-8 0 -12 -3.5t-12 -17.5q-22 -32 -56 -32q-7 0 -12 1q4 3 4 6t-4 8q11 3 9 12q-2 7 -14 5q0 11 -9 11q-8 0 -8 -11q-12 2 -14 -7q-13 21 -13 39q0 10 2.5 17t5.5 12q40 70 101 70q40 0 61.5 -12t34 -27l23 -27
t28.5 -12q16 0 21 12q17 38 55 38q29 0 47 -19.5t18 -43.5q0 -26 -10.5 -44t-27 -30t-36 -17.5t-36.5 -5.5h-7zM615 750q0 -9 0.5 -17.5t0.5 -16.5q0 -23 -8 -42.5t-21.5 -36t-30.5 -30.5t-36 -27q-8 -4 -22.5 -5t-29.5 -3q-2 5 -2.5 8.5t-0.5 8.5q0 14 11 42.5t29 51.5
q29 36 55 48.5t55 18.5zM151 372q8 -1 18.5 -13t26 -26t37.5 -25.5t54 -11.5q-1 0 6.5 -0.5t19.5 1t27 5t30 10.5q28 11 45 35t17 56q0 42 -29 70.5t-71 28.5q-32 0 -57 -17t-30 -38q-11 5 -23 21t-32 32q29 42 71 59t87 17q22 0 37 -4.5t28 -10.5t26.5 -10.5t31.5 -4.5
t31 4.5t26 10.5t28 10.5t38 4.5q44 0 83 -16.5t74 -57.5q-23 -15 -39.5 -30t-27 -33t-15.5 -39.5t-5 -50.5q1 -39 15 -66t31.5 -44.5t34.5 -26.5t25 -12l-28.5 -56.5t-24 -43t-23 -33.5t-25.5 -28l-13.5 -14t-15.5 -12t-22 -8.5t-33 -3.5q-18 0 -31.5 4.5l-19.5 6.5
q-23 11 -36 15t-27 4q-13 0 -27 -4t-37 -15l-17.5 -7t-29.5 -5q-31 0 -50 11t-27 19q-37 30 -58.5 64t-42.5 84q-8 14 -15 34.5t-12 43.5t-8.5 47.5t-3.5 47.5q0 5 0.5 10.5t2.5 10.5h5zM25 428q0 -5 3.5 -8.5t8.5 -3.5t8.5 3.5t3.5 8.5q0 12 -12 12q-5 0 -8.5 -3.5
t-3.5 -8.5z" />
    <glyph glyph-name="seven" unicode="7" horiz-adv-x="543" 
d="M184 0q-19 0 -34 7t-26 18.5t-17 26.5t-6 32q0 8 1 17t6 17l215 456v8h-125q0 -28 -17.5 -46t-43.5 -18h-27q-35 0 -59.5 24.5t-24.5 59.5v59q0 35 24.5 59t59.5 24h344q35 0 59.5 -24t24.5 -59v-45q-1 -19 -8 -36l-247 -532q-10 -23 -30.5 -35.5t-45.5 -12.5h-23z" />
    <glyph glyph-name="eight" unicode="8" horiz-adv-x="583" 
d="M371 217q0 21 -6.5 37t-18 27t-27 20t-31.5 16q-15 -8 -29.5 -17.5t-25.5 -22t-18.5 -27t-7.5 -33.5q0 -33 21.5 -54t63.5 -21q39 0 59 21t20 54zM352 541q0 31 -15.5 46.5t-44.5 15.5q-27 0 -44 -15.5t-17 -44.5q0 -32 20.5 -48.5t45.5 -29.5q25 12 40 29t15 47z
M555 215q0 -59 -23 -102t-60.5 -70.5t-85 -40.5t-95.5 -13q-57 0 -105.5 14.5t-83 43t-53.5 70.5t-19 95q0 59 31.5 104.5t83.5 75.5q-41 29 -65.5 69t-24.5 91q0 47 19 85t50.5 65t75 42t92.5 15q51 0 94.5 -15t75.5 -41.5t50.5 -64.5t18.5 -85q0 -50 -24.5 -89t-65.5 -69
q21 -14 42 -32t36.5 -40.5t25.5 -49.5t10 -58z" />
    <glyph glyph-name="nine" unicode="9" horiz-adv-x="771" 
d="M280 319q-29 0 -49 12t-35 26.5t-26 26.5t-21 13h-8q-8 0 -12 -3.5t-12 -17.5q-22 -32 -56 -32q-7 0 -12 1q4 3 4 6t-4 8q11 3 9 12q-2 7 -14 5q0 11 -9 11q-8 0 -8 -11q-12 2 -14 -7q-13 21 -13 39q0 10 2.5 17t5.5 12q40 70 101 70q40 0 61.5 -12t34 -27l23 -27
t28.5 -12q16 0 21 12q17 38 55 38q29 0 47 -19.5t18 -43.5q0 -26 -10.5 -44t-27 -30t-36 -17.5t-36.5 -5.5h-7zM615 750q0 -9 0.5 -17.5t0.5 -16.5q0 -23 -8 -42.5t-21.5 -36t-30.5 -30.5t-36 -27q-8 -4 -22.5 -5t-29.5 -3q-2 5 -2.5 8.5t-0.5 8.5q0 14 11 42.5t29 51.5
q29 36 55 48.5t55 18.5zM151 372q8 -1 18.5 -13t26 -26t37.5 -25.5t54 -11.5q-1 0 6.5 -0.5t19.5 1t27 5t30 10.5q28 11 45 35t17 56q0 42 -29 70.5t-71 28.5q-32 0 -57 -17t-30 -38q-11 5 -23 21t-32 32q29 42 71 59t87 17q22 0 37 -4.5t28 -10.5t26.5 -10.5t31.5 -4.5
t31 4.5t26 10.5t28 10.5t38 4.5q44 0 83 -16.5t74 -57.5q-23 -15 -39.5 -30t-27 -33t-15.5 -39.5t-5 -50.5q1 -39 15 -66t31.5 -44.5t34.5 -26.5t25 -12l-28.5 -56.5t-24 -43t-23 -33.5t-25.5 -28l-13.5 -14t-15.5 -12t-22 -8.5t-33 -3.5q-18 0 -31.5 4.5l-19.5 6.5
q-23 11 -36 15t-27 4q-13 0 -27 -4t-37 -15l-17.5 -7t-29.5 -5q-31 0 -50 11t-27 19q-37 30 -58.5 64t-42.5 84q-8 14 -15 34.5t-12 43.5t-8.5 47.5t-3.5 47.5q0 5 0.5 10.5t2.5 10.5h5zM25 428q0 -5 3.5 -8.5t8.5 -3.5t8.5 3.5t3.5 8.5q0 12 -12 12q-5 0 -8.5 -3.5
t-3.5 -8.5z" />
    <glyph glyph-name="colon" unicode=":" horiz-adv-x="336" 
d="M287 94q0 -24 -9.5 -46t-25.5 -38t-37.5 -25t-46.5 -9q-24 0 -45.5 9t-37.5 25t-25 38t-9 46t9 46t25 38t37.5 24.5t45.5 8.5q25 0 46.5 -8.5t37.5 -24.5t25.5 -38t9.5 -46zM287 440q0 -25 -9.5 -46.5t-25.5 -37.5t-37.5 -25.5t-46.5 -9.5q-24 0 -45.5 9.5t-37.5 25.5
t-25 37.5t-9 46.5q0 24 9 46t25 38t37.5 24.5t45.5 8.5q25 0 46.5 -8.5t37.5 -24.5t25.5 -38t9.5 -46z" />
    <glyph glyph-name="semicolon" unicode=";" horiz-adv-x="321" 
d="M311 440q0 -25 -9.5 -46.5t-25.5 -37.5t-37.5 -25.5t-45.5 -9.5q-25 0 -46.5 9.5t-37.5 25.5t-25 37.5t-9 46.5q0 24 9 46t25 38t37.5 24.5t46.5 8.5q24 0 45.5 -8.5t37.5 -24.5t25.5 -38t9.5 -46zM59 -122q-12 0 -19.5 10t-4.5 22l61 259q6 27 33 27h120q13 0 21 -11
t4 -24l-96 -261q-8 -22 -31 -22h-88z" />
    <glyph glyph-name="less" unicode="&#x3c;" horiz-adv-x="600" 
d="M510 161q20 -11 30 -29t10 -39q0 -17 -6.5 -31t-17.5 -24.5t-24.5 -16t-28.5 -5.5q-20 0 -39 10l-87 44.5l-95 47.5l-83 42l-52 27q-33 13 -53.5 41t-20.5 65q0 35 19.5 64.5t53.5 42.5l315 162q19 10 41 10q15 0 29 -5.5t25 -15.5t17.5 -24.5t6.5 -31.5
q0 -25 -14.5 -44.5t-41.5 -30.5l-271 -124l134 -64l50.5 -24t44.5 -20.5t58 -26.5z" />
    <glyph glyph-name="equal" unicode="=" horiz-adv-x="600" 
d="M46 430q0 32 22 54t54 22h360q32 0 54 -22t22 -54t-22 -54.5t-54 -22.5h-360q-32 0 -54 22.5t-22 54.5zM46 167q0 32 22 54t54 22h360q32 0 54 -22t22 -54t-22 -54t-54 -22h-360q-32 0 -54 22t-22 54z" />
    <glyph glyph-name="greater" unicode="&#x3e;" horiz-adv-x="600" 
d="M83.0312 161q-19.999 -11 -29.998 -29q-10 -18 -10 -39q0 -17 6.5 -31t17.499 -24.5t24.498 -16t28.499 -5.5q19.998 0 38.9971 10l86.9951 44.5l94.9941 47.5l82.9951 42l51.9961 27q32.998 13 53.4971 41t20.499 65q0 35 -19.499 64.5t-53.4971 42.5l-314.98 162
q-18.999 10 -40.9971 10q-15 0 -28.999 -5.5t-24.998 -15.5t-17.499 -24.5t-6.5 -31.5q0 -25 14.5 -44.5q14.499 -19.5 41.4971 -30.5l270.983 -124l-133.992 -64l-50.4971 -24q-24.498 -12 -44.4971 -20.5q-19.998 -8.5 -57.9961 -26.5z" />
    <glyph glyph-name="question" unicode="?" horiz-adv-x="502" 
d="M344 113q0 -26 -9.5 -47.5t-26 -38t-38 -26t-45.5 -9.5q-26 0 -48 9.5t-38.5 26t-26 38t-9.5 47.5q0 24 9.5 45.5t26 37.5t38.5 25.5t48 9.5q24 0 45.5 -9.5t38 -25.5t26 -37.5t9.5 -45.5zM483 553q0 -66 -42 -115.5t-130 -79.5q-6 -35 -30.5 -58t-58.5 -23
q-23 0 -40.5 8t-29 22t-18 32.5t-6.5 38.5v65q0 16 25 24q36 11 62.5 18t43 15.5t25 20.5t8.5 34q0 19 -12.5 31.5t-56.5 12.5q-16 0 -57.5 -12t-53.5 -12q-15 0 -29 6t-25.5 16.5t-18 25.5t-6.5 33q0 26 14.5 43.5t41.5 31t75.5 23t79.5 9.5q53 0 96.5 -15t75.5 -42.5
t49.5 -66t17.5 -86.5z" />
    <glyph glyph-name="at" unicode="@" horiz-adv-x="869" 
d="M493 333q-8 9 -20.5 16t-25.5 7q-16 0 -28.5 -17.5t-20.5 -42t-11.5 -50t-3.5 -39.5q0 -19 4 -28t22 -9q9 0 20 6t21.5 17.5t18.5 28t11 36.5zM832 374q0 -69 -21.5 -124.5t-59 -94.5t-86 -60.5t-103.5 -21.5q-78 0 -92 54q-25 -25 -50 -39.5t-61 -14.5q-54 0 -78.5 34.5
t-24.5 90.5q0 50 13.5 96t37 81.5t54 56.5t64.5 21q66 0 96 -31q6 15 19 23t28 8q23 0 37.5 -15t14.5 -36q0 -3 -1 -15q-39 -175 -39 -196q0 -11 6 -17t22 -6q21 0 40.5 18t35 46t25 64t9.5 72q0 42 -14.5 78.5t-44 64.5t-73.5 43.5t-102 15.5q-76 0 -138.5 -28t-107 -76.5
t-69 -113.5t-24.5 -140q0 -68 22 -114t59.5 -74t86 -39.5t101.5 -11.5q64 0 119.5 9.5t109.5 29.5q16 7 26 7q19 0 37 -14.5t18 -39.5q0 -16 -8.5 -28.5t-23.5 -20.5q-26 -12 -58 -22t-68.5 -17t-74.5 -10.5t-75 -3.5q-83 0 -155 21t-124.5 64.5t-82.5 109.5t-30 157
q0 100 37 184t100 144.5t147.5 94.5t180.5 34q77 0 140 -20t108 -58.5t70 -93.5t25 -126z" />
    <glyph glyph-name="A" unicode="A" horiz-adv-x="694" 
d="M390 371v6l-38 209h-5l-41 -209v-6h84zM86 1q-31 0 -55.5 20t-24.5 56q0 25 14 45.5t38 29.5l154 533q8 28 30 44t51 16h111q27 0 50.5 -16t30.5 -44l154 -533q23 -9 38 -28t15 -48q0 -27 -17.5 -47.5t-44.5 -27.5h-173q-31 1 -54 22t-23 57q0 24 14.5 44.5t38.5 27.5
l3 1l-14 79h-146l-14 -80q25 -8 39.5 -27.5t14.5 -46.5q0 -28 -18 -50t-48 -27h-164z" />
    <glyph glyph-name="B" unicode="B" horiz-adv-x="678" 
d="M117 0q-30 1 -51 21t-23 50q-1 16 4.5 30.5t15 25t23 17t29.5 7.5v441q-29 2 -49.5 22.5t-22.5 51.5q-1 15 5 29t15.5 24.5t23.5 17.5t30 7h251h37.5t32.5 -1t28.5 -3.5t28.5 -7.5q61 -21 97 -67t36 -114q0 -45 -19.5 -88t-60.5 -70v-9q32 -11 53 -29t33 -40.5t16.5 -47
t4.5 -48.5q0 -44 -13.5 -79.5t-36.5 -61.5t-52.5 -43.5t-61.5 -26.5q-29 -6 -52 -7t-51 -1h-271zM377 464q25 0 36 16.5t11 41.5q0 24 -11.5 40.5t-38.5 16.5h-53v-115h56zM395 166q29 0 42 20t13 50q0 27 -11.5 44.5t-41.5 17.5h-76v-132h74z" />
    <glyph glyph-name="C" unicode="C" horiz-adv-x="705" 
d="M23 373q0 85 28.5 155.5t77.5 121t114.5 79.5t141.5 29q21 0 50 -3t61 -9.5t63 -17.5t55.5 -27t40.5 -39t16 -66q0 -68 -30.5 -91t-64.5 -23q-27 0 -51 14.5t-37 41.5q-14 27 -30 32t-32.5 6.5t-30.5 1.5q-72 0 -115.5 -47t-43.5 -145q0 -55 12.5 -96.5t35.5 -68.5
t54.5 -40.5t68.5 -13.5q23 0 48 5t35 21q8 33 34 52t59 19q20 0 38 -8t31 -21t20.5 -30.5t7.5 -36.5q-1 -70 -45 -108q-79 -73 -215 -73h-14.5t-15.5 1q-79 0 -146 29.5t-116 81t-77 122t-28 152.5z" />
    <glyph glyph-name="D" unicode="D" horiz-adv-x="745" 
d="M115 0q-29 2 -49.5 22t-22.5 50q-2 32 19.5 55.5t53.5 25.5v439q-30 2 -50 22t-23 49q-2 31 18.5 55t52.5 26h235q39 0 73.5 -1.5t66.5 -12.5q51 -17 93.5 -48.5t74.5 -77t50 -103.5t18 -128q0 -62 -14 -116.5t-40.5 -98.5t-63.5 -77.5t-83 -53.5q-41 -16 -82.5 -21.5
t-90.5 -5.5h-236zM346 166q30 0 53.5 5t46.5 18q30 24 48 71t18 112q0 76 -24 123t-60 68q-22 10 -41 13t-41 3h-25v-413h25z" />
    <glyph glyph-name="E" unicode="E" 
d="M597 72q0 -30 -21 -50.5t-51 -21.5h-28h-104h-110t-98.5 0.5t-67.5 0.5q-36 2 -54 22t-20 50q-1 15 4.5 29.5t15 25t23.5 17.5t30 8v440q-31 2 -51 22.5t-22 50.5q-1 15 5 29.5t15.5 25t23.5 17t30 7.5h391q32 0 55.5 -23.5t23.5 -55.5v-66q1 -32 -18 -56.5t-51 -31.5
q-18 -3 -35 0.5t-30.5 12.5t-23.5 23t-14 32h-94v-120h98q35 0 59.5 -24.5t24.5 -59.5t-24.5 -59.5t-59.5 -24.5h-98v-125h102q8 32 34 51.5t59 16.5q37 -4 60.5 -31.5t20.5 -64.5v-67z" />
    <glyph glyph-name="F" unicode="F" horiz-adv-x="586" 
d="M322 151q7 1 14 0q15 -1 28.5 -8t23 -18t14 -25t3.5 -30q-3 -31 -27 -51.5t-55 -18.5h-200q-16 -1 -30 4t-25 15t-17.5 23.5t-7.5 29.5t4.5 30.5t15 25t23.5 17t30 7.5v440q-30 2 -50.5 22t-22.5 51q-1 16 4.5 30t15 24.5t23.5 17.5t30 7h372q35 0 59.5 -23.5t24.5 -58.5
v-59q0 -29 -14.5 -51t-40.5 -33q-17 -8 -34.5 -7.5t-33.5 7t-28.5 18.5t-20.5 29h-78v-134h102q35 0 59 -24t24 -57q0 -36 -24 -60.5t-59 -24.5h-102v-115z" />
    <glyph glyph-name="G" unicode="G" horiz-adv-x="724" 
d="M23 380q0 83 28 153t77.5 119.5t117.5 77.5t149 28q47 0 97 -9.5t91 -27.5t67.5 -44.5t26.5 -61.5v-42q-2 -17 -9 -34t-20 -30t-29.5 -20.5t-37.5 -7.5q-30 0 -54.5 17.5t-34.5 47.5q-7 17 -28.5 24.5t-54.5 7.5q-85 0 -129 -44t-44 -145q0 -49 11 -89.5t34.5 -70
t58.5 -46t82 -16.5q13 0 28 2t28.5 6.5t22 12.5t8.5 20v35h-27q-29 1 -50.5 22.5t-21.5 51.5q0 31 22 54.5t53 23.5h123q35 0 59.5 -24.5t24.5 -59.5v-180q0 -28 -15.5 -49t-40.5 -37t-57 -26.5t-65.5 -18t-65.5 -10t-56 -2.5q-79 0 -146.5 29t-117 81t-77.5 124t-28 158z
" />
    <glyph glyph-name="H" unicode="H" horiz-adv-x="832" 
d="M321 152q31 -2 51 -22t22 -50q1 -16 -4.5 -30t-15.5 -25t-23.5 -17.5t-29.5 -7.5h-204q-30 0 -51.5 20.5t-23.5 50.5q-1 16 4.5 30.5t15 25t23 17t29.5 7.5v441q-30 1 -51 23t-21 52q0 32 22 54.5t53 22.5h203q30 0 51 -21t23 -51q1 -16 -4.5 -30t-15 -25t-23.5 -17.5
t-30 -7.5v-140h196v140q-30 2 -50.5 22.5t-21.5 51.5q-1 15 4.5 29t15.5 24.5t23.5 17.5t29.5 7h206q29 -1 49 -21.5t22 -50.5q1 -16 -4 -30t-15 -25t-23.5 -17.5t-29.5 -7.5v-441q30 -2 50 -22t22 -49q1 -16 -4 -30t-15 -25t-23.5 -17.5t-28.5 -7.5h-206q-30 2 -51 22
t-22 50q-1 16 4 30.5t15 25t23.5 17t29.5 7.5v133h-196v-133z" />
    <glyph glyph-name="I" unicode="I" horiz-adv-x="436" 
d="M322 151q30 -2 51 -23.5t21 -51.5q0 -16 -5.5 -29.5t-15.5 -24t-24 -16.5t-29 -6h-203q-31 2 -51 22t-22 50q-1 15 4.5 29.5t15 25t23.5 17t30 7.5v441q-31 2 -51 22t-22 50q-2 32 19.5 55.5t53.5 24.5h204q30 0 51 -21t23 -51q1 -16 -4.5 -30t-15 -25t-23.5 -17.5
t-30 -7.5v-441z" />
    <glyph glyph-name="J" unicode="J" horiz-adv-x="557" 
d="M238 -12q-40 0 -77 10.5t-68 33.5t-52.5 57.5t-30.5 81.5q-1 4 -1.5 6.5t-0.5 6.5q-2 20 3.5 39t17.5 33.5t29 24t37 11.5q40 4 71.5 -21t36.5 -65q2 -15 9 -24t25 -9q21 0 26.5 17.5t5.5 48.5v353h-10q-16 1 -29 8t-22.5 18t-14.5 25t-4 30q2 32 26 52.5t55 18.5h205
q24 -4 40.5 -21t21.5 -42q5 -31 -13 -57t-49 -32v-356q0 -62 -21 -108.5t-54 -77.5t-75.5 -46.5t-86.5 -15.5z" />
    <glyph glyph-name="K" unicode="K" horiz-adv-x="728" 
d="M321 153q25 -5 41.5 -23t20.5 -43q1 -16 -3 -30.5t-13 -26.5t-22 -20t-29 -10h-200q-30 2 -50.5 22t-22.5 50q-1 15 4.5 29.5t15 25t23.5 17t30 7.5v441q-30 2 -50.5 22t-22.5 51q-1 15 4.5 29t15 24.5t23.5 18t30 7.5h154q44 2 70 -34q11 -14 14.5 -30.5t0.5 -32.5
t-11 -30t-23 -25v-132h45l78 125v7q-21 11 -33 29t-12 41q0 17 5.5 31.5t16 25.5t25 18t31.5 7h148q26 0 46.5 -15t28.5 -39q10 -31 -5 -59t-46 -39l-132 -194v-8q10 -5 20 -14q9 -8 20 -23.5t19 -34.5l28.5 -70.5t29.5 -68.5q6 -17 19 -25q37 -15 47 -55q4 -17 1 -33
t-11.5 -29.5t-21.5 -23t-30 -13.5h-76q-44 0 -65.5 13t-32.5 40l-89 216q-13 23 -46 23h-8v-139z" />
    <glyph glyph-name="L" unicode="L" horiz-adv-x="611" 
d="M601 84q0 -35 -24.5 -59.5t-59.5 -24.5h-400q-31 2 -51 21.5t-22 48.5q-1 16 4.5 30.5t14.5 25t22.5 17.5t29.5 8v428q-27 5 -46 23.5t-24 46.5q-5 34 15.5 62t54.5 33h206q31 -3 50.5 -23t23.5 -49q3 -17 -2 -33t-15 -28.5t-24 -21t-31 -10.5v-413h106v20q0 36 24.5 61
t60.5 25q37 0 62 -25t25 -61v-102z" />
    <glyph glyph-name="M" unicode="M" horiz-adv-x="943" 
d="M302 152q28 -7 44.5 -31.5t11.5 -53.5q-5 -32 -30 -51.5t-57 -14.5h-172q-29 3 -48 22.5t-21 46.5q-2 32 18.5 56t52.5 26v5q7 108 16 215.5t16 215.5v5q-30 2 -49.5 21.5t-22.5 48.5q-3 31 17.5 55.5t52.5 26.5h193q27 0 43.5 -17.5t23.5 -46.5q84 -362 85 -365
q0 4 82 365q7 29 29.5 46.5t52.5 17.5h177q30 -1 49.5 -22t21.5 -50q1 -16 -4 -30t-15 -25t-23.5 -17.5t-29.5 -7.5v-5q7 -108 16 -215.5t17 -215.5v-5q31 -2 51.5 -25.5t18.5 -54.5t-25 -52t-55 -19h-183q-22 4 -38.5 18.5t-23.5 36.5q-8 31 7.5 59t46.5 37v325h-9
l-58 -257q-9 -38 -38 -61t-67 -23q-41 0 -69.5 23t-38.5 61l-58 257h-7z" />
    <glyph glyph-name="N" unicode="N" horiz-adv-x="816" 
d="M321 152q35 -1 56.5 -23.5t21.5 -54.5t-23.5 -53t-54.5 -21h-207q-30 2 -50.5 24.5t-20.5 52.5q0 14 6 27t15.5 23.5t23 17t28.5 7.5v440q-31 2 -52 24t-21 52q0 29 21 52t51 24h172q21 0 36.5 -14t25.5 -33l74 -158q11 -24 22 -45.5t22 -46t48 -124.5h5l-7 99v170h-4
q-31 2 -52.5 23t-21.5 51q0 15 6 30t16 25t23.5 16.5t28.5 6.5h207q31 0 53 -22.5t22 -54.5q0 -30 -21 -51.5t-51 -23.5v-508q0 -35 -24.5 -59.5t-59.5 -24.5h-72q-24 0 -44.5 12.5t-30.5 34.5l-137 283l-31 89h-5l6 -99v-168z" />
    <glyph glyph-name="O" unicode="O" horiz-adv-x="769" 
d="M23 377q0 79 27 148.5t75 121.5t115 81.5t147 29.5t147 -29.5t115 -81.5t75 -121.5t27 -148.5q0 -82 -27 -153t-75 -123.5t-115 -82.5t-147 -30t-147 30t-115 82.5t-75 123.5t-27 153zM236 377q0 -44 12 -81t32.5 -64.5t48 -43t58.5 -15.5t58.5 15.5t48.5 43t33 64.5
t12 81q0 42 -12 77.5t-33 62t-48.5 41t-58.5 14.5t-58.5 -14.5t-48 -41t-32.5 -62t-12 -77.5z" />
    <glyph glyph-name="P" unicode="P" horiz-adv-x="654" 
d="M321 151q31 -2 52 -23.5t21 -51.5q0 -32 -22 -54t-53 -22h-202q-31 1 -52.5 22.5t-21.5 53.5q0 29 21 51t51 24v441q-30 2 -51 23t-21 54q0 30 21.5 52t51.5 23h279q28 0 58 -2.5t56 -13.5q31 -13 56.5 -36.5t44 -55t29 -70t10.5 -80.5q0 -41 -10 -79.5t-28 -71
t-43.5 -57t-57.5 -36.5q-22 -10 -50.5 -13t-59.5 -3h-79v-75zM370 391q42 0 59.5 25.5t17.5 68.5q0 47 -17 70.5t-57 23.5h-52v-188h49z" />
    <glyph glyph-name="Q" unicode="Q" horiz-adv-x="778" 
d="M23 375q0 81 26.5 151t75 121t116.5 81t151 30q78 0 144.5 -26.5t115 -75t76.5 -116t28 -149.5q0 -66 -18 -118t-52 -103v-7l2 -2l10 -8q29 -25 29 -63q0 -17 -7 -32t-19 -26t-27 -17.5t-31 -6.5q-30 0 -52 19l-15 15q-39 -27 -86.5 -40.5t-99.5 -13.5q-82 0 -149 29.5
t-116 81.5t-75.5 123t-26.5 153zM236 375q0 -43 12 -80t33.5 -64t49.5 -42.5t61 -15.5q26 0 49 9l-41 38q-22 23 -22 55q0 17 6.5 31.5t18 26t26.5 18t32 6.5q24 0 40 -11t35 -30l4 -5q8 14 8 70q0 39 -12 74t-33.5 60.5t-50 41t-60.5 15.5q-33 0 -61 -15t-49.5 -41
t-33.5 -62t-12 -79z" />
    <glyph glyph-name="R" unicode="R" horiz-adv-x="713" 
d="M372 412q33 0 53 21.5t20 65.5q0 36 -18.5 58t-69.5 22h-36v-167h51zM647 519q0 -65 -26.5 -117.5t-71.5 -88.5v-8q14 -5 27 -18.5t21 -29.5l33 -77q6 -14 20 -23q25 -10 37.5 -31.5t12.5 -47.5q-2 -33 -25 -55.5t-56 -22.5h-60q-42 0 -63 12.5t-34 40.5l-78 173
q-8 17 -16.5 24t-32.5 7h-14v-105q28 -5 45.5 -26t17.5 -50q0 -27 -17.5 -48.5t-45.5 -27.5h-205q-31 2 -52 23t-21 53q0 29 21 51t52 24v441q-31 2 -52 23t-21 54q0 30 21.5 52t51.5 23h243q40 0 76.5 -1t66.5 -12q66 -21 105.5 -76.5t39.5 -135.5z" />
    <glyph glyph-name="S" unicode="S" horiz-adv-x="596" 
d="M293 -12q-50 0 -97 11.5t-84.5 35t-60 58.5t-22.5 80q0 19 7 36.5t20 31t30 21.5t38 8q28 0 52.5 -15t37.5 -42q10 -19 30 -29.5t49 -10.5q34 0 53 12.5t19 33.5q0 24 -23.5 40.5t-59.5 31.5l-77 32.5t-76.5 44t-59 66.5t-23.5 99q0 66 23 109.5t59.5 69t83 36t93.5 10.5
q51 0 96 -10t78 -30.5t52.5 -52t19.5 -73.5q0 -19 -7.5 -36.5t-21 -32t-31.5 -22.5t-41 -8q-28 0 -52 16t-37 44q-9 19 -56 19q-21 0 -36 -8t-15 -31q0 -16 8.5 -28t23 -21t33 -17l40.5 -17q40 -14 78 -32t68 -43.5t48.5 -61.5t18.5 -86q0 -68 -25 -113.5t-64.5 -73.5
t-89.5 -40t-100 -12z" />
    <glyph glyph-name="T" unicode="T" horiz-adv-x="668" 
d="M240 0q-33 0 -55.5 22t-22.5 55q0 30 21 51.5t51 23.5v427h-45q1 -11 1 -15q0 -19 -7 -34.5t-19.5 -26.5t-27.5 -18t-32 -7q-38 0 -63 25.5t-24 60.5v93q0 18 6.5 34t18 27.5t27 18.5t33.5 7h470q34 0 58.5 -24t25.5 -59v-79q0 -45 -21.5 -74.5t-64.5 -29.5
q-39 0 -62.5 26t-23.5 60q0 4 1 15h-45v-428q31 -2 51.5 -23.5t20.5 -53.5q0 -30 -21.5 -51t-50.5 -23h-200z" />
    <glyph glyph-name="U" unicode="U" horiz-adv-x="781" 
d="M93 592q-15 1 -28 7.5t-22.5 16.5t-15 23t-5.5 28q0 30 20.5 53t50.5 24h207q29 -1 49.5 -23t20.5 -53q0 -15 -5 -28t-14.5 -23.5t-22.5 -17t-28 -7.5v-306q0 -57 25 -85t70 -28q38 0 65 27t27 86v306q-31 3 -51 24.5t-20 51.5q0 29 20 51.5t50 24.5h208
q31 -1 51.5 -23.5t20.5 -52.5t-21 -52t-51 -24v-305q0 -77 -24.5 -133.5t-65.5 -93.5t-95.5 -54.5t-114.5 -17.5q-71 0 -127 20.5t-95 59.5t-59 94t-20 125v305z" />
    <glyph glyph-name="V" unicode="V" horiz-adv-x="698" 
d="M490 96q-15 -47 -53 -74.5t-86 -27.5t-86 28t-52 74l-153 496q-22 8 -37 25t-17 41q-4 33 16.5 58t52.5 28h192q43 -10 56 -51q6 -16 4.5 -31.5t-8 -29t-18 -24t-27.5 -17.5l61 -260l15 -97h4l14 97l31.5 128l31.5 133q-29 8 -45 31.5t-13 51.5q4 33 29 51.5t57 17.5h173
q21 -4 37 -17.5t24 -34.5q4 -16 3 -31.5t-8 -28.5t-18.5 -23.5t-26.5 -16.5z" />
    <glyph glyph-name="W" unicode="W" horiz-adv-x="991" 
d="M64 592q-26 9 -40.5 29t-14.5 47q0 15 6.5 29t16.5 23.5t24 16.5t29 7h183q32 0 53 -23t21 -55q0 -16 -6.5 -29.5t-17.5 -23.5t-25 -15.5t-29 -5.5l43 -266l10 -93h4l12 93l71 341q8 35 33.5 56t60.5 21q36 0 62 -21t33 -56l72 -341l13 -93h3l9 93l43 266h-6
q-30 2 -51.5 23.5t-21.5 51.5q0 32 22 54.5t53 22.5h186q30 -2 50.5 -23.5t20.5 -54.5q0 -24 -14 -45t-40 -29l-104 -482q-11 -49 -48 -79.5t-88 -30.5q-26 0 -48.5 8t-40.5 23t-31 35t-17 46l-42 202l-12 98h-4l-13 -98l-42 -202q-6 -25 -18.5 -45.5t-30.5 -35.5t-40.5 -23
t-47.5 -8q-51 0 -88.5 30.5t-49.5 79.5z" />
    <glyph glyph-name="X" unicode="X" horiz-adv-x="696" 
d="M105 0q-32 0 -55 22t-23 58q0 23 13 43t37 28l166 229v5l-156 205q-26 10 -41.5 30.5t-15.5 46.5q0 17 6.5 31.5t17.5 24.5t25.5 15.5t30.5 5.5h155q31 0 54.5 -22t23.5 -56q0 -24 -12.5 -43.5t-35.5 -30.5v-7l69 -95l65 95v7q-22 11 -34.5 29.5t-12.5 43.5q0 33 23 56
t56 23h138q31 0 54.5 -21.5t23.5 -56.5q0 -24 -14 -44.5t-39 -29.5l-164 -221v-5l160 -213q25 -9 39.5 -29.5t14.5 -45.5q0 -34 -22.5 -56t-54.5 -22h-157q-31 0 -54.5 21.5t-23.5 56.5q0 24 13.5 44t37.5 29v8l-74 101l-67 -101v-8q23 -8 36 -27.5t13 -42.5
q0 -16 -6.5 -30.5t-17 -26t-25 -18t-30.5 -6.5h-137z" />
    <glyph glyph-name="Y" unicode="Y" horiz-adv-x="640" 
d="M425 151q31 -1 52 -23t21 -54q0 -30 -21.5 -51t-50.5 -23h-204q-31 0 -53 22.5t-22 54.5q0 14 5.5 27t15.5 23t23 16.5t28 7.5v151l-158 290q-25 8 -39.5 28.5t-14.5 46.5q0 15 6 29t16 24t23.5 17t28.5 7h142q35 0 58.5 -23.5t23.5 -58.5q0 -46 -43 -70v-6l61 -135
l61 135l-1 6q-42 23 -42 70q0 35 24 58.5t58 23.5h144q29 -2 49.5 -24t20.5 -54q0 -25 -15 -45.5t-40 -28.5l-157 -290v-151z" />
    <glyph glyph-name="Z" unicode="Z" 
d="M125 0q-35 0 -59.5 24.5t-24.5 59.5v20q0 25 14 46l286 433l-41 -4h-84l1 -15q0 -19 -7.5 -35t-19.5 -27t-28 -17.5t-33 -6.5q-39 0 -62.5 26.5t-23.5 62.5q1 50 14 79t34.5 51t50.5 34.5t63 12.5h297q35 0 59.5 -24t24.5 -59q0 -42 -14 -64l-257 -389l-31 -38v-8l42 4
h101l-2 14q0 37 23.5 64.5t60.5 27.5q38 0 64 -25.5t26 -64.5v-45q0 -28 -11 -53.5t-29.5 -43.5t-43.5 -29t-53 -11h-337z" />
    <glyph glyph-name="bracketleft" unicode="[" horiz-adv-x="362" 
d="M154 -101q-35 0 -59.5 24.5t-24.5 59.5v718q0 35 24.5 59.5t59.5 24.5h125q30 0 50.5 -20.5t20.5 -50.5q0 -29 -20.5 -49t-50.5 -20h-45v-605h45q30 0 50.5 -20.5t20.5 -49.5t-20.5 -50t-50.5 -21h-125z" />
    <glyph glyph-name="backslash" unicode="\" horiz-adv-x="462" 
d="M303 -44q-14 0 -25 8.5t-16 21.5l-107 368l-40.5 138l-35.5 122.5l-26.5 91t-12.5 41.5q-3 13 4.5 23t20.5 10h96q15 0 25.5 -8.5t14.5 -21.5l224 -761q5 -13 -3 -23t-22 -10h-97z" />
    <glyph glyph-name="bracketright" unicode="]" horiz-adv-x="362" 
d="M211.01 -101q34.9971 0 59.4961 24.5q24.498 24.5 24.498 59.5v718q0 35 -24.498 59.5q-24.499 24.5 -59.4961 24.5h-124.993q-29.998 0 -50.4961 -20.5q-20.499 -20.5 -20.499 -50.5q0 -29 20.499 -49q20.498 -20 50.4961 -20h44.998v-605h-44.998
q-29.998 0 -50.4961 -20.5q-20.499 -20.5 -20.499 -49.5t20.499 -50q20.498 -21 50.4961 -21h124.993z" />
    <glyph glyph-name="asciicircum" unicode="^" horiz-adv-x="600" 
d="M511 477q9 -15 11 -30.5t-1.5 -30t-12.5 -26.5t-23 -21q-14 -8 -29 -10t-29.5 1.5t-27.5 12.5t-21 23l-75 160l-76 -160q-9 -14 -21 -23t-27 -12.5t-30.5 -1.5t-29.5 10q-14 9 -23 21t-12 26.5t-1 30t10 30.5l93 182q10 22 30 34t44 12h85q24 0 44 -12t30 -34z" />
    <glyph glyph-name="underscore" unicode="_" horiz-adv-x="563" 
d="M-17 -85q0 32 22 54.5t54 22.5h452q32 0 54 -22.5t22 -54.5t-22 -54t-54 -22h-452q-32 0 -54 22t-22 54z" />
    <glyph glyph-name="grave" unicode="`" horiz-adv-x="448" 
d="M236 801q-16 0 -25 11l-37 42q-15 16 -30.5 34.5t-26.5 29.5q-5 7 -6 14.5t2.5 14t9.5 11t14 4.5h109q20 0 28 -16l69 -106q8 -13 1 -26t-23 -13h-85z" />
    <glyph glyph-name="a" unicode="a" horiz-adv-x="558" 
d="M13 147q0 57 29 92t70 53t84.5 23.5t71.5 5.5h28v30q0 21 -16.5 30t-36.5 9q-14 0 -26.5 -3.5t-25 -8t-26 -7.5t-27.5 -3q-31 0 -55 23t-24 56q0 27 16.5 46.5t45 32.5t66.5 19t80 6q111 0 170.5 -57.5t59.5 -167.5v-151q0 -18 7 -25q21 -10 34.5 -28t13.5 -41
q0 -35 -22.5 -58t-55.5 -23h-90q-17 0 -30.5 6t-22 15.5t-12 20.5t-2.5 20l1 15h-4q-5 -13 -15 -27t-27 -27.5t-41 -22.5t-57 -9t-62 11t-51 32t-35 49.5t-13 63.5zM206 168q0 -20 10 -31.5t24 -11.5q20 0 39.5 21t19.5 61v26h-11q-23 0 -38.5 -6t-25.5 -15t-14 -20.5
t-4 -23.5z" />
    <glyph glyph-name="b" unicode="b" horiz-adv-x="619" 
d="M275 18q-20 16 -31 30q-29 -49 -88 -49q-20 0 -37 7.5t-30.5 20t-21.5 30.5t-9 38v508q-28 4 -44.5 24t-16.5 46q0 31 21 53.5t52 22.5h104q35 0 59 -24t24 -59v-166q20 18 48.5 34.5t76.5 16.5q50 0 92.5 -21t72 -58.5t46 -89t16.5 -113.5q0 -64 -18 -115.5t-49.5 -88.5
t-74 -57t-93.5 -20q-36 0 -60 9.5t-39 20.5zM253 264q0 -19 4.5 -38t14.5 -34t24.5 -24.5t34.5 -9.5q31 0 53.5 26.5t22.5 79.5q0 51 -20.5 82t-56.5 31q-30 0 -53.5 -27t-23.5 -86z" />
    <glyph glyph-name="c" unicode="c" horiz-adv-x="539" 
d="M13 268q0 57 20 108.5t56 90t87 61.5t114 23q42 0 83.5 -8t74 -25t53 -44t20.5 -72q0 -18 -7 -34t-19.5 -28.5t-29.5 -20t-36 -7.5q-26 0 -47.5 12.5t-33.5 37.5q-13 17 -49 17q-25 0 -41 -8.5t-26 -23t-14 -33t-4 -38.5q0 -33 8 -55.5t22 -36.5t32.5 -20t40.5 -6
q19 0 36.5 5l47.5 14q14 4 27 4q16 0 31 -6.5t27 -17.5t19 -26.5t7 -33.5q0 -35 -23.5 -56.5t-56.5 -33.5t-68.5 -15.5t-59.5 -3.5q-57 0 -109 18.5t-92.5 54.5t-65 88t-24.5 119z" />
    <glyph glyph-name="d" unicode="d" horiz-adv-x="637" 
d="M16 270q0 64 17 116t47.5 88.5t73.5 56.5t97 20q26 0 44.5 -4.5t31.5 -11.5t22.5 -15l17.5 -15v98q-30 4 -46.5 24t-16.5 46q0 34 22 55t53 21h103q35 0 59.5 -24.5t24.5 -58.5v-491q0 -16 21 -28q32 -24 32 -67q0 -32 -21.5 -55t-54.5 -25h-91q-19 0 -32 5t-21 12.5
t-11.5 16t-3.5 16.5v28q-5 -13 -15.5 -28.5t-28 -29t-42.5 -23t-61 -9.5q-50 0 -91 20t-70 57t-44.5 89t-15.5 116zM216 269q0 -51 21.5 -81t55.5 -30q30 0 54 26t24 82q0 23 -4.5 43t-14 35t-24 24t-33.5 9q-32 0 -55.5 -27.5t-23.5 -80.5z" />
    <glyph glyph-name="e" unicode="e" horiz-adv-x="531" 
d="M15 274q0 54 17.5 104t50.5 88.5t81.5 61.5t110.5 23q51 0 92 -15.5t71 -43.5t52.5 -67t23.5 -94q0 -38 -26 -64t-64 -26h-208v-6q12 -46 39 -61.5t55 -15.5q17 0 31.5 3t27 7.5l22.5 8t19 3.5q16 0 31 -6.5t27 -17t19 -26t7 -34.5q0 -26 -15.5 -46.5t-42 -34t-63 -20.5
t-79.5 -7q-72 0 -124.5 25t-87 65t-51 91.5t-16.5 104.5zM315 326q0 19 -1.5 33.5t-6 26.5t-13 19.5t-25.5 7.5q-26 -1 -35.5 -26.5t-13.5 -60.5h95z" />
    <glyph glyph-name="f" unicode="f" horiz-adv-x="400" 
d="M93 0q-26 6 -43.5 25t-17.5 50q0 25 15.5 44.5t39.5 27.5v244q-27 5 -45 24.5t-18 48.5q0 28 17.5 50t47.5 26v23q0 66 25.5 106t62 61t78 27.5t73.5 6.5q31 1 53.5 -23t22.5 -59q0 -42 -18.5 -60.5t-41.5 -18.5q-31 0 -42.5 -8.5t-11.5 -26.5v-30h12q4 1 7.5 1h8.5
q30 -2 49 -24t19 -51q0 -31 -22 -52t-52 -21h-22v-244q27 -4 45 -24.5t18 -50.5q0 -26 -16 -46.5t-43 -25.5h-201z" />
    <glyph glyph-name="g" unicode="g" horiz-adv-x="628" 
d="M262 -222q-31 0 -63 4t-57.5 14t-42 29t-16.5 50q0 19 7 34.5t18.5 26t26.5 16.5t30 6q21 0 44 -6.5t52 -6.5q23 0 41 4.5t30.5 17t19 35.5t6.5 61l-1 11q-21 -27 -48 -40.5t-66 -13.5q-59 0 -101 23.5t-70 61.5t-41.5 86t-13.5 98q0 48 13 95t41 84.5t70.5 60
t101.5 22.5q17 0 37 -4t38.5 -12.5t35.5 -22.5t29 -34v4q-1 2 -1 11q0 22 15 33.5t40 11.5h100q14 0 28 -6t25 -15.5t17.5 -24t6.5 -32.5q0 -24 -13 -44t-35 -30q-9 -5 -9 -18v-311q0 -77 -26 -130t-68.5 -86.5t-95 -48t-105.5 -14.5zM291 192q13 0 25 3.5t22.5 14t17 29
t6.5 48.5q0 29 -6.5 47t-17.5 28t-24.5 13.5t-27.5 3.5q-36 0 -52.5 -24.5t-16.5 -57.5q0 -19 4 -37.5t12.5 -33.5t22.5 -24.5t35 -9.5z" />
    <glyph glyph-name="h" unicode="h" horiz-adv-x="664" 
d="M280 149q25 -6 41.5 -26.5t16.5 -47.5t-16.5 -48t-44.5 -27h-188q-26 4 -45.5 23t-19.5 52q0 25 15 44.5t41 27.5v456q-28 4 -45 25.5t-17 48.5q0 31 23 51.5t52 20.5h103q35 0 59.5 -24t24.5 -59v-195q24 42 60.5 61t84.5 19q30 0 61 -9t56.5 -31.5t41.5 -60.5t16 -97
v-205q25 -6 40.5 -26t15.5 -47q0 -32 -22 -53.5t-53 -21.5h-124q-14 0 -25 8t-18 19.5t-11 27t-4 29.5v226q0 30 -8.5 41t-28.5 11q-24 0 -39.5 -12t-24.5 -30t-13.5 -41.5t-4.5 -47.5v-82z" />
    <glyph glyph-name="i" unicode="i" horiz-adv-x="368" 
d="M205 538q36 0 60.5 -24.5t24.5 -60.5v-305q25 -8 39.5 -22.5t17.5 -38.5q5 -31 -12.5 -56t-48.5 -31h-191q-22 5 -37.5 19t-20.5 36q-9 30 6.5 57t45.5 36v243q-23 5 -38.5 21t-20.5 39q-3 15 1 29.5t12.5 26.5t20.5 20t27 11h114zM151 599q-31 0 -53 22t-22 53t22 53
t53 22h43q31 0 53 -22t22 -53t-22 -53t-53 -22h-43z" />
    <glyph glyph-name="j" unicode="j" horiz-adv-x="339" 
d="M285 -9q0 -57 -20 -95t-50.5 -62t-67 -35.5t-69.5 -15.5q-33 -5 -60.5 13t-35.5 51q-8 34 9.5 64t52.5 38q16 6 28 18t12 36v389q-26 5 -43 23.5t-18 45.5q-1 15 4 28.5t14.5 24.5t22.5 17.5t28 7.5h110q35 0 59 -24.5t24 -59.5v-464zM144 600q-31 0 -53 22t-23 53
q0 31 22.5 53t53.5 22h42q15 0 29 -6t24.5 -16t16 -24t5.5 -29q0 -31 -22 -53t-53 -22h-42z" />
    <glyph glyph-name="k" unicode="k" horiz-adv-x="628" 
d="M281 149q23 -11 34 -32t9 -46q-3 -32 -27.5 -53t-57.5 -18h-153q-22 5 -37.5 19t-21.5 36q-4 15 -2 30t9 27t19 21.5t27 13.5v456q-24 4 -39.5 20t-19.5 39q-6 30 11.5 56t47.5 31h117q35 0 59.5 -24.5t24.5 -58.5v-328h59l31 46v7q-22 8 -35.5 26t-14.5 43q0 15 5.5 29
t15.5 25t23 17.5t29 6.5h140q27 -1 46.5 -17t24.5 -43q6 -30 -11 -55t-47 -32l-69 -100v-7q6 -3 14 -10q7 -7 15 -17t13 -21l32 -70q5 -9 12 -13q23 -10 36 -31t11 -46q-1 -17 -8 -31t-18.5 -24.5t-26.5 -16t-31 -4.5h-64q-23 0 -39.5 6t-26.5 28l-72 152q-6 13 -11.5 16.5
t-10.5 3.5h-22v-57z" />
    <glyph glyph-name="l" unicode="l" horiz-adv-x="335" 
d="M53 602q-27 4 -43 22t-18 42q-3 31 16 54.5t49 27.5h112q35 0 59.5 -24.5t24.5 -59.5v-435q0 -27 2.5 -41.5t11.5 -22.5q24 -12 38 -34.5t13 -49.5q-1 -19 -8.5 -35.5t-20.5 -28t-29.5 -18.5t-35.5 -6q-33 3 -63.5 13t-54.5 34.5t-38.5 67t-14.5 110.5v384z" />
    <glyph glyph-name="m" unicode="m" horiz-adv-x="924" 
d="M287 149q24 -6 39 -24t18 -42q3 -31 -17 -55.5t-51 -27.5h-173q-25 1 -44 15.5t-25 39.5q-9 30 6 56.5t46 35.5v218q0 15 -8 22q-25 8 -40 29.5t-14 48.5q2 32 25.5 53.5t56.5 19.5h98q36 0 54.5 -15.5t18.5 -45.5v-24q8 12 18 25t22 24q19 17 47.5 33t62.5 16
t68.5 -20.5t56.5 -72.5q20 38 61.5 65.5t94.5 27.5q29 0 56.5 -9.5t49.5 -32t35.5 -60.5t13.5 -96v-206q21 -5 35.5 -19t18.5 -36q9 -30 -7 -57t-47 -35h-116q-34 0 -58.5 24.5t-24.5 59.5v232q0 21 -6 33t-25 12t-30.5 -11.5t-17.5 -30t-8 -44.5t-2 -55v-71q46 -14 55 -61
q5 -31 -12.5 -56.5t-48.5 -31.5h-110q-35 0 -59.5 24.5t-24.5 59.5v232q0 21 -6.5 33t-25.5 12q-21 0 -32 -13.5t-16.5 -35.5t-6.5 -50t-1 -55v-58z" />
    <glyph glyph-name="n" unicode="n" horiz-adv-x="672" 
d="M288 147q24 -6 39.5 -25.5t17.5 -44.5q0 -31 -20.5 -53t-50.5 -24h-168q-30 0 -52.5 21t-22.5 54q0 26 15.5 46t40.5 27v216q0 20 -10 25q-23 8 -37.5 27t-14.5 45q0 32 22.5 54.5t54.5 22.5h105q36 0 53.5 -16t17.5 -44v-29q6 15 17.5 32.5t31 33t47 26t66.5 10.5
q31 0 61 -9t53.5 -31.5t38 -60.5t14.5 -97v-205q27 -7 42.5 -26.5t15.5 -46.5q0 -31 -22 -53t-53 -22h-99q-35 0 -59.5 24.5t-24.5 59.5v224q0 30 -9.5 42t-29.5 12q-22 0 -37.5 -12t-25 -30t-13.5 -41.5t-4 -47.5v-84z" />
    <glyph glyph-name="o" unicode="o" horiz-adv-x="598" 
d="M13 267q0 64 22.5 116t61.5 89.5t91.5 58t112.5 20.5t113 -20.5t92 -58t61.5 -89.5t22.5 -116t-22.5 -115.5t-61.5 -88t-91.5 -56t-112.5 -19.5t-112.5 19.5t-92 56t-62 88t-22.5 115.5zM215 267q0 -54 26 -81t61 -27t60.5 27t25.5 81q0 53 -25.5 82.5t-60.5 29.5
t-61 -29.5t-26 -82.5z" />
    <glyph glyph-name="p" unicode="p" horiz-adv-x="641" 
d="M280 -63q32 -7 48 -31t11 -55t-30.5 -48.5t-55.5 -12.5h-174q-43 13 -54 55q-4 15 -2 30t9.5 27t19.5 21.5t30 13.5v428q0 19 -11 25q-24 9 -38 29t-13 46q1 16 7.5 30t17 23.5t25 15.5t30.5 5h95q30 0 47 -10t17 -37v-5t1 -7q14 17 36 36q17 14 44.5 25t68.5 11
q48 0 89 -21t70.5 -58t46.5 -88t17 -113q0 -64 -18 -116.5t-49 -89.5t-73 -57t-90 -20q-30 0 -52.5 7t-37.5 14l-32 23v-96zM275 270q0 -22 5 -42t14.5 -35.5t24 -24.5t33.5 -9q33 0 56 27t23 81q0 50 -21.5 80.5t-56.5 30.5q-30 0 -54 -27t-24 -81z" />
    <glyph glyph-name="q" unicode="q" horiz-adv-x="618" 
d="M16 272q0 63 17 114.5t47 88t72 57t91 20.5q36 0 62.5 -9.5t42.5 -19.5l17.5 -15.5t15.5 -14.5q15 24 38.5 37t51.5 11q21 -1 38.5 -9.5t30.5 -23t20 -32.5t6 -39v-498q21 -7 36 -23t18 -37q3 -16 -0.5 -31t-12 -27t-21.5 -20t-28 -11h-190q-43 11 -56 54q-5 15 -2.5 30
t9.5 27.5t19 22.5t27 15v103q-6 -7 -13 -13.5t-17 -13.5q-16 -9 -39 -17.5t-59 -8.5q-48 0 -88.5 20.5t-70 57.5t-46 89.5t-16.5 115.5zM216 270q0 -51 21.5 -81t56.5 -30q31 0 54 26.5t23 81.5q0 22 -4.5 42t-14 35t-24 24t-33.5 9q-34 0 -56.5 -27.5t-22.5 -79.5z" />
    <glyph glyph-name="r" unicode="r" horiz-adv-x="466" 
d="M293 147q26 -3 43.5 -19.5t22.5 -41.5q3 -16 -0.5 -30t-12 -25.5t-20.5 -19.5t-27 -11h-203q-26 2 -44 19.5t-23 42.5q-3 15 1 29t12.5 26t20.5 19.5t29 10.5v217q0 27 -20 27q-23 14 -33 38q-14 31 -2 63t44 46h130q34 0 53.5 -15t19.5 -53v-51q18 61 43 90q25 31 66 33
q18 1 35 -5t29.5 -17.5t20.5 -27.5t9 -34q1 -19 -5 -36t-18 -29.5t-28 -20.5t-34 -9q-52 -6 -80.5 -49.5t-28.5 -111.5v-55z" />
    <glyph glyph-name="s" unicode="s" horiz-adv-x="491" 
d="M244 -12q-30 0 -62.5 5t-63 16t-54.5 27.5t-36 38.5q-7 17 -8 34.5t4.5 33.5t17 29t27.5 22q17 8 34 9t33.5 -4t30.5 -16.5t23 -28.5q4 -7 14.5 -10t28.5 -3q28 0 37 8.5t9 21.5q0 16 -12 23t-36 15l-36 13q-30 10 -58.5 23.5t-51.5 33t-37 46.5t-14 64q0 48 22 79
t55.5 49.5t72.5 26t74 7.5q29 0 61.5 -5.5t60.5 -16.5t49 -29.5t29 -44.5q8 -57 -39 -91q-16 -12 -33.5 -15t-34.5 0t-32.5 12t-27.5 25q-3 5 -9.5 8t-16.5 3q-20 0 -26.5 -7.5t-6.5 -19.5q0 -11 6 -19t16 -13.5t22.5 -9.5t23.5 -7l7 -1q30 -8 60 -19.5t54.5 -30t40.5 -45.5
t16 -65q0 -45 -20.5 -77.5t-54 -53.5t-75 -31t-84.5 -10z" />
    <glyph glyph-name="t" unicode="t" horiz-adv-x="403" 
d="M76 390q-27 4 -45 23t-20 47q-1 15 4.5 28.5t14.5 24.5t22.5 17t30.5 7q-3 50 -1 66q2 19 11 36t23.5 29.5t33 18.5t38.5 4t37 -11t29 -23.5t18 -33t4 -86.5q27 3 39 0q30 -6 48 -31.5t12 -55.5q-3 -15 -11 -27t-19 -20t-25.5 -12t-29.5 -1h-14v-168q0 -19 8 -31t23 -16
q18 -3 33.5 -13t25.5 -24t14 -31.5t2 -35.5q-3 -18 -13 -33t-24 -25.5t-31.5 -15t-43.5 -1.5t-61 15t-64.5 34.5t-49 59t-19.5 91.5v194z" />
    <glyph glyph-name="u" unicode="u" horiz-adv-x="664" 
d="M390 390q-29 6 -47 30t-13 54q2 15 10 27.5t19 21t25.5 12t29.5 3.5h92q35 0 59.5 -24.5t24.5 -60.5v-277q0 -21 23 -28q21 -13 32.5 -35t6.5 -46q-4 -33 -28 -50t-61 -17h-91q-73 0 -73 62v29q-10 -30 -31 -52q-17 -19 -47 -35t-79 -16q-31 0 -61 9.5t-53.5 32t-38 60.5
t-14.5 95v206q-26 5 -43 25t-17 47q0 31 21.5 53t52.5 22h104q34 0 58 -24.5t24 -59.5v-229q0 -31 9 -43t28 -12q20 0 34.5 11.5t24.5 30t14.5 44t4.5 52.5v82z" />
    <glyph glyph-name="v" unicode="v" horiz-adv-x="603" 
d="M57 390q-29 9 -43.5 32.5t-10.5 50.5q4 31 27 48t56 17h111q35 0 59.5 -24t24.5 -60v-35q0 -11 -8.5 -19.5t-21.5 -8.5l37 -148l15 -86h3l16 86l36 148q-14 0 -21.5 8t-7.5 18v40q0 34 23.5 57.5t57.5 23.5h109q33 1 56.5 -12.5t30.5 -42.5q8 -30 -7.5 -57t-45.5 -35
l-43.5 -133.5l-43.5 -130.5q-16 -52 -49 -86.5t-84 -44.5q-34 -5 -65.5 2t-57.5 25t-42 45.5t-25 61.5l-26 76.5l-28 84.5q-16 47 -32 99z" />
    <glyph glyph-name="w" unicode="w" horiz-adv-x="832" 
d="M63 391q-27 8 -42.5 30t-13.5 49q2 31 26 50.5t54 17.5h147q37 -8 54 -44q6 -15 6.5 -30.5t-5 -29.5t-16 -25t-25.5 -18l25 -223h4l48 284q3 35 27 59t59 28q39 3 69 -21.5t35 -64.5l47 -285h5l24 223q-35 16 -44 55q-4 15 -1 30t11 27.5t20.5 21.5t28.5 13h162
q23 -2 40.5 -17t23.5 -39q4 -15 1.5 -29.5t-10 -27t-19.5 -21.5t-27 -13l-55 -277q-9 -46 -40.5 -77t-78.5 -38q-29 -4 -55.5 3.5t-48 24t-36 40.5t-17.5 52l-23 174h-6l-21 -175q-8 -48 -40.5 -79.5t-80.5 -38.5q-29 -4 -55.5 3.5t-48 24t-36 40.5t-18.5 52z" />
    <glyph glyph-name="x" unicode="x" horiz-adv-x="552" 
d="M232 45q-10 -22 -29.5 -33.5t-43.5 -11.5h-54q-27 -1 -49 15.5t-28 43.5q-3 15 0 29.5t11 26.5t19.5 20.5t27.5 11.5l88 120v6l-84 116q-31 7 -49 30.5t-16 53.5q2 15 9 27.5t18.5 21.5t25.5 12.5t29 3.5h82q19 0 31.5 -14.5t21.5 -31.5l46 -94l45 95q10 21 30 33t44 12
h40q28 0 50.5 -13.5t29.5 -39.5q10 -30 -5 -57.5t-44 -36.5l-81 -114v-5l91 -125q20 -11 30.5 -29t9.5 -41q0 -33 -23 -55t-56 -22h-64q-17 0 -29 13t-20 29l-55 103z" />
    <glyph glyph-name="y" unicode="y" horiz-adv-x="603" 
d="M-4 -100q0 42 29 70.5t71 28.5q32 0 56.5 -18t35.5 -47q14 -25 26 -25q8 0 13.5 8t5.5 19q0 12 -6 27l-170 428q-26 8 -40 27.5t-14 44.5q0 32 23 53.5t54 21.5h141q30 -4 50.5 -27t20.5 -57q0 -19 -8 -35.5t-26 -27.5l51 -239h4l54 239q-17 14 -24 30t-7 37
q0 16 6.5 30.5t17 25.5t25 17.5t30.5 6.5h117q30 -1 52.5 -22.5t22.5 -54.5q0 -23 -13 -42.5t-36 -27.5l-143 -425q-19 -55 -46 -92.5t-59.5 -60t-68 -32t-70.5 -9.5q-48 0 -81.5 13t-54.5 32t-30 41.5t-9 41.5z" />
    <glyph glyph-name="z" unicode="z" horiz-adv-x="528" 
d="M33 93q0 32 22 57l222 234v9h-81q-10 -30 -33.5 -45.5t-52.5 -13.5q-36 3 -59 29t-20 62v29q0 35 24.5 59.5t59.5 24.5h292q35 0 59.5 -24.5t24.5 -59.5v-9q0 -33 -22 -58l-219 -234v-8h92q10 30 32.5 45t49.5 14q18 0 33.5 -7t27 -19t18 -28t6.5 -33v-33
q0 -35 -24 -59.5t-59 -24.5h-309q-35 0 -59.5 24.5t-24.5 59.5v9z" />
    <glyph glyph-name="braceleft" unicode="{" horiz-adv-x="378" 
d="M99 156q0 40 -12.5 60t-30.5 34.5t-28 41t-10 54t10.5 53.5t28 41.5t30 36t12.5 61.5v95q0 51 21 82t52 48t66.5 22.5t68.5 -1.5t45 -44q4 -15 2 -30t-9 -28.5t-18.5 -23t-26.5 -14.5q-16 -3 -27 -11t-11 -22v-131q0 -37 -12.5 -62t-27.5 -40q-8 -8 -18 -15.5t-24 -12.5
v-10q26 -6 42 -22q15 -15 27.5 -40t12.5 -65v-138q0 -13 9.5 -21t22.5 -11q40 -9 56 -48q5 -15 4.5 -30.5t-6 -29t-16.5 -25t-33.5 -14t-58 3t-67 22.5t-53 48.5t-21.5 83.5v102z" />
    <glyph glyph-name="bar" unicode="|" horiz-adv-x="298" 
d="M150 -184q-34 0 -57 23t-23 58v869q0 35 23 58.5t57 23.5q35 0 58.5 -23.5t23.5 -58.5v-869q0 -35 -23.5 -58t-58.5 -23z" />
    <glyph glyph-name="braceright" unicode="}" horiz-adv-x="378" 
d="M282.006 156q0 40 12.499 60q12.5 20 30.499 34.5q17.998 14.5 27.998 41q9.99902 26.5 9.99902 54t-10.499 53.5q-10.5 26 -27.998 41.5q-17.499 15.5 -29.999 36q-12.499 20.5 -12.499 61.5v95q0 51 -20.998 82q-20.999 31 -51.9971 48t-66.4961 22.5t-68.4961 -1.5
t-44.9971 -44q-4 -15 -2 -30t9 -28.5q6.99902 -13.5 18.498 -23q11.5 -9.5 26.499 -14.5q15.999 -3 26.998 -11t10.999 -22v-131q0 -37 12.5 -62q12.499 -25 27.498 -40q7.99902 -8 17.999 -15.5q9.99902 -7.5 23.998 -12.5v-10q-25.998 -6 -41.9971 -22
q-14.999 -15 -27.498 -40q-12.5 -25 -12.5 -65v-138q0 -13 -9.49902 -21t-22.499 -11q-39.9971 -9 -55.9961 -48q-5 -15 -4.5 -30.5t6 -29q5.49902 -13.5 16.499 -25q10.999 -11.5 33.498 -14q22.498 -2.5 57.9961 3t66.9961 22.5t52.9971 48.5q21.498 31.5 21.498 83.5v102
z" />
    <glyph glyph-name="asciitilde" unicode="~" horiz-adv-x="601" 
d="M461 370q13 17 33.5 22.5t40.5 -5.5q22 -10 30.5 -34t-2.5 -47q-38 -59 -56.5 -74.5t-45 -25t-63.5 -9.5q-26 0 -54.5 9t-56.5 20l-53 20t-43 9q-16 0 -27 -7t-21.5 -21.5t-32.5 -20t-42 4.5q-24 12 -32.5 36t2.5 47q9 21 21.5 41t32 36.5t46 27t62.5 10.5
q30 0 110.5 -29t102.5 -29q16 0 27 6t21 13z" />
    <glyph glyph-name="exclamdown" unicode="&#xa1;" horiz-adv-x="317" 
d="M72 263.02l-24 -362.978q0 -22.999 9 -42.9971q9 -19.999 23.5 -34.998t35 -23.499q20.5 -8.49902 42.5 -8.49902q23 0 43 8.49902q20 8.5 35 23.499t23.5 34.998q8.5 19.998 8.5 42.9971l-22 361.978q0 17.999 -7.5 33.998t-19.5 26.999q-12 10.999 -28 17.499
q-16 6.49902 -34 6.49902q-35 -1 -59 -24.498q-24 -23.499 -26 -59.4971zM274 527.004q0 23.998 -9.5 45.4971t-25 37.498t-37 24.998q-21.5 9 -45.5 9t-45 -9q-21 -8.99902 -37 -24.998t-25.5 -37.498t-9.5 -45.4971q0 -23.999 9.5 -45.4971q9.5 -21.499 25.5 -36.998
t37 -24.998q21 -9.5 45 -9.5t45.5 9.5q21.5 9.49902 37 24.998t25 36.998q9.5 21.498 9.5 45.4971z" />
    <glyph glyph-name="cent" unicode="&#xa2;" horiz-adv-x="567" 
d="M230 81q-39 12 -76 39t-65.5 65t-45.5 86t-17 103t17 103t45.5 86t65.5 64.5t76 38.5v51q0 26 18 43.5t43 17.5q27 0 44.5 -17.5t17.5 -43.5v-51q34 -10 65 -27t56 -41q5 -6 8 -10q13 -15 19.5 -33t5.5 -36.5t-9.5 -36.5t-23.5 -31t-33.5 -19t-37 -4.5t-35.5 9.5t-31 23
q-8 8 -19 13.5t-24 5.5q-27 0 -47.5 -26.5t-20.5 -80.5q0 -55 20 -79.5t46 -24.5q23 0 40 15q13 15 30.5 24t36 10.5t37 -4.5t34.5 -19q15 -13 24 -30.5t10.5 -36t-4.5 -37.5t-19 -34q-24 -27 -56 -48.5t-72 -26.5v-54q0 -25 -17.5 -43t-44.5 -18q-25 0 -43 18t-18 43v54z
" />
    <glyph glyph-name="sterling" unicode="&#xa3;" horiz-adv-x="608" 
d="M540 174q18 0 33.5 -8t26.5 -20.5t16.5 -29t4.5 -34.5t-9 -33.5t-20.5 -26.5t-29 -16.5t-34.5 -4.5h-434q-3 0 -5 0.5t-4 0.5q-18 3 -32.5 12t-24.5 22.5t-14.5 30.5t-1.5 35q3 17 12.5 32t22.5 24.5t30 14t35 1.5h5q4 20 5.5 35.5t0.5 30.5t-3.5 30.5t-7.5 34.5h-43
q-15 1 -28.5 8.5t-22.5 17.5t-14 23.5t-4 29.5q3 30 25.5 49.5t53.5 16.5l-6 33.5t-3 37.5q0 54 21.5 98t59.5 74t90.5 46.5t116.5 16.5q53 0 90.5 -9.5t64.5 -20.5q2 -2 2.5 -2t1.5 -1q32 -15 43.5 -47t-3.5 -64q-7 -16 -19.5 -27t-28 -16t-32 -5t-31.5 8q-22 8 -42.5 12.5
t-43.5 4.5q-42 0 -64 -21.5t-22 -57.5q0 -14 1 -27t7 -31h115q31 -2 50.5 -25t17.5 -54q-2 -30 -25.5 -49.5t-53.5 -18.5h-73q6 -12 8.5 -29t3.5 -35t0 -35.5t-3 -31.5h218z" />
    <glyph glyph-name="yen" unicode="&#xa5;" horiz-adv-x="673" 
d="M572 323q25 -2 39.5 -17.5t12.5 -37.5t-18 -36t-37 -12h-130v-132q-1 -19 -9.5 -36.5t-22 -30.5t-32 -20t-38.5 -6q-19 1 -36.5 9.5t-30 22t-19 32t-6.5 38.5v123h-148q-22 2 -35.5 18t-11.5 37q2 22 18 35.5t37 12.5h136l-29 57h-115q-22 2 -35.5 18t-11.5 37
q2 22 18 36t37 12h47l-51 104h-4q-33 0 -55.5 23t-22.5 56q0 16 6 30.5t16.5 25t25 16.5t30.5 6h100q28 0 49.5 -15.5t29.5 -41.5l55 -164l15 -87l15 87l57 165q9 26 30.5 41t48.5 15h81q16 0 30 -6t25 -16.5t17 -25t6 -30.5q0 -33 -22.5 -56t-55.5 -23l-52 -104h50
q22 -2 36 -17.5t13 -36.5q-1 -11 -5.5 -20.5t-12 -16t-17 -9.5t-20.5 -3h-100l-26 -57h128z" />
    <glyph glyph-name="section" unicode="&#xa7;" horiz-adv-x="547" 
d="M337 361q0 17 -18.5 27.5t-41.5 21.5l-13 6q-28 -14 -38.5 -23t-10.5 -26q0 -20 22.5 -32.5t53.5 -24.5l8 5q19 10 28.5 18.5t9.5 27.5zM509 381q0 -43 -20.5 -79t-58.5 -62q28 -22 42.5 -49t14.5 -71q0 -36 -17 -69t-44.5 -57.5t-64.5 -38.5t-76 -14q-51 0 -96.5 11.5
t-76 26t-40 27t-13.5 27t-2.5 30t9.5 29.5t20.5 23.5t27 13.5t30 2.5t29.5 -10.5q27 -11 54 -20.5t43 -9.5q15 0 24 4.5t9 15.5q0 12 -11.5 19.5t-26.5 15.5l-9 4q-21 11 -49 22q-21 9 -44 20t-42 24q-35 24 -58 57t-23 74q0 44 22.5 81.5t69.5 64.5l-4 2q-11 9 -20.5 18
t-17.5 20t-13 26t-5 36q0 39 18 70.5t47.5 54.5t69 35.5t83.5 12.5q64 0 117 -26.5t59 -55.5t-10 -53q-16 -26 -45 -32t-55 10q-17 8 -32.5 13t-24.5 5q-14 0 -23.5 -3t-13.5 -10q-4 -8 -1 -16t11 -13q33 -15 55.5 -26.5l38 -19.5l25.5 -13.5l20 -10.5q42 -24 70 -55t28 -81
z" />
    <glyph glyph-name="dieresis" unicode="&#xa8;" horiz-adv-x="449" 
d="M31 872q0 31 21 52.5t51 21.5q31 0 52.5 -21.5t21.5 -52.5q0 -30 -21.5 -51t-52.5 -21q-30 0 -51 21t-21 51zM276 872q0 31 21 52.5t52 21.5q30 0 51.5 -21.5t21.5 -52.5q0 -30 -21.5 -51t-51.5 -21q-31 0 -52 21t-21 51z" />
    <glyph glyph-name="copyright" unicode="&#xa9;" horiz-adv-x="740" 
d="M0 370q0 76 29 144t79 117.5t117.5 79t143.5 29.5q77 0 144.5 -29.5t117.5 -79t79.5 -117.5t29.5 -144t-29.5 -143.5t-79.5 -118t-117.5 -79.5t-144.5 -29q-76 0 -143.5 29t-117.5 79.5t-79 118t-29 143.5zM117 370q0 -52 19.5 -98t54 -80.5t80.5 -54.5t98 -20
q53 0 99 20t80.5 54.5t54.5 80.5t20 98q0 53 -20 99t-54.5 80.5t-80.5 54t-99 19.5q-52 0 -98 -19.5t-80.5 -54t-54 -80.5t-19.5 -99zM197 369q0 35 12.5 67t34.5 55.5t53.5 37.5t69.5 14q26 0 51.5 -4.5t45.5 -15t32.5 -27.5t12.5 -44q0 -11 -4 -21t-12 -18t-18.5 -12.5
t-21.5 -4.5q-16 0 -29.5 8t-20.5 23q-8 10 -30 10q-16 0 -25.5 -5t-16 -14t-8.5 -20.5t-2 -23.5q0 -20 4.5 -34t13.5 -22.5t20 -12.5t25 -4q12 0 22.5 3t29.5 9q8 3 16 3q10 0 19 -4.5t16.5 -11t12 -16t4.5 -20.5q0 -22 -14.5 -35t-35 -20.5t-42 -9.5t-36.5 -2q-35 0 -67 11
t-57 33.5t-40 54.5t-15 73z" />
    <glyph glyph-name="ordfeminine" unicode="&#xaa;" horiz-adv-x="392" 
d="M44 323q0 17 12.5 29.5t29.5 12.5h255q18 0 30 -12.5t12 -29.5q0 -18 -12 -29.5t-30 -11.5h-255q-17 0 -29.5 11.5t-12.5 29.5zM44 502q0 36 18 57.5t44 33t53 15t44 3.5h18v19q0 13 -10.5 18.5t-22.5 5.5q-9 0 -17 -2t-15.5 -5t-16 -5t-17.5 -2q-19 0 -34 14.5t-15 35.5
q0 17 10 29t28 20t42 12t50 4q69 0 106.5 -36t37.5 -105v-94q0 -12 4 -16q13 -6 21.5 -17.5t8.5 -25.5q0 -22 -14 -36.5t-35 -14.5h-56q-11 0 -19.5 4t-13.5 9.5t-7.5 12.5t-1.5 13l1 9h-3q-3 -8 -9 -16.5t-17 -17t-26 -14.5t-35 -6q-21 0 -39 7t-32 20t-22 31t-8 40z
M165 515q0 -12 6 -19.5t15 -7.5q12 0 24.5 13.5t12.5 38.5v16h-7q-14 0 -24 -4t-16 -9.5t-8.5 -12.5t-2.5 -15z" />
    <glyph glyph-name="guillemotleft" unicode="&#xab;" horiz-adv-x="652" 
d="M292 172q12 -24 6.5 -50t-26.5 -44q-26 -21 -58 -17.5t-53 27.5l-107 155q-21 29 -21 47.5t13 37.5l108 150q10 14 23.5 22t28.5 10t30 -1t28 -13q13 -9 21.5 -22.5t11 -28.5t-1 -30.5t-12.5 -29.5l-62 -100zM570 172q11 -24 6 -50t-27 -44q-25 -21 -57 -17.5t-54 27.5
l-107 155q-21 29 -21 47.5t13 37.5l108 150q10 14 23.5 22t28.5 10t30 -1t28 -13q14 -9 22.5 -22.5t10.5 -28.5t-1 -30.5t-13 -29.5l-62 -100z" />
    <glyph glyph-name="logicalnot" unicode="&#xac;" horiz-adv-x="580" 
d="M98 352q-32 0 -54 22.5t-22 54.5t22 54t54 22h336q17 0 32.5 -6.5t27 -18t18 -26.5t6.5 -33v-214q0 -32 -22.5 -54.5t-54.5 -22.5t-54.5 22.5t-22.5 54.5v145h-266v0z" />
    <glyph glyph-name="registered" unicode="&#xae;" horiz-adv-x="740" 
d="M0 370q0 76 29 144t79 117.5t117.5 79t143.5 29.5q77 0 144.5 -29.5t117.5 -79t79.5 -117.5t29.5 -144t-29.5 -143.5t-79.5 -118t-117.5 -79.5t-144.5 -29q-76 0 -143.5 29t-117.5 79.5t-79 118t-29 143.5zM117 370q0 -52 19.5 -98t54 -80.5t80.5 -54.5t98 -20
q53 0 99 20t80.5 54.5t54.5 80.5t20 98q0 53 -20 99t-54.5 80.5t-80.5 54t-99 19.5q-52 0 -98 -19.5t-80.5 -54t-54 -80.5t-19.5 -99zM377 390q15 0 24.5 10t9.5 31q0 17 -8.5 27t-32.5 10h-17v-78h24zM505 440q0 -30 -12.5 -54.5t-33.5 -41.5v-3q7 -3 13 -9t10 -14l15 -35
q3 -7 9 -11q12 -5 17.5 -15t5.5 -22q0 -15 -11 -25.5t-26 -10.5h-28q-20 0 -29.5 6t-15.5 19l-36 80q-4 8 -8 11t-15 3h-7v-48q13 -3 21.5 -12.5t8.5 -23.5q0 -12 -8.5 -22t-21.5 -13h-95q-14 1 -24 10.5t-10 24.5q0 14 10 24t24 11v205q-14 1 -24 11t-10 25q0 14 10 24
t24 11h113q19 0 35.5 -0.5t30.5 -5.5q31 -10 49.5 -36t18.5 -63z" />
    <glyph glyph-name="macron" unicode="&#xaf;" horiz-adv-x="449" 
d="M86 883q0 26 19 45t45 19h153q26 0 45.5 -19t19.5 -45q0 -27 -19.5 -45.5t-45.5 -18.5h-153q-26 0 -45 18.5t-19 45.5z" />
    <glyph glyph-name="degree" unicode="&#xb0;" horiz-adv-x="405" 
d="M161 573q0 -17 12.5 -30t30.5 -13t30.5 13t12.5 30q0 18 -12.5 31t-30.5 13t-30.5 -13t-12.5 -31zM20 573q0 39 14.5 73t39.5 58.5t58 39.5t72 15t72.5 -15t58.5 -39.5t39.5 -58.5t14.5 -73q0 -38 -14.5 -71.5t-39.5 -58.5t-58.5 -39.5t-72.5 -14.5t-72 14.5t-58 39.5
t-39.5 58.5t-14.5 71.5z" />
    <glyph glyph-name="plusminus" unicode="&#xb1;" horiz-adv-x="600" 
d="M501 387q18 0 34 -6.5t28.5 -18t19 -27.5t6.5 -34t-6.5 -34t-19 -28t-28.5 -19t-34 -7h-100v-105q0 -21 -8 -38.5t-21.5 -31.5t-31.5 -21.5t-39 -7.5t-38.5 7.5t-31.5 21.5t-21.5 31.5t-7.5 38.5v104h-101q-18 0 -34 7t-27.5 19t-18.5 28t-7 34t7 34t18.5 28t27.5 18.5
t34 6.5h101v104q0 20 7.5 38t21.5 31t31.5 21t38.5 8t39 -8t31 -21t21 -31t8 -38v-104h101zM28 -76q0 32 22 54t54 22h398q32 0 54 -22t22 -54t-22 -54t-54 -22h-398q-32 0 -54 22t-22 54z" />
    <glyph glyph-name="acute" unicode="&#xb4;" horiz-adv-x="448" 
d="M133 802q-16 0 -23 13t1 26l67 106q10 16 28 16h111q8 0 14 -4.5t9 -11t2.5 -14t-5.5 -14.5l-94 -106q-11 -11 -26 -11h-84z" />
    <glyph glyph-name="mu" unicode="&#xb5;" horiz-adv-x="611" 
d="M52 452q0 42 28.5 71t70.5 29q21 0 39 -8t31.5 -21.5t21.5 -31.5t8 -39v-227q0 -17 3.5 -26.5t9 -14t11.5 -5.5t12 -1q21 0 36 9.5t25 27t14.5 41t4.5 50.5v146q0 42 28.5 71t70.5 29q21 0 39 -8t31.5 -21.5t21.5 -31.5t8 -39v-413q0 -20 -7.5 -37.5t-20.5 -30.5
t-30.5 -20.5t-37.5 -7.5t-37.5 7.5t-30.5 20.5t-20.5 30.5t-7.5 37.5l-1 27q-11 -20 -32 -39q-16 -16 -42 -27.5t-68 -11.5h-20q3 -33 4 -42q2 -17 3 -34.5t1 -35.5v-28q0 -35 -24.5 -59.5t-59.5 -24.5q-34 0 -58.5 24.5t-24.5 59.5v604z" />
    <glyph glyph-name="paragraph" unicode="&#xb6;" horiz-adv-x="738" 
d="M288 607q-52 0 -72 -25.5t-20 -90.5q0 -45 6.5 -72.5t15.5 -42.5t21 -20t23 -5q10 0 26 4v252zM678 745q28 0 48 -19.5t20 -48.5q0 -28 -20 -48.5t-49 -20.5v-550q-3 -15 -10.5 -27.5t-19.5 -21t-26 -12.5t-29 -1q-15 2 -27.5 10t-21 19.5t-11 26t-2.5 29.5v527h-93v-545
q-4 -31 -28 -51t-55 -16q-16 2 -28.5 9.5t-22 19t-12.5 25.5t-3 30v147q-11 -3 -35 -4q-110 0 -171.5 65.5t-61.5 186.5q0 91 27.5 152t92.5 91q18 9 34 14t35 8.5t43.5 4t58.5 0.5h367z" />
    <glyph glyph-name="periodcentered" unicode="&#xb7;" horiz-adv-x="287" 
d="M47 308q0 41 28.5 69.5t69.5 28.5q20 0 37.5 -7.5t31 -21t21.5 -31.5t8 -38t-8 -37.5t-21.5 -31t-31 -21t-37.5 -7.5t-38 7.5t-31.5 21t-21 31t-7.5 37.5z" />
    <glyph glyph-name="cedilla" unicode="&#xb8;" horiz-adv-x="448" 
d="M160 -113l-8 1q-7 3 -9.5 9t-0.5 14l37 112l79 -21l-22 -61q41 -2 70.5 -24t29.5 -66q0 -28 -13.5 -47.5t-34 -32.5t-46.5 -19t-51 -6q-21 0 -41 3q-16 2 -25.5 14.5t-7.5 28.5q1 16 14 26t29 8h7q6 0 14 1.5t15 4.5t11.5 9t4.5 15q0 11 -4.5 17t-12.5 9t-17.5 4t-17.5 1
z" />
    <glyph glyph-name="ordmasculine" unicode="&#xba;" horiz-adv-x="429" 
d="M215 405q-36 0 -68.5 12.5t-57 35t-38.5 55t-14 72.5q0 39 14 71.5t38.5 55.5t57 35.5t67.5 12.5q38 0 71 -12.5t57.5 -35.5t38.5 -55.5t14 -71.5q0 -40 -14 -72.5t-38.5 -55t-57.5 -35t-70 -12.5zM148 581q0 -27 19.5 -47t46.5 -20q28 0 47 20t19 47t-19 46.5t-47 19.5
q-27 0 -46.5 -19.5t-19.5 -46.5zM44 323q0 17 12.5 29.5t29.5 12.5h255q18 0 30 -12.5t12 -29.5q0 -18 -12 -29.5t-30 -11.5h-255q-17 0 -29.5 11.5t-12.5 29.5z" />
    <glyph glyph-name="guillemotright" unicode="&#xbb;" horiz-adv-x="652" 
d="M363.018 172q-11.999 -24 -6.49902 -50q5.49902 -26 26.498 -44q25.998 -21 57.9961 -17.5t52.9971 27.5l106.993 155q20.999 29 20.999 47.5t-12.999 37.5l-107.993 150q-10 14 -23.499 22t-28.498 10t-29.998 -1t-27.999 -13q-12.999 -9 -21.498 -22.5
q-8.5 -13.5 -10.999 -28.5q-2.5 -15 0.999023 -30.5q3.5 -15.5 12.5 -29.5l61.9961 -100zM85.0352 172q-11 -24 -6 -50t26.998 -44q24.999 -21 56.9971 -17.5t53.9961 27.5l106.994 155q20.998 29 20.998 47.5t-12.999 37.5l-107.993 150q-9.99902 14 -23.499 22
q-13.499 8 -28.498 10t-29.998 -1t-27.998 -13q-13.999 -9 -22.499 -22.5q-8.49902 -13.5 -10.499 -28.5t1 -30.5t12.999 -29.5l61.9961 -100z" />
    <glyph glyph-name="fraction" unicode="&#x2044;" horiz-adv-x="183" 
d="M-90 0q-13 0 -21 11.5t-3 24.5l291 683q12 25 38 25h64q14 0 21.5 -11t3.5 -24l-292 -684q-10 -25 -38 -25h-64z" />
    <glyph glyph-name="questiondown" unicode="&#xbf;" horiz-adv-x="502" 
d="M172.021 431.007q0 25.998 9.49902 47.4971t25.998 37.998t37.998 25.998q21.499 9.5 45.4971 9.5q25.998 0 47.9971 -9.5q21.999 -9.49902 38.498 -25.998t25.998 -37.998t9.49902 -47.4971q0 -23.998 -9.49902 -45.4971t-25.998 -37.498t-38.498 -25.498
q-21.999 -9.5 -47.9971 -9.5q-23.998 0 -45.4971 9.5q-21.499 9.49902 -37.998 25.498t-25.998 37.498t-9.49902 45.4971zM33.0293 -8.96582q0 65.9951 41.998 115.492q41.9971 49.4971 129.991 79.4951q6 34.998 30.499 57.9971q24.498 22.998 58.4961 22.998
q22.998 0 40.4971 -7.99902q17.499 -8 28.999 -21.999q11.499 -13.999 17.998 -32.498q6.5 -18.499 6.5 -38.4971v-64.9961q0 -15.999 -24.998 -23.999q-35.998 -10.999 -62.4971 -17.999q-26.498 -6.99902 -42.9971 -15.499q-16.499 -8.49902 -24.998 -20.498
q-8.5 -12 -8.5 -33.998q0 -18.999 12.499 -31.498q12.5 -12.5 56.4971 -12.5q15.999 0 57.4961 12q41.498 11.999 53.4971 11.999q14.999 0 28.998 -6q13.999 -5.99902 25.499 -16.499q11.499 -10.499 17.998 -25.498q6.5 -14.999 6.5 -32.998q0 -25.998 -14.499 -43.4971
t-41.4971 -30.998q-26.999 -13.5 -75.4961 -22.999t-79.4951 -9.49902q-52.9961 0 -96.4941 14.999q-43.4971 14.999 -75.4951 42.4971t-49.4971 65.9961t-17.499 86.4951z" />
    <glyph glyph-name="circumflex" unicode="&#x2c6;" horiz-adv-x="451" 
d="M349 910q22 -20 24 -45.5t-14 -44.5q-17 -20 -42 -22t-45 14l-45 32l-55 -37q-22 -14 -46 -8t-37 27q-13 22 -7.5 44.5t27.5 39.5l79 64q19 17 40 17t42 -17z" />
    <glyph glyph-name="tilde" unicode="&#x2dc;" horiz-adv-x="449" 
d="M179 857q-10 0 -17 -3.5t-13 -21.5q-11 -25 -34.5 -35.5t-47.5 -1.5q-25 11 -35.5 34.5t-1.5 47.5q26 87 117 87q34 0 53.5 -11.5t32.5 -24.5q10 -10 19.5 -16.5t21.5 -6.5q23 0 27 15q7 26 29 39t48 6q25 -7 39 -29.5t6 -48.5q-13 -45 -42 -67.5t-74 -22.5
q-36 0 -55.5 12.5t-40.5 30t-32 17.5z" />
    <glyph glyph-name="ring" unicode="&#x2da;" horiz-adv-x="449" 
d="M190 885q0 -20 10.5 -33.5t26.5 -13.5t26.5 13.5t10.5 33.5q0 19 -10.5 33t-26.5 14t-26.5 -14t-10.5 -33zM106 885q0 20 9.5 38t26 31.5t38 21t47.5 7.5q25 0 47 -7.5t38.5 -21t26 -31.5t9.5 -38q0 -19 -9.5 -37t-26 -31.5t-38.5 -21t-47 -7.5q-26 0 -47.5 7.5t-38 21
t-26 31.5t-9.5 37z" />
    <glyph glyph-name="AE" unicode="&#xc6;" horiz-adv-x="960" 
d="M454 450v129h-54l-41 -129h95zM53 0q-31 0 -53.5 22t-22.5 53q0 32 22.5 54t53.5 22l165 435v6h-23q-32 0 -54.5 22t-22.5 54t22.5 54t54.5 22h639q35 0 59 -24t24 -59v-89q0 -33 -23.5 -56.5t-55.5 -23.5q-16 0 -31 6t-25.5 16.5t-16.5 25.5t-6 32v7h-98v-120h93
q35 0 59.5 -24.5t24.5 -59.5t-24.5 -59.5t-59.5 -24.5h-93v-125h107v8q0 33 23.5 56.5t56.5 23.5t56.5 -23.5t23.5 -56.5v-90q0 -35 -24.5 -59.5t-59.5 -24.5h-416q-32 0 -54 22t-22 53q0 32 22 54t54 22h26v144h-153l-45 -144q32 0 54 -22t22 -54q0 -31 -22 -53t-54 -22
h-203z" />
    <glyph glyph-name="Oslash" unicode="&#xd8;" horiz-adv-x="769" 
d="M628 675q58 -60 90.5 -134.5t32.5 -163.5q0 -82 -27 -153.5t-75 -123.5t-115 -82t-147 -30q-52 0 -97.5 12t-84.5 35l-43 -66q-11 -13 -27.5 -15t-29.5 8q-13 11 -15 27t9 29l44 64q-59 57 -89.5 132.5t-30.5 162.5q0 80 26.5 149t75 120.5t115.5 81.5t147 30
q50 0 93 -11.5t79 -30.5l36 55q10 13 26 16t29 -8q14 -10 16.5 -26t-7.5 -30zM539 377q0 33 -8.5 63t-21.5 54l-192 -298q35 -23 70 -23q31 0 59 15.5t48 43t32.5 65t12.5 80.5zM236 377q0 -33 6 -60.5t18 -52.5l188 291q-30 17 -61 17t-58.5 -15t-48 -41t-32.5 -61.5
t-12 -77.5z" />
    <glyph glyph-name="germandbls" unicode="&#xdf;" horiz-adv-x="642" 
d="M80 0q-30 0 -51.5 21.5t-21.5 51.5t21.5 52t51.5 22v404q0 52 22.5 91.5t58.5 66t82 39.5t91 13q48 0 93 -14.5t79 -41t55 -65t21 -85.5q0 -38 -12 -62t-24 -42q-8 -13 -14 -25t-6 -28q0 -18 12 -34t24 -29l24.5 -26t23.5 -32.5t17 -42t7 -52.5q0 -48 -15.5 -83.5
t-43.5 -59t-66 -35.5t-82 -12h-12q-16 0 -31.5 5.5t-28 16t-20 25.5t-9.5 31q-2 18 3 34.5t15.5 29.5t25.5 21.5t33 9.5q12 1 22 7t10 21q0 16 -10 27.5t-26 24.5l-25 25.5t-24.5 30.5t-18.5 37t-7 45q0 33 11.5 56t22.5 42q10 15 17 29.5t7 33.5q0 46 -51 46
q-19 0 -35 -10.5t-16 -45.5v-461q0 -30 -21.5 -51.5t-51.5 -21.5h-127z" />
    <glyph glyph-name="ae" unicode="&#xe6;" horiz-adv-x="795" 
d="M12 151q0 40 15.5 68.5t41 47.5t57 30t63 17t59.5 7t48 1v23q0 16 -3.5 25t-9.5 13.5t-29 5.5t-45 -4t-41 -13q-16 -5 -31.5 -4t-28.5 8.5t-23.5 18.5t-14.5 27q-11 31 3.5 59t45.5 40q30 12 68.5 21t85.5 9q42 0 77 -13t62 -31q24 17 57 30.5t74 13.5q49 0 90.5 -16.5
t72.5 -46t50.5 -70t26.5 -87.5q1 -4 1 -10q0 -36 -24.5 -60.5t-60.5 -24.5h-216v-6q6 -23 16.5 -38t23.5 -24t28 -12.5t29 -3.5q17 0 32.5 4t30.5 10q2 1 3.5 1.5t3.5 1.5q31 11 61.5 -2.5t41.5 -44.5q6 -16 5.5 -31.5t-7 -29.5t-18 -25.5t-26.5 -16.5q-27 -12 -63.5 -21.5
t-83.5 -9.5q-69 0 -113.5 20.5t-78.5 54.5q-9 -9 -20.5 -18t-25.5 -19q-21 -14 -54 -26t-75 -12q-40 0 -73.5 12t-57 33.5t-37 52t-13.5 65.5zM207 168q0 -20 10 -31.5t24 -11.5q19 0 39 21t20 61v26h-11q-23 0 -38.5 -6t-25.5 -15t-14 -20.5t-4 -23.5zM583 326v5
q0 14 -1.5 28.5t-6 26.5t-13 19.5t-22.5 7.5q-15 0 -24 -8.5t-14 -20.5t-7 -25t-4 -33h92z" />
    <glyph glyph-name="dotlessi" unicode="&#x131;" horiz-adv-x="370" 
d="M208 538q35 0 59.5 -24.5t24.5 -60.5v-305q26 -8 40.5 -22.5t17.5 -38.5q5 -31 -12.5 -56t-48.5 -31h-191q-22 5 -37.5 19t-21.5 36q-8 30 7.5 57t45.5 36v243q-23 5 -38.5 21t-20.5 39q-3 15 1 29.5t12.5 26.5t20.5 20t27 11h114z" />
    <glyph glyph-name="oslash" unicode="&#xf8;" horiz-adv-x="599" 
d="M14 267q0 64 22.5 116t61.5 89.5t92 58t112 20.5q38 0 71 -8t63 -22l42 62q7 10 19 12t23 -6q10 -7 12.5 -19.5t-5.5 -22.5l-35 -54q47 -46 73 -101t26 -125q0 -64 -22.5 -115.5t-61.5 -88t-91.5 -56t-112.5 -19.5q-35 0 -67 6.5t-60 17.5l-43 -65q-7 -10 -20 -11.5
t-24 6.5q-10 7 -11.5 20.5t6.5 23.5l34 53q-48 44 -76 100.5t-28 127.5zM216 267q0 -37 13 -60l104 158v6q-14 8 -30 8q-35 0 -61 -29t-26 -83zM389 267q0 30 -9 54l-50 -74.5l-50 -76.5v-8q10 -3 23 -3q34 0 60 27t26 81z" />
    <glyph glyph-name="breve" unicode="&#x2d8;" horiz-adv-x="448" 
d="M226 795q-54 0 -97.5 21.5t-67.5 62.5q-2 4 -3 6.5t-2 5.5q-7 25 5.5 48t37.5 30q24 8 47 -5t31 -37q7 -19 20.5 -28t28.5 -9q14 0 28 9t21 28q8 24 30.5 37t47.5 5q25 -7 37.5 -30t5.5 -48q-1 -3 -2 -5.5t-3 -6.5q-23 -41 -67.5 -62.5t-97.5 -21.5z" />
    <glyph glyph-name="dotaccent" unicode="&#x2d9;" horiz-adv-x="449" 
d="M143 887q0 35 24 59.5t59 24.5t59 -24.5t24 -59.5t-24 -58.5t-59 -23.5t-59 23.5t-24 58.5z" />
    <glyph glyph-name="caron" unicode="&#x2c7;" horiz-adv-x="451" 
d="M271 968q21 16 45 14.5t41 -19.5q17 -19 15.5 -45t-20.5 -43l-70 -57q-33 -27 -52 -27t-41 16l-93 77q-15 16 -15 37.5t13 39.5q16 19 39 22.5t47 -12.5l47 -31z" />
    <glyph glyph-name="hungarumlaut" unicode="&#x2dd;" horiz-adv-x="449" 
d="M250 801q-14 0 -22 11.5t-1 25.5l52 109q8 15 24 15h111q15 0 22.5 -14.5t-2.5 -27.5l-78 -109q-7 -10 -20 -10h-86zM26 801q-13 0 -21 11.5t-2 25.5l50 109q5 15 23 15h95q15 0 22.5 -12t1.5 -25l-52 -109q-3 -8 -9 -11.5t-14 -3.5h-94z" />
    <glyph glyph-name="OE" unicode="&#x152;" horiz-adv-x="971" 
d="M228 374q0 -43 13.5 -81.5t36.5 -67.5t53 -45t64 -16q17 0 29.5 0.5t21.5 2.5l18 3v405l-18 4q-18 3 -51 3q-34 0 -64 -16.5t-53 -44.5t-36.5 -66t-13.5 -81zM21 374q0 80 30 149t81 120.5t119 80.5t144 29q31 0 49 -1.5t33 -3.5q11 -2 21.5 -3t26.5 -1h321
q35 0 59.5 -24t24.5 -59v-89q0 -33 -23.5 -56.5t-56.5 -23.5t-56.5 23.5t-23.5 56.5v7h-99v-123h73q33 0 57.5 -24t24.5 -59q0 -34 -24.5 -58t-57.5 -24h-73v-125h108v8q0 33 23.5 56.5t56.5 23.5t56.5 -23.5t23.5 -56.5v-90q0 -35 -24.5 -59.5t-59.5 -24.5h-330
q-16 0 -26.5 -0.5t-21.5 -2.5q-15 -2 -33 -3.5t-49 -1.5q-76 0 -144 30t-119 81.5t-81 121t-30 149.5z" />
    <glyph glyph-name="oe" unicode="&#x153;" horiz-adv-x="899" 
d="M213 268q0 -53 26.5 -81t61.5 -28t60 28.5t25 79.5q0 53 -24.5 82.5t-60.5 29.5q-35 0 -61.5 -29t-26.5 -82zM665 -12q-39 0 -67 6t-49.5 16t-38 22t-31.5 25q-16 -13 -33.5 -25.5t-39.5 -22.5t-49 -15.5t-62 -5.5q-59 0 -110.5 20t-90 57t-60 88.5t-21.5 114.5t21.5 115
t59.5 89.5t88.5 58t109.5 20.5q35 0 62 -5.5t48 -14t39 -20.5l36 -24q14 12 29.5 24t35 20.5t46 14t62.5 5.5q92 0 149.5 -47t79.5 -126q4 -12 4 -28q0 -23 -8.5 -42.5t-23.5 -34.5t-35 -23.5t-42 -8.5h-185q6 -29 16.5 -44t23 -24t26 -12t27.5 -3q16 0 32 3.5t38 11.5
q17 6 33.5 5t31 -8t26 -19.5t16.5 -29.5q6 -16 5 -32.5t-8 -31t-19.5 -25.5t-34.5 -20t-57 -16.5t-80 -7.5zM685 326v5q0 14 -1.5 28.5t-6 26.5t-13 19.5t-22.5 7.5q-15 0 -24 -8.5t-13.5 -20.5t-7 -25t-3.5 -22l-1 -11h92z" />
    <glyph glyph-name="florin" unicode="&#x192;" horiz-adv-x="524" 
d="M86 -139q-35 -2 -61.5 19t-32.5 55q-2 18 2 35.5t14 31.5t25 23.5t33 12.5q30 0 50 12.5t24 50.5l16 208h-10q-33 0 -56.5 23.5t-23.5 56.5t23.5 56.5t56.5 23.5h24l8 94q5 66 34.5 105.5t68 60t78.5 27t72 8.5t59.5 -19t34.5 -56q2 -19 -2 -36t-14 -31t-25 -24t-33 -12
q-31 0 -51.5 -12.5t-25.5 -48.5l-5 -56h41q33 0 56.5 -23.5t23.5 -56.5t-23.5 -56.5t-56.5 -23.5h-54v-5q-4 -61 -9.5 -122t-9.5 -122q-6 -66 -35 -105t-67.5 -60t-79 -27.5t-69.5 -6.5v0z" />
    <glyph glyph-name="ogonek" unicode="&#x2db;" horiz-adv-x="451" 
d="M109 -142q0 20 4.5 41t16.5 41.5t31 40t48 36.5h108v-17q-12 0 -24.5 -10t-23.5 -25t-17.5 -33t-6.5 -34q0 -7 1.5 -15t14.5 -14q11 -4 21.5 -11t7.5 -18l-16 -75q-4 -16 -19 -21t-31 -1q-62 14 -88.5 45.5t-26.5 69.5z" />
    <glyph glyph-name="endash" unicode="&#x2013;" horiz-adv-x="706" 
d="M51 299q0 32 22 54t54 22h456q32 0 54 -22t22 -54t-22 -54t-54 -22h-456q-32 0 -54 22t-22 54z" />
    <glyph glyph-name="emdash" unicode="&#x2014;" horiz-adv-x="894" 
d="M46 299q0 32 22 54t54 22h656q32 0 54 -22t22 -54t-22 -54t-54 -22h-656q-32 0 -54 22t-22 54z" />
    <glyph glyph-name="quoteleft" unicode="&#x2018;" horiz-adv-x="261" 
d="M71 475q-16 0 -26.5 14t-5.5 30l29.5 90.5l33.5 102.5q8 27 29 43.5t49 11.5t44 -28t12 -50l-37 -194q-2 -10 -11.5 -15t-20.5 -5h-96z" />
    <glyph glyph-name="quoteright" unicode="&#x2019;" horiz-adv-x="254" 
d="M208.004 763.029q15.999 0 26.499 -13.999q10.499 -14 5.49902 -29.999l-29.498 -90.4941l-33.498 -102.494q-7.99902 -26.998 -28.998 -43.4971q-20.998 -16.499 -48.9971 -11.499q-27.998 5 -43.9971 27.998q-15.999 22.999 -11.999 49.9971l36.9971 193.988
q2 9.99902 11.5 14.999q9.49902 5 20.498 5h95.9941z" />
    <glyph glyph-name="quotesinglbase" unicode="&#x201a;" horiz-adv-x="267" 
d="M45 -92q-12 0 -19.5 9.5t-5.5 20.5l43 231q2 12 11.5 19.5t21.5 7.5h101q14 0 22 -10t3 -23l-74 -232q-3 -10 -12 -16.5t-20 -6.5h-71z" />
    <glyph glyph-name="quotedblleft" unicode="&#x201c;" horiz-adv-x="474" 
d="M219.017 763.029q12.999 0 20.499 -9q7.49902 -8.99902 4.5 -21.998l-42.998 -229.986q-2 -11.999 -11.499 -19.499q-9.49902 -7.49902 -21.499 -7.49902h-107.993q-12.999 0 -20.999 9.99902q-7.99902 9.99902 -3.99902 23.999l74.9951 230.985q3 9.99902 11.999 16.499
q9 6.5 19.999 6.5h76.9951zM434.004 763.029q11.999 0 19.499 -9q7.49902 -8.99902 5.49902 -20.998l-42.9971 -230.986q-2 -11.999 -11.499 -19.499q-9.5 -7.49902 -21.499 -7.49902h-108.993q-12.999 0 -20.999 9.99902q-7.99902 9.99902 -3 23.999l73.9961 230.985
q2.99902 9.99902 11.999 16.499q8.99902 6.5 19.999 6.5h77.9951z" />
    <glyph glyph-name="quotedblright" unicode="&#x201d;" horiz-adv-x="466" 
d="M275 475q-13 0 -20.5 9t-4.5 22l43 230q2 12 11.5 19.5t21.5 7.5h108q13 0 21 -10t4 -24l-75 -231q-3 -10 -12 -16.5t-20 -6.5h-77zM60 475q-12 0 -19.5 9t-5.5 21l43 231q2 12 11.5 19.5t21.5 7.5h109q13 0 21 -10t3 -24l-74 -231q-3 -10 -12 -16.5t-20 -6.5h-78z" />
    <glyph glyph-name="quotedblbase" unicode="&#x201e;" horiz-adv-x="471" 
d="M194 196q15 0 21.5 -15.5t1.5 -29.5l-58 -175q-7 -25 -30 -38.5t-48 -7.5q-26 8 -40 30.5t-7 48.5l7.5 41.5l9 51t8.5 46t5 27.5q2 10 12 15.5t20 5.5h98zM400 196q16 0 23 -15.5t2 -29.5l-58 -175q-8 -25 -30.5 -38.5t-48.5 -7.5q-27 8 -40.5 30.5t-5.5 48.5
q2 16 7 41.5t9 51t8 46t6 27.5q2 10 11.5 15.5t20.5 5.5h96z" />
    <glyph glyph-name="dagger" unicode="&#x2020;" horiz-adv-x="501" 
d="M159 384h-68q-31 0 -53 22t-22 54q0 31 22 53t53 22h68v117q0 40 27 67t67 27q39 0 66.5 -27t27.5 -67v-117h66q32 0 54 -22t22 -53q0 -32 -22 -54t-54 -22h-66v-375q0 -39 -27.5 -66.5t-66.5 -27.5q-40 0 -67 27.5t-27 66.5v375z" />
    <glyph glyph-name="daggerdbl" unicode="&#x2021;" horiz-adv-x="505" 
d="M93 147q-32 0 -54 22.5t-22 54.5t22 54t54 22h67v84h-67q-31 0 -53 22t-22 54q0 31 22 53t53 22h67v121q0 19 7.5 36.5t20 30t29.5 20t37 7.5q19 0 36 -7.5t30 -20t20.5 -30t7.5 -36.5v-121h67q32 0 54 -22t22 -53q0 -32 -22 -54t-54 -22h-67v-84h67q32 0 54.5 -22
t22.5 -54t-22.5 -54.5t-54.5 -22.5h-67v-112q0 -20 -7.5 -37t-20.5 -29.5t-30 -20t-36 -7.5q-20 0 -37 7.5t-29.5 20t-20 29.5t-7.5 37v112h-67v0z" />
    <glyph glyph-name="bullet" unicode="&#x2022;" horiz-adv-x="443" 
d="M31 302q0 40 15 74.5t41 60.5t61 41t75 15t75 -15t61 -41t41 -60.5t15 -74.5t-15 -75t-41 -61t-61 -41t-75 -15t-75 15t-61 41t-41 61t-15 75z" />
    <glyph glyph-name="ellipsis" unicode="&#x2026;" horiz-adv-x="981" 
d="M253 94q0 -24 -9.5 -46t-25.5 -38t-37.5 -25t-46.5 -9q-24 0 -45.5 9t-37.5 25t-25 38t-9 46t9 46t25 38t37.5 24.5t45.5 8.5q25 0 46.5 -8.5t37.5 -24.5t25.5 -38t9.5 -46zM591 94q0 -24 -9.5 -46t-25.5 -38t-37.5 -25t-45.5 -9q-25 0 -46.5 9t-37.5 25t-25 38t-9 46
t9 46t25 38t37.5 24.5t46.5 8.5q24 0 45.5 -8.5t37.5 -24.5t25.5 -38t9.5 -46zM929 94q0 -24 -9.5 -46t-25.5 -38t-37.5 -25t-46.5 -9q-24 0 -45.5 9t-37.5 25t-25 38t-9 46t9 46t25 38t37.5 24.5t45.5 8.5q25 0 46.5 -8.5t37.5 -24.5t25.5 -38t9.5 -46z" />
    <glyph glyph-name="perthousand" unicode="&#x2030;" horiz-adv-x="1214" 
d="M245 0q-13 0 -21 11.5t-3 24.5l291 683q12 25 38 25h64q14 0 21.5 -11t3.5 -24l-292 -684q-10 -25 -38 -25h-64zM175.796 484.916q-17.6895 0 -29.8896 7.33301q-12.1992 7.33203 -21.3496 16.1914q-9.14941 8.86035 -15.8594 16.1924t-12.8096 7.94336h-4.87988
q-4.87988 0 -7.31934 -2.13867q-2.44043 -2.13867 -7.32031 -10.6934q-13.4199 -19.5527 -34.1592 -19.5527q-4.26953 0 -7.31934 0.611328q2.43945 1.83301 2.43945 3.66602t-2.43945 4.88867q6.70996 1.83301 5.48926 7.33203q-1.21973 4.27734 -8.53906 3.05469
q0 6.72168 -5.49023 6.72168q-4.87988 0 -4.87988 -6.72168q-7.32031 1.22266 -8.54004 -4.27637q-7.92969 12.8311 -7.92969 23.8291q0 6.11035 1.52539 10.3877q1.52441 4.27734 3.35449 7.33203q24.3994 42.7725 61.6084 42.7725q24.3994 0 37.5146 -7.33301
q13.1143 -7.33203 20.7393 -16.4971l14.0293 -16.498q6.40527 -7.33203 17.3848 -7.33203q9.75977 0 12.8096 7.33203q10.3701 23.2188 33.5498 23.2188q17.6895 0 28.6689 -11.915t10.9795 -26.5791q0 -15.8867 -6.4043 -26.8848q-6.40527 -10.999 -16.4697 -18.3311
q-10.0654 -7.33203 -21.96 -10.6924q-11.8945 -3.36133 -22.2646 -3.36133h-4.26953zM380.141 748.268q0 -5.5 0.305664 -10.6934q0.304688 -5.19336 0.304688 -10.082q0 -14.0537 -4.87988 -25.9688q-4.87988 -11.9141 -13.1143 -21.9961
q-8.23535 -10.082 -18.6045 -18.6367q-10.3701 -8.55371 -21.96 -16.4971q-4.87988 -2.44434 -13.7246 -3.05566q-8.84473 -0.610352 -17.9951 -1.83301q-1.21973 3.05566 -1.52441 5.19434t-0.304688 5.19336q0 8.55469 6.70996 25.9688q6.70898 17.4141 17.6895 31.4678
q17.6895 21.9961 33.5488 29.6338q15.8594 7.63867 33.5488 11.3047zM97.1074 517.301q4.87988 -0.611328 11.2852 -7.94336q6.4043 -7.33203 15.8594 -15.8867t22.875 -15.5811q13.4189 -7.02637 32.9385 -7.02637q-0.609375 0 3.96484 -0.305664
q4.5752 -0.305664 11.8955 0.610352q7.31934 0.916992 16.4688 3.05566q9.15039 2.13867 18.2998 6.41504q17.0801 6.72168 27.4492 21.3867q10.3701 14.6641 10.3701 34.2168q0 25.6631 -17.6895 43.0771t-43.3086 17.4141q-19.5195 0 -34.7695 -10.3877
q-15.25 -10.3867 -18.2998 -23.2188q-6.70996 3.05566 -14.0293 12.832q-7.32031 9.77637 -19.5195 19.5527q17.6895 25.6631 43.3086 36.0498q25.6191 10.3877 53.0693 10.3877q13.4189 0 22.5693 -2.75q9.14941 -2.74902 17.0791 -6.41504t16.165 -6.41602
q8.23438 -2.75 19.2139 -2.75q10.9805 0 18.9102 2.75t15.8594 6.41602t17.0801 6.41504q9.14941 2.75 23.1787 2.75q26.8398 0 50.6289 -10.082q23.79 -10.082 45.1387 -35.1338q-14.0293 -9.16504 -24.0938 -18.3311q-10.0654 -9.16504 -16.4697 -20.1631
q-6.40527 -10.999 -9.45508 -24.1357t-3.0498 -30.8564q0.610352 -23.8301 9.14941 -40.3271q8.54004 -16.498 19.2148 -27.1914q10.6748 -10.6924 21.0449 -16.1914q10.3691 -5.49902 15.249 -7.33203l-17.3848 -34.5234q-7.62402 -14.9697 -14.6396 -26.2734
q-7.01465 -11.3047 -14.0293 -20.4697t-15.5547 -17.1084l-8.23438 -8.55469t-9.45508 -7.33203t-13.4199 -5.19336t-20.1289 -2.13867q-10.9805 0 -19.2148 2.74902l-11.8945 3.97168q-14.0303 6.72168 -21.96 9.16602q-7.92969 2.44336 -16.4697 2.44336
q-7.92969 0 -16.4688 -2.44336q-8.54004 -2.44434 -22.5703 -9.16602l-10.6748 -4.27734q-7.62402 -3.05469 -17.9941 -3.05469q-18.9092 0 -30.499 6.72168q-11.5898 6.7207 -16.4697 11.6094q-22.5693 18.3301 -35.6846 39.1055q-13.1143 20.7744 -25.9238 51.3252
q-4.87988 8.55469 -9.15039 21.0811q-4.26953 12.5254 -7.31934 26.5791t-5.18457 29.0234q-2.13574 14.9707 -2.13574 29.0234q0 3.05566 0.305664 6.41602q0.304688 3.36035 1.52441 6.41602h3.0498zM20.25 551.518q0 -3.05469 2.13477 -5.19336t5.18457 -2.13867
t5.18457 2.13867q2.13574 2.13867 2.13574 5.19336q0 7.33203 -7.32031 7.33203q-3.0498 0 -5.18457 -2.1377q-2.13477 -2.13867 -2.13477 -5.19434zM660.796 195.916q-17.6895 0 -29.8896 7.33301q-12.1992 7.33203 -21.3496 16.1914q-9.14941 8.86035 -15.8594 16.1924
t-12.8096 7.94336h-4.87988q-4.87988 0 -7.31934 -2.13867q-2.44043 -2.13867 -7.32031 -10.6934q-13.4199 -19.5527 -34.1592 -19.5527q-4.26953 0 -7.31934 0.611328q2.43945 1.83301 2.43945 3.66602t-2.43945 4.88867q6.70996 1.83301 5.48926 7.33203
q-1.21973 4.27734 -8.53906 3.05469q0 6.72168 -5.49023 6.72168q-4.87988 0 -4.87988 -6.72168q-7.32031 1.22266 -8.54004 -4.27637q-7.92969 12.8311 -7.92969 23.8291q0 6.11035 1.52539 10.3877q1.52441 4.27734 3.35449 7.33203q24.3994 42.7725 61.6084 42.7725
q24.3994 0 37.5146 -7.33301q13.1143 -7.33203 20.7393 -16.4971l14.0293 -16.498q6.40527 -7.33203 17.3848 -7.33203q9.75977 0 12.8096 7.33203q10.3701 23.2188 33.5498 23.2188q17.6895 0 28.6689 -11.915t10.9795 -26.5791q0 -15.8867 -6.4043 -26.8848
q-6.40527 -10.999 -16.4697 -18.3311q-10.0654 -7.33203 -21.96 -10.6924q-11.8945 -3.36133 -22.2646 -3.36133h-4.26953zM865.141 459.268q0 -5.5 0.305664 -10.6934q0.304688 -5.19336 0.304688 -10.082q0 -14.0537 -4.87988 -25.9678
q-4.87988 -11.915 -13.1143 -21.9971q-8.23535 -10.082 -18.6045 -18.6367q-10.3701 -8.55371 -21.96 -16.4971q-4.87988 -2.44434 -13.7246 -3.05566q-8.84473 -0.610352 -17.9951 -1.83301q-1.21973 3.05566 -1.52441 5.19434t-0.304688 5.19336
q0 8.55469 6.70996 25.9688q6.70898 17.4141 17.6895 31.4678q17.6895 21.9961 33.5488 29.6338q15.8594 7.63867 33.5488 11.3047zM582.107 228.301q4.87988 -0.611328 11.2852 -7.94336q6.4043 -7.33203 15.8594 -15.8867t22.875 -15.5811
q13.4189 -7.02637 32.9385 -7.02637q-0.609375 0 3.96484 -0.305664q4.5752 -0.305664 11.8955 0.610352q7.31934 0.916992 16.4688 3.05566q9.15039 2.13867 18.2998 6.41504q17.0801 6.72168 27.4492 21.3867q10.3701 14.6641 10.3701 34.2168q0 25.6631 -17.6895 43.0771
t-43.3086 17.4141q-19.5195 0 -34.7695 -10.3877q-15.25 -10.3867 -18.2998 -23.2188q-6.70996 3.05566 -14.0293 12.832q-7.32031 9.77637 -19.5195 19.5527q17.6895 25.6631 43.3086 36.0498q25.6191 10.3877 53.0693 10.3877q13.4189 0 22.5693 -2.75
q9.14941 -2.74902 17.0791 -6.41504t16.165 -6.41602q8.23438 -2.75 19.2139 -2.75q10.9805 0 18.9102 2.75t15.8594 6.41602t17.0801 6.41504q9.14941 2.75 23.1787 2.75q26.8398 0 50.6289 -10.082q23.79 -10.082 45.1387 -35.1338q-14.0293 -9.16504 -24.0938 -18.3311
q-10.0654 -9.16504 -16.4697 -20.1631q-6.40527 -10.999 -9.45508 -24.1357t-3.0498 -30.8564q0.610352 -23.8301 9.14941 -40.3271q8.54004 -16.498 19.2148 -27.1914q10.6748 -10.6924 21.0449 -16.1914q10.3691 -5.49902 15.249 -7.33203l-17.3848 -34.5234
q-7.62402 -14.9697 -14.6396 -26.2734q-7.01465 -11.3047 -14.0293 -20.4697t-15.5547 -17.1084l-8.23438 -8.55469t-9.45508 -7.33203t-13.4199 -5.19336t-20.1289 -2.13867q-10.9805 0 -19.2148 2.74902l-11.8945 3.97168q-14.0303 6.72168 -21.96 9.16602
q-7.92969 2.44336 -16.4697 2.44336q-7.92969 0 -16.4688 -2.44336q-8.54004 -2.44434 -22.5703 -9.16602l-10.6748 -4.27734q-7.62402 -3.05469 -17.9941 -3.05469q-18.9092 0 -30.499 6.72168q-11.5898 6.7207 -16.4697 11.6094q-22.5693 18.3301 -35.6846 39.1055
q-13.1143 20.7744 -25.9238 51.3252q-4.87988 8.55469 -9.15039 21.0811q-4.26953 12.5254 -7.31934 26.5791t-5.18457 29.0234q-2.13574 14.9707 -2.13574 29.0234q0 3.05566 0.305664 6.41602q0.304688 3.36035 1.52441 6.41602h3.0498zM505.25 262.518
q0 -3.05469 2.13477 -5.19336t5.18457 -2.13867t5.18457 2.13867q2.13574 2.13867 2.13574 5.19336q0 7.33203 -7.32031 7.33203q-3.0498 0 -5.18457 -2.1377q-2.13477 -2.13867 -2.13477 -5.19434zM1017.8 195.916q-17.6895 0 -29.8896 7.33301
q-12.1992 7.33203 -21.3496 16.1914q-9.14941 8.86035 -15.8594 16.1924t-12.8096 7.94336h-4.87988q-4.87988 0 -7.31934 -2.13867q-2.44043 -2.13867 -7.32031 -10.6934q-13.4199 -19.5527 -34.1592 -19.5527q-4.26953 0 -7.31934 0.611328
q2.43945 1.83301 2.43945 3.66602t-2.43945 4.88867q6.70996 1.83301 5.48926 7.33203q-1.21973 4.27734 -8.53906 3.05469q0 6.72168 -5.49023 6.72168q-4.87988 0 -4.87988 -6.72168q-7.32031 1.22266 -8.54004 -4.27637q-7.92969 12.8311 -7.92969 23.8291
q0 6.11035 1.52539 10.3877q1.52441 4.27734 3.35449 7.33203q24.3994 42.7725 61.6084 42.7725q24.3994 0 37.5146 -7.33301q13.1143 -7.33203 20.7393 -16.4971l14.0293 -16.498q6.40527 -7.33203 17.3848 -7.33203q9.75977 0 12.8096 7.33203
q10.3701 23.2188 33.5498 23.2188q17.6895 0 28.6689 -11.915t10.9795 -26.5791q0 -15.8867 -6.4043 -26.8848q-6.40527 -10.999 -16.4697 -18.3311q-10.0654 -7.33203 -21.96 -10.6924q-11.8945 -3.36133 -22.2646 -3.36133h-4.26953zM1222.14 459.268
q0 -5.5 0.305664 -10.6934q0.304688 -5.19336 0.304688 -10.082q0 -14.0537 -4.87988 -25.9678q-4.87988 -11.915 -13.1152 -21.9971q-8.23438 -10.082 -18.6035 -18.6367q-10.3701 -8.55371 -21.96 -16.4971q-4.87988 -2.44434 -13.7246 -3.05566
q-8.84473 -0.610352 -17.9951 -1.83301q-1.21973 3.05566 -1.52441 5.19434t-0.304688 5.19336q0 8.55469 6.70996 25.9688q6.70898 17.4141 17.6895 31.4678q17.6895 21.9961 33.5488 29.6338q15.8594 7.63867 33.5488 11.3047zM939.107 228.301
q4.87988 -0.611328 11.2852 -7.94336q6.4043 -7.33203 15.8594 -15.8867t22.875 -15.5811q13.4189 -7.02637 32.9385 -7.02637q-0.609375 0 3.96582 -0.305664q4.57422 -0.305664 11.8945 0.610352q7.31934 0.916992 16.4688 3.05566q9.15039 2.13867 18.2998 6.41504
q17.0801 6.72168 27.4492 21.3867q10.3701 14.6641 10.3701 34.2168q0 25.6631 -17.6895 43.0771t-43.3086 17.4141q-19.5195 0 -34.7695 -10.3877q-15.25 -10.3867 -18.2998 -23.2188q-6.70996 3.05566 -14.0293 12.832q-7.32031 9.77637 -19.5195 19.5527
q17.6895 25.6631 43.3086 36.0498q25.6191 10.3877 53.0693 10.3877q13.4189 0 22.5693 -2.75q9.14941 -2.74902 17.0791 -6.41504t16.165 -6.41602q8.23438 -2.75 19.2139 -2.75q10.9805 0 18.9102 2.75t15.8594 6.41602t17.0801 6.41504q9.14941 2.75 23.1787 2.75
q26.8398 0 50.6289 -10.082q23.79 -10.082 45.1387 -35.1338q-14.0293 -9.16504 -24.0938 -18.3311q-10.0654 -9.16504 -16.4697 -20.1631q-6.40527 -10.999 -9.45508 -24.1357t-3.0498 -30.8564q0.610352 -23.8301 9.14941 -40.3271q8.54004 -16.498 19.2148 -27.1914
q10.6748 -10.6924 21.0449 -16.1914q10.3691 -5.49902 15.249 -7.33203l-17.3838 -34.5234q-7.625 -14.9697 -14.6406 -26.2734q-7.01465 -11.3047 -14.0293 -20.4697t-15.5547 -17.1084l-8.23438 -8.55469t-9.45508 -7.33203t-13.4199 -5.19336t-20.1289 -2.13867
q-10.9805 0 -19.2148 2.74902l-11.8945 3.97168q-14.0303 6.72168 -21.96 9.16602q-7.92969 2.44336 -16.4697 2.44336q-7.92969 0 -16.4688 -2.44336q-8.54004 -2.44434 -22.5703 -9.16602l-10.6738 -4.27734q-7.625 -3.05469 -17.9951 -3.05469
q-18.9092 0 -30.499 6.72168q-11.5898 6.7207 -16.4697 11.6094q-22.5693 18.3301 -35.6846 39.1055q-13.1143 20.7744 -25.9238 51.3252q-4.87988 8.55469 -9.15039 21.0811q-4.26953 12.5254 -7.31934 26.5791t-5.18457 29.0234q-2.13574 14.9707 -2.13574 29.0234
q0 3.05566 0.305664 6.41602q0.304688 3.36035 1.52441 6.41602h3.0498zM862.25 262.518q0 -3.05469 2.13477 -5.19336t5.18457 -2.13867t5.18457 2.13867q2.13574 2.13867 2.13574 5.19336q0 7.33203 -7.32031 7.33203q-3.0498 0 -5.18457 -2.1377
q-2.13477 -2.13867 -2.13477 -5.19434z" />
    <glyph glyph-name="guilsinglleft" unicode="&#x2039;" horiz-adv-x="382" 
d="M297 174q11 -25 6 -50.5t-27 -43.5q-25 -21 -57 -17.5t-54 27.5l-107 154q-20 30 -20 48.5t13 37.5l108 150q9 13 23 21t29 10.5t30 -0.5t28 -13q13 -9 21.5 -22.5t11 -29t-1 -31t-12.5 -28.5l-62 -100z" />
    <glyph glyph-name="guilsinglright" unicode="&#x203a;" horiz-adv-x="382" 
d="M88.0186 174q-11 -25 -6 -50.5t26.998 -43.5q24.999 -21 56.9971 -17.5t53.9961 27.5l106.994 154q19.998 30 19.998 48.5t-12.999 37.5l-107.993 150q-9 13 -22.999 21t-28.998 10.5t-29.998 -0.5t-27.998 -13q-12.999 -9 -21.499 -22.5q-8.49902 -13.5 -10.999 -29
t1 -31t12.499 -28.5l61.9961 -100z" />
    <glyph glyph-name="Euro" unicode="&#x20ac;" horiz-adv-x="641" 
d="M485 157q8 4 17 6q16 3 31.5 0t28.5 -11t22 -21.5t13 -28.5q4 -16 0.5 -31.5t-11.5 -28.5t-21 -22t-36.5 -16.5t-57.5 -13t-64 -5.5q-125 0 -197 65.5t-98 187.5h-33q-22 2 -36 19t-12 39t19.5 35.5t38.5 11.5h11v57h-22q-22 2 -35.5 18.5t-11.5 38.5q2 21 19 34t38 13
h21q10 56 34.5 103t62 81t86 53t108.5 19q40 0 81 -10t65.5 -23t33 -25t13 -26t3 -28.5t-8.5 -28.5q-15 -31 -46 -40.5t-60 5.5q-19 7 -37.5 11.5t-37.5 4.5q-33 0 -59 -21.5t-39 -74.5h154q22 -1 35 -18.5t12 -39.5q-3 -21 -20 -33.5t-39 -12.5h-151v-57h108
q22 -1 37 -17.5t14 -37.5q-2 -22 -18 -36.5t-38 -13.5h-83q15 -54 41.5 -74.5t59.5 -20.5q19 0 35 3.5t30 10.5z" />
    <glyph glyph-name="trademark" unicode="&#x2122;" horiz-adv-x="954" 
d="M151.374 282q-20.4014 0 -34.3115 13.584q-13.9102 13.583 -13.9102 33.958q0 18.5234 12.9824 31.7979q12.9834 13.2754 31.5303 14.5098v263.644h-27.8203q0.618164 -6.79199 0.618164 -9.26172q0 -11.7314 -4.32812 -21.3018q-4.32715 -9.57031 -12.0547 -16.3613
q-7.72852 -6.79199 -17.002 -11.1143q-9.27246 -4.32129 -19.7832 -4.32129q-23.4922 0 -38.9473 15.7441q-15.4561 15.7441 -14.8379 37.3545v57.4209q0 11.1143 4.01855 20.9932t11.1279 16.9795q7.10938 7.09961 16.6924 11.4219q9.58203 4.32227 20.71 4.32227h290.566
q21.0195 0 36.166 -14.8184t15.7646 -36.4287v-48.7764q0 -27.7852 -13.292 -45.999t-39.875 -18.2139q-24.1113 0 -38.6396 16.0527t-14.5283 37.0459q0 2.46973 0.618164 9.26172h-27.8193v-264.261q19.1641 -1.23535 31.8379 -14.5098q12.6738 -13.2754 12.6738 -33.0332
q0 -18.5225 -13.292 -31.4883q-13.292 -12.9668 -31.2197 -14.2012h-123.646zM561.63 375.785q17.3037 -4.31934 27.501 -19.4365q10.1963 -15.1162 7.10645 -33.0098q-3.08984 -19.7441 -18.54 -31.7754q-15.4492 -12.0312 -35.2246 -8.94629h-106.293
q-17.9209 1.85059 -29.6631 13.8828q-11.7412 12.0312 -12.9775 28.6904q-1.23535 19.7441 11.4326 34.5518q12.6689 14.8086 32.4443 16.043v3.08496q4.32617 66.6357 9.8877 132.964t9.8877 132.965v3.08496q-18.5391 1.2334 -30.5898 13.2656
q-12.0508 12.0312 -13.9043 29.9248q-1.85449 19.127 10.8145 34.2432q12.668 15.1172 32.4434 16.3506h119.271q16.6855 0 26.8828 -10.7969q10.1963 -10.7979 14.5225 -28.6914q51.9102 -223.355 52.5283 -225.206q0 2.46777 50.6738 225.206
q4.32617 17.8936 18.2305 28.6914q13.9053 10.7969 32.4443 10.7969h109.383q18.5391 -0.617188 30.5898 -13.5742t13.2871 -30.8496q0.617188 -9.87207 -2.47266 -18.5107q-3.08984 -8.6377 -9.26953 -15.4248t-14.5225 -10.7979q-8.34277 -4.00977 -18.2305 -4.62695
v-3.08496q4.32617 -66.6367 9.8877 -132.965t10.5059 -132.964v-3.08496q19.1572 -1.23438 31.8262 -15.7344q12.668 -14.499 11.4326 -33.627q-1.23633 -19.127 -15.4502 -32.084q-14.2129 -12.957 -33.9883 -11.7227h-113.091q-13.5957 2.46777 -23.792 11.4141
q-10.1973 8.94727 -14.5225 22.5215q-4.94434 19.127 4.63477 36.4023q9.57812 17.2764 28.7354 22.8301v200.526h-5.56152l-35.8428 -158.57q-5.56152 -23.4463 -23.4834 -37.6377q-17.9209 -14.1914 -41.4043 -14.1914q-25.3379 0 -42.9502 14.1914t-23.792 37.6377
l-35.8428 158.57h-4.32617z" />
    <glyph glyph-name="infinity" unicode="&#x221e;" horiz-adv-x="542" 
d="M157 448q41 0 69.5 -19t53.5 -41h5q36 41 95 41q28 0 55 -8.5t48 -26.5t34 -45.5t13 -64.5q0 -32 -9.5 -60t-28 -49t-45.5 -33.5t-61 -12.5q-39 0 -69 14t-47 24h-5q-17 -23 -42.5 -36.5t-60.5 -13.5q-29 0 -56.5 10t-50 30.5t-36 51.5t-13.5 73q0 43 14 74.5t35.5 52
t48.5 30t53 9.5zM374 321q-26 0 -39.5 -19t-27.5 -45h3q7 -4 22 -9t36 -5q20 0 33.5 10.5t13.5 30.5t-12 28.5t-29 8.5zM177 335q-24 0 -41.5 -14t-17.5 -35q0 -24 14 -37t38 -13q20 0 31.5 15t22.5 38l5.5 10.5t7.5 10.5h-1q-9 8 -24 16.5t-35 8.5z" />
    <glyph glyph-name="approxequal" unicode="&#x2248;" horiz-adv-x="600" 
d="M464 501q14 17 34.5 22t40.5 -5q22 -10 30.5 -34t-2.5 -47q-36 -59 -55.5 -74.5t-46 -25t-64.5 -9.5q-25 0 -53.5 9t-56.5 20t-53.5 19.5t-42.5 8.5q-16 0 -27 -7t-22 -21t-32.5 -19.5t-42.5 4.5q-23 11 -31.5 35t1.5 48q10 21 22.5 41t32 36.5t45.5 27t63 10.5
q30 0 110.5 -29.5t101.5 -29.5q16 0 27.5 6t20.5 14zM464 243q14 16 34.5 21.5t40.5 -5.5q22 -10 30.5 -34t-2.5 -46q-36 -60 -55.5 -75.5t-46 -24.5t-64.5 -9q-25 0 -53.5 8.5t-56.5 19.5t-53.5 20t-42.5 9q-16 0 -27 -7t-22 -21t-32.5 -20t-42.5 5q-23 11 -31.5 35t1.5 47
q10 21 22.5 41t32 36.5t45.5 27t63 10.5q30 0 110.5 -29t101.5 -29q16 0 27.5 6t20.5 14z" />
    <glyph glyph-name="quotedbl" unicode="&#x22;" horiz-adv-x="421" 
d="M24 691v7q1 17 8 31.5t19 25t27 16t32 4.5q17 0 31.5 -7.5t25 -19t16 -26.5t4.5 -32l-18 -142q-4 -26 -20 -44t-41 -18q-26 0 -42.5 19.5t-19.5 42.5zM235 691v7q1 17 8 31.5t19 25t27 16t32 4.5q16 0 30.5 -7.5t25 -19t16.5 -26.5t5 -32l-18 -142q-4 -26 -20 -44
t-42 -18t-42.5 19.5t-18.5 42.5z" />
    <glyph glyph-name="exclam" unicode="!" horiz-adv-x="303" 
d="M66 326l-24 363q0 23 9 43t23.5 35t35 23.5t42.5 8.5q23 0 43 -8.5t35 -23.5t23.5 -35t8.5 -43l-22 -362q0 -18 -7.5 -34t-19.5 -27t-28 -17.5t-34 -6.5q-35 1 -59 24.5t-26 59.5zM268 62q0 -24 -9.5 -45.5t-25 -37.5t-37 -25t-45.5 -9t-45 9t-37 25t-25.5 37.5
t-9.5 45.5t9.5 45.5t25.5 37t37 25t45 9.5t45.5 -9.5t37 -25t25 -37t9.5 -45.5z" />
    <glyph glyph-name="twosuperior" unicode="&#xb2;" horiz-adv-x="388" 
d="M179.325 641.467q-17.9512 0 -30.332 7.42871q-12.3799 7.42773 -21.665 16.4033q-9.28613 8.97656 -16.0947 16.4043q-6.80957 7.42773 -13 8.04688h-4.95215q-4.95215 0 -7.42773 -2.16602q-2.47656 -2.16699 -7.42871 -10.833q-13.6182 -19.8086 -34.665 -19.8086
q-4.33301 0 -7.42773 0.619141q2.47559 1.85645 2.47559 3.71387t-2.47559 4.95215q6.80859 1.85742 5.57129 7.42871q-1.23828 4.33301 -8.66699 3.09473q0 6.80957 -5.57031 6.80957q-4.95215 0 -4.95215 -6.80957q-7.42871 1.23828 -8.66699 -4.33301
q-8.04688 12.999 -8.04688 24.1416q0 6.19043 1.54785 10.5234q1.54688 4.33301 3.4043 7.42773q24.7607 43.332 62.5205 43.332q24.7607 0 38.0703 -7.42871q13.3086 -7.42773 21.0459 -16.7129l14.2383 -16.7139q6.49902 -7.42871 17.6416 -7.42871
q9.9043 0 12.999 7.42871q10.5234 23.5225 34.0459 23.5225q17.9521 0 29.0947 -12.0703q11.1416 -12.0713 11.1416 -26.9277q0 -16.0947 -6.49902 -27.2363q-6.5 -11.1426 -16.7139 -18.5713q-10.2139 -7.42773 -22.2842 -10.833q-12.0713 -3.4043 -22.5947 -3.4043
h-4.33301zM386.696 908.264q0 -5.57129 0.30957 -10.833q0.30957 -5.26074 0.30957 -10.2139q0 -14.2373 -4.95215 -26.3076q-4.95215 -12.0713 -13.3086 -22.2852q-8.35742 -10.2139 -18.8809 -18.8799q-10.5225 -8.66602 -22.2842 -16.7129
q-4.95215 -2.47656 -13.9277 -3.0957t-18.2607 -1.85742q-1.23828 3.0957 -1.54785 5.26172q-0.30957 2.16699 -0.30957 5.26172q0 8.66699 6.80859 26.3086q6.80957 17.6426 17.9521 31.8799q17.9512 22.2842 34.0459 30.0225q16.0947 7.7373 34.0459 11.4512z
M99.4717 674.275q4.95215 -0.619141 11.4521 -8.04785q6.5 -7.42773 16.0947 -16.0947q9.59473 -8.66602 23.2129 -15.7842q13.6182 -7.11914 33.4268 -7.11914q-0.619141 0 4.02344 -0.30957t12.0713 0.619141q7.42773 0.928711 16.7139 3.09473
q9.28516 2.16699 18.5703 6.5q17.332 6.80957 27.8555 21.666t10.5234 34.665q0 25.998 -17.9512 43.6406q-17.9521 17.6416 -43.9512 17.6416q-19.8086 0 -35.2832 -10.5234q-15.4756 -10.5225 -18.5713 -23.5225q-6.80859 3.0957 -14.2373 13
q-7.42773 9.9043 -19.8086 19.8086q17.9521 25.998 43.9502 36.5215q25.999 10.5234 53.8545 10.5234q13.6191 0 22.9043 -2.78516q9.28516 -2.78613 17.332 -6.5q8.04785 -3.71387 16.4043 -6.5q8.35645 -2.78516 19.499 -2.78516t19.1895 2.78516
q8.04785 2.78613 16.0947 6.5t17.332 6.5q9.28613 2.78516 23.5234 2.78516q27.2363 0 51.3779 -10.2139t45.8076 -35.5938q-14.2373 -9.28516 -24.4512 -18.5703t-16.7139 -20.4277q-6.49902 -11.1426 -9.59473 -24.4512q-3.09473 -13.3086 -3.09473 -31.2607
q0.619141 -24.1416 9.28516 -40.8545q8.66602 -16.7139 19.499 -27.5469t21.3564 -16.4033q10.5234 -5.57129 15.4756 -7.42871l-17.6426 -34.9746q-7.7373 -15.166 -14.8564 -26.6182q-7.11816 -11.4512 -14.2373 -20.7363q-7.11816 -9.28516 -15.7852 -17.333
l-8.35645 -8.66602t-9.59473 -7.42871q-5.57129 -3.09473 -13.6182 -5.26172q-8.04785 -2.16602 -20.4277 -2.16602q-11.1426 0 -19.499 2.78516l-12.0713 4.02344q-14.2373 6.80957 -22.2842 9.28613q-8.04785 2.47559 -16.7139 2.47559q-8.04688 0 -16.7139 -2.47559
q-8.66602 -2.47656 -22.9033 -9.28613l-10.833 -4.33301q-7.7373 -3.09473 -18.2607 -3.09473q-19.1895 0 -30.9512 6.80957q-11.7607 6.80859 -16.7129 11.7607q-22.9043 18.5703 -36.2129 39.6172t-26.3086 51.998q-4.95215 8.66602 -9.28516 21.3555
q-4.33301 12.6904 -7.42773 26.9277q-3.0957 14.2373 -5.26172 29.4033q-2.16699 15.166 -2.16699 29.4033q0 3.0957 0.30957 6.5t1.54785 6.5h3.09473zM21.4756 708.939q0 -3.09473 2.16602 -5.26074q2.16699 -2.16699 5.26172 -2.16699q3.0957 0 5.26172 2.16699
q2.16699 2.16602 2.16699 5.26074q0 7.42871 -7.42871 7.42871q-3.09473 0 -5.26172 -2.16699q-2.16602 -2.16602 -2.16602 -5.26172z" />
    <glyph glyph-name="threesuperior" unicode="&#xb3;" horiz-adv-x="363" 
d="M28.7607 853.171q0 21.666 15.166 36.5225t36.8311 14.8564h162.803q16.7129 0 30.9502 -5.57129t24.4512 -15.7852t15.7852 -24.1416t4.33301 -30.0225q-1.2373 -19.1895 -12.3799 -34.0459l-55.7119 -77.377v-4.95215q21.666 -6.19043 37.7598 -18.2617
q16.0947 -12.0703 26.6182 -27.2363t15.4756 -33.4268q4.95215 -18.2617 4.95215 -36.832q0 -29.7129 -9.28516 -58.4971t-29.7129 -51.3789q-20.4277 -22.5938 -52.3076 -36.5215q-31.8789 -13.9277 -75.8291 -13.9277q-34.0459 0 -58.4971 7.11816
q-24.4512 7.11914 -43.0225 17.0234q-19.1895 11.1416 -25.6895 31.5693q-6.49902 20.4277 2.16699 40.8555q4.33301 10.5234 12.999 17.9512q8.66699 7.42871 18.5713 11.1426t21.0459 3.4043q11.1426 -0.308594 21.666 -4.64258q9.9043 -4.95215 20.1182 -7.42773
q10.2139 -2.47656 20.7373 -2.47656q25.999 0 37.1406 11.7617q11.1426 11.7617 11.1426 27.8555q0 16.0947 -12.3799 28.4756q-12.3809 12.3799 -42.0938 12.3799h-4.33301q-6.80957 -0.619141 -12.6904 2.47656q-5.87988 3.09473 -8.97559 9.28516l-13.6182 32.8076
q-4.95215 10.5234 1.85742 19.8086l75.5195 102.757v5.57129h-61.2822q0 -12.3799 -4.02344 -21.3555q-4.02441 -8.97656 -10.833 -16.0947q-6.80957 -7.11914 -15.7852 -10.833t-19.499 -3.71387q-21.0469 0 -35.5938 14.5469t-14.5469 35.5938v50.7588z" />
    <glyph glyph-name="onesuperior" unicode="&#xb9;" horiz-adv-x="374" 
d="M88.6162 444q-21.666 0 -36.5225 14.8564t-14.8564 36.5225q0 21.0459 14.8564 36.2119t36.5225 15.166h50.1406v196.849q-8.66699 -14.2383 -22.9043 -27.8564q-16.7129 -14.8564 -38.3789 -12.999q-21.666 1.85645 -36.5225 18.5703q-14.2373 17.332 -12.6895 38.998
t18.8799 36.5225l83.5674 85.4248q21.666 22.2842 53.2363 22.2842q16.7129 0 30.3311 -5.57129q13.6191 -5.57129 24.1416 -16.0947q10.5234 -10.5225 16.4043 -24.1416q5.88086 -13.6182 5.88086 -29.7129v-282.272h37.7598q21.0469 0 36.2129 -15.166t15.166 -36.2119
q0 -21.666 -15.166 -36.5225t-36.2129 -14.8564h-209.847z" />
    <glyph glyph-name="onequarter" unicode="&#xbc;" horiz-adv-x="908" 
d="M292 0q-13 0 -21 11.5t-3 24.5l291 683q12 25 38 25h64q14 0 21.5 -11t3.5 -24l-292 -684q-10 -25 -38 -25h-64zM95.6328 290q-21.3408 0 -35.9746 14.666t-14.6338 36.0537q0 20.7773 14.6338 35.749q14.6338 14.9707 35.9746 14.9707h49.3887v194.325
q-8.53613 -14.0547 -22.5605 -27.499q-16.4629 -14.666 -37.8037 -12.832q-21.3408 1.83301 -35.9746 18.332q-14.0244 17.1104 -12.5 38.498q1.52441 21.3887 18.5977 36.0547l82.3145 84.3291q21.3408 21.999 52.4385 21.999q16.4629 0 29.877 -5.5t23.7793 -15.8877
q10.3662 -10.3887 16.1582 -23.833q5.79297 -13.4434 5.79297 -29.332v-278.654h37.1943q20.7314 0 35.6699 -14.9707q14.9385 -14.9717 14.9385 -35.749q0 -21.3877 -14.9385 -36.0537t-35.6699 -14.666h-206.702zM700.796 194.916q-17.6895 0 -29.8896 7.33301
q-12.1992 7.33203 -21.3496 16.1914q-9.14941 8.86035 -15.8594 16.1924t-12.8096 7.94336h-4.87988q-4.87988 0 -7.31934 -2.13867q-2.44043 -2.13867 -7.32031 -10.6934q-13.4199 -19.5527 -34.1592 -19.5527q-4.26953 0 -7.31934 0.611328
q2.43945 1.83301 2.43945 3.66602t-2.43945 4.88867q6.70996 1.83301 5.48926 7.33203q-1.21973 4.27734 -8.53906 3.05469q0 6.72168 -5.49023 6.72168q-4.87988 0 -4.87988 -6.72168q-7.32031 1.22266 -8.54004 -4.27637q-7.92969 12.8311 -7.92969 23.8291
q0 6.11035 1.52539 10.3877q1.52441 4.27734 3.35449 7.33203q24.3994 42.7725 61.6084 42.7725q24.3994 0 37.5146 -7.33301q13.1143 -7.33203 20.7393 -16.4971l14.0293 -16.498q6.40527 -7.33203 17.3848 -7.33203q9.75977 0 12.8096 7.33203
q10.3701 23.2188 33.5498 23.2188q17.6895 0 28.6689 -11.915t10.9795 -26.5791q0 -15.8867 -6.4043 -26.8848q-6.40527 -10.999 -16.4697 -18.3311q-10.0654 -7.33203 -21.96 -10.6924q-11.8945 -3.36133 -22.2646 -3.36133h-4.26953zM905.141 458.268
q0 -5.5 0.305664 -10.6934q0.304688 -5.19336 0.304688 -10.082q0 -14.0537 -4.87988 -25.9678q-4.87988 -11.915 -13.1143 -21.9971q-8.23535 -10.082 -18.6045 -18.6367q-10.3701 -8.55371 -21.96 -16.4971q-4.87988 -2.44434 -13.7246 -3.05566
q-8.84473 -0.610352 -17.9951 -1.83301q-1.21973 3.05566 -1.52441 5.19434t-0.304688 5.19336q0 8.55469 6.70996 25.9688q6.70898 17.4141 17.6895 31.4678q17.6895 21.9961 33.5488 29.6338q15.8594 7.63867 33.5488 11.3047zM622.107 227.301
q4.87988 -0.611328 11.2852 -7.94336q6.4043 -7.33203 15.8594 -15.8867t22.875 -15.5811q13.4189 -7.02637 32.9385 -7.02637q-0.609375 0 3.96484 -0.305664q4.5752 -0.305664 11.8955 0.610352q7.31934 0.916992 16.4688 3.05566q9.15039 2.13867 18.2998 6.41504
q17.0801 6.72168 27.4492 21.3867q10.3701 14.6641 10.3701 34.2168q0 25.6631 -17.6895 43.0771t-43.3086 17.4141q-19.5195 0 -34.7695 -10.3877q-15.25 -10.3867 -18.2998 -23.2188q-6.70996 3.05566 -14.0293 12.832q-7.32031 9.77637 -19.5195 19.5527
q17.6895 25.6631 43.3086 36.0498q25.6191 10.3877 53.0693 10.3877q13.4189 0 22.5693 -2.75q9.14941 -2.74902 17.0791 -6.41504t16.165 -6.41602q8.23438 -2.75 19.2139 -2.75q10.9805 0 18.9102 2.75t15.8594 6.41602t17.0801 6.41504q9.14941 2.75 23.1787 2.75
q26.8398 0 50.6289 -10.082q23.79 -10.082 45.1387 -35.1338q-14.0293 -9.16504 -24.0938 -18.3311q-10.0654 -9.16504 -16.4697 -20.1631q-6.40527 -10.999 -9.45508 -24.1357t-3.0498 -30.8564q0.610352 -23.8301 9.14941 -40.3271q8.54004 -16.498 19.2148 -27.1914
q10.6748 -10.6924 21.0449 -16.1914q10.3691 -5.49902 15.249 -7.33203l-17.3848 -34.5234q-7.62402 -14.9697 -14.6396 -26.2734q-7.01465 -11.3047 -14.0293 -20.4697t-15.5547 -17.1084l-8.23438 -8.55469t-9.45508 -7.33203t-13.4199 -5.19336t-20.1289 -2.13867
q-10.9805 0 -19.2148 2.74902l-11.8945 3.97168q-14.0303 6.72168 -21.96 9.16602q-7.92969 2.44336 -16.4697 2.44336q-7.92969 0 -16.4688 -2.44336q-8.54004 -2.44434 -22.5703 -9.16602l-10.6748 -4.27734q-7.62402 -3.05469 -17.9941 -3.05469
q-18.9092 0 -30.499 6.72168q-11.5898 6.7207 -16.4697 11.6094q-22.5693 18.3301 -35.6846 39.1055q-13.1143 20.7744 -25.9238 51.3252q-4.87988 8.55469 -9.15039 21.0811q-4.26953 12.5254 -7.31934 26.5791t-5.18457 29.0234q-2.13574 14.9707 -2.13574 29.0234
q0 3.05566 0.305664 6.41602q0.304688 3.36035 1.52441 6.41602h3.0498zM545.25 261.518q0 -3.05469 2.13477 -5.19336t5.18457 -2.13867t5.18457 2.13867q2.13574 2.13867 2.13574 5.19336q0 7.33203 -7.32031 7.33203q-3.0498 0 -5.18457 -2.1377
q-2.13477 -2.13867 -2.13477 -5.19434z" />
    <glyph glyph-name="foursuperior" unicode="&#x2074;" horiz-adv-x="404" 
d="M179.325 641.467q-17.9512 0 -30.332 7.42871q-12.3799 7.42773 -21.665 16.4033q-9.28613 8.97656 -16.0947 16.4043q-6.80957 7.42773 -13 8.04688h-4.95215q-4.95215 0 -7.42773 -2.16602q-2.47656 -2.16699 -7.42871 -10.833q-13.6182 -19.8086 -34.665 -19.8086
q-4.33301 0 -7.42773 0.619141q2.47559 1.85645 2.47559 3.71387t-2.47559 4.95215q6.80859 1.85742 5.57129 7.42871q-1.23828 4.33301 -8.66699 3.09473q0 6.80957 -5.57031 6.80957q-4.95215 0 -4.95215 -6.80957q-7.42871 1.23828 -8.66699 -4.33301
q-8.04688 12.999 -8.04688 24.1416q0 6.19043 1.54785 10.5234q1.54688 4.33301 3.4043 7.42773q24.7607 43.332 62.5205 43.332q24.7607 0 38.0703 -7.42871q13.3086 -7.42773 21.0459 -16.7129l14.2383 -16.7139q6.49902 -7.42871 17.6416 -7.42871
q9.9043 0 12.999 7.42871q10.5234 23.5225 34.0459 23.5225q17.9521 0 29.0947 -12.0703q11.1416 -12.0713 11.1416 -26.9277q0 -16.0947 -6.49902 -27.2363q-6.5 -11.1426 -16.7139 -18.5713q-10.2139 -7.42773 -22.2842 -10.833q-12.0713 -3.4043 -22.5947 -3.4043
h-4.33301zM386.696 908.264q0 -5.57129 0.30957 -10.833q0.30957 -5.26074 0.30957 -10.2139q0 -14.2373 -4.95215 -26.3076q-4.95215 -12.0713 -13.3086 -22.2852q-8.35742 -10.2139 -18.8809 -18.8799q-10.5225 -8.66602 -22.2842 -16.7129
q-4.95215 -2.47656 -13.9277 -3.0957t-18.2607 -1.85742q-1.23828 3.0957 -1.54785 5.26172q-0.30957 2.16699 -0.30957 5.26172q0 8.66699 6.80859 26.3086q6.80957 17.6426 17.9521 31.8799q17.9512 22.2842 34.0459 30.0225q16.0947 7.7373 34.0459 11.4512z
M99.4717 674.275q4.95215 -0.619141 11.4521 -8.04785q6.5 -7.42773 16.0947 -16.0947q9.59473 -8.66602 23.2129 -15.7842q13.6182 -7.11914 33.4268 -7.11914q-0.619141 0 4.02344 -0.30957t12.0713 0.619141q7.42773 0.928711 16.7139 3.09473
q9.28516 2.16699 18.5703 6.5q17.332 6.80957 27.8555 21.666t10.5234 34.665q0 25.998 -17.9512 43.6406q-17.9521 17.6416 -43.9512 17.6416q-19.8086 0 -35.2832 -10.5234q-15.4756 -10.5225 -18.5713 -23.5225q-6.80859 3.0957 -14.2373 13
q-7.42773 9.9043 -19.8086 19.8086q17.9521 25.998 43.9502 36.5215q25.999 10.5234 53.8545 10.5234q13.6191 0 22.9043 -2.78516q9.28516 -2.78613 17.332 -6.5q8.04785 -3.71387 16.4043 -6.5q8.35645 -2.78516 19.499 -2.78516t19.1895 2.78516
q8.04785 2.78613 16.0947 6.5t17.332 6.5q9.28613 2.78516 23.5234 2.78516q27.2363 0 51.3779 -10.2139t45.8076 -35.5938q-14.2373 -9.28516 -24.4512 -18.5703t-16.7139 -20.4277q-6.49902 -11.1426 -9.59473 -24.4512q-3.09473 -13.3086 -3.09473 -31.2607
q0.619141 -24.1416 9.28516 -40.8545q8.66602 -16.7139 19.499 -27.5469t21.3564 -16.4033q10.5234 -5.57129 15.4756 -7.42871l-17.6426 -34.9746q-7.7373 -15.166 -14.8564 -26.6182q-7.11816 -11.4512 -14.2373 -20.7363q-7.11816 -9.28516 -15.7852 -17.333
l-8.35645 -8.66602t-9.59473 -7.42871q-5.57129 -3.09473 -13.6182 -5.26172q-8.04785 -2.16602 -20.4277 -2.16602q-11.1426 0 -19.499 2.78516l-12.0713 4.02344q-14.2373 6.80957 -22.2842 9.28613q-8.04785 2.47559 -16.7139 2.47559q-8.04688 0 -16.7139 -2.47559
q-8.66602 -2.47656 -22.9033 -9.28613l-10.833 -4.33301q-7.7373 -3.09473 -18.2607 -3.09473q-19.1895 0 -30.9512 6.80957q-11.7607 6.80859 -16.7129 11.7607q-22.9043 18.5703 -36.2129 39.6172t-26.3086 51.998q-4.95215 8.66602 -9.28516 21.3555
q-4.33301 12.6904 -7.42773 26.9277q-3.0957 14.2373 -5.26172 29.4033q-2.16699 15.166 -2.16699 29.4033q0 3.0957 0.30957 6.5t1.54785 6.5h3.09473zM21.4756 708.939q0 -3.09473 2.16602 -5.26074q2.16699 -2.16699 5.26172 -2.16699q3.0957 0 5.26172 2.16699
q2.16699 2.16602 2.16699 5.26074q0 7.42871 -7.42871 7.42871q-3.09473 0 -5.26172 -2.16699q-2.16602 -2.16602 -2.16602 -5.26172z" />
    <glyph glyph-name="onehalf" unicode="&#xbd;" horiz-adv-x="913" 
d="M95.6328 290q-21.3408 0 -35.9746 14.666t-14.6338 36.0537q0 20.7773 14.6338 35.749q14.6338 14.9707 35.9746 14.9707h49.3887v194.325q-8.53613 -14.0547 -22.5605 -27.499q-16.4629 -14.666 -37.8037 -12.832q-21.3408 1.83301 -35.9746 18.332
q-14.0244 17.1104 -12.5 38.498q1.52441 21.3887 18.5977 36.0547l82.3145 84.3291q21.3408 21.999 52.4385 21.999q16.4629 0 29.877 -5.5t23.7793 -15.8877q10.3662 -10.3887 16.1582 -23.833q5.79297 -13.4434 5.79297 -29.332v-278.654h37.1943
q20.7314 0 35.6699 -14.9707q14.9385 -14.9717 14.9385 -35.749q0 -21.3877 -14.9385 -36.0537t-35.6699 -14.666h-206.702zM292 0q-13 0 -21 11.5t-3 24.5l291 683q12 25 38 25h64q14 0 21.5 -11t3.5 -24l-292 -684q-10 -25 -38 -25h-64zM731.796 194.916
q-17.6895 0 -29.8896 7.33301q-12.1992 7.33203 -21.3496 16.1914q-9.14941 8.86035 -15.8594 16.1924t-12.8096 7.94336h-4.87988q-4.87988 0 -7.31934 -2.13867q-2.44043 -2.13867 -7.32031 -10.6934q-13.4199 -19.5527 -34.1592 -19.5527q-4.26953 0 -7.31934 0.611328
q2.43945 1.83301 2.43945 3.66602t-2.43945 4.88867q6.70996 1.83301 5.48926 7.33203q-1.21973 4.27734 -8.53906 3.05469q0 6.72168 -5.49023 6.72168q-4.87988 0 -4.87988 -6.72168q-7.32031 1.22266 -8.54004 -4.27637q-7.92969 12.8311 -7.92969 23.8291
q0 6.11035 1.52539 10.3877q1.52441 4.27734 3.35449 7.33203q24.3994 42.7725 61.6084 42.7725q24.3994 0 37.5146 -7.33301q13.1143 -7.33203 20.7393 -16.4971l14.0293 -16.498q6.40527 -7.33203 17.3848 -7.33203q9.75977 0 12.8096 7.33203
q10.3701 23.2188 33.5498 23.2188q17.6895 0 28.6689 -11.915t10.9795 -26.5791q0 -15.8867 -6.4043 -26.8848q-6.40527 -10.999 -16.4697 -18.3311q-10.0654 -7.33203 -21.96 -10.6924q-11.8945 -3.36133 -22.2646 -3.36133h-4.26953zM936.141 458.268
q0 -5.5 0.305664 -10.6934q0.304688 -5.19336 0.304688 -10.082q0 -14.0537 -4.87988 -25.9678q-4.87988 -11.915 -13.1143 -21.9971q-8.23535 -10.082 -18.6045 -18.6367q-10.3701 -8.55371 -21.96 -16.4971q-4.87988 -2.44434 -13.7246 -3.05566
q-8.84473 -0.610352 -17.9951 -1.83301q-1.21973 3.05566 -1.52441 5.19434t-0.304688 5.19336q0 8.55469 6.70996 25.9688q6.70898 17.4141 17.6895 31.4678q17.6895 21.9961 33.5488 29.6338q15.8594 7.63867 33.5488 11.3047zM653.107 227.301
q4.87988 -0.611328 11.2852 -7.94336q6.4043 -7.33203 15.8594 -15.8867t22.875 -15.5811q13.4189 -7.02637 32.9385 -7.02637q-0.609375 0 3.96484 -0.305664q4.5752 -0.305664 11.8955 0.610352q7.31934 0.916992 16.4688 3.05566q9.15039 2.13867 18.2998 6.41504
q17.0801 6.72168 27.4492 21.3867q10.3701 14.6641 10.3701 34.2168q0 25.6631 -17.6895 43.0771t-43.3086 17.4141q-19.5195 0 -34.7695 -10.3877q-15.25 -10.3867 -18.2998 -23.2188q-6.70996 3.05566 -14.0293 12.832q-7.32031 9.77637 -19.5195 19.5527
q17.6895 25.6631 43.3086 36.0498q25.6191 10.3877 53.0693 10.3877q13.4189 0 22.5693 -2.75q9.14941 -2.74902 17.0791 -6.41504t16.165 -6.41602q8.23438 -2.75 19.2139 -2.75q10.9805 0 18.9102 2.75t15.8594 6.41602t17.0801 6.41504q9.14941 2.75 23.1787 2.75
q26.8398 0 50.6289 -10.082q23.79 -10.082 45.1387 -35.1338q-14.0293 -9.16504 -24.0938 -18.3311q-10.0654 -9.16504 -16.4697 -20.1631q-6.40527 -10.999 -9.45508 -24.1357t-3.0498 -30.8564q0.610352 -23.8301 9.14941 -40.3271q8.54004 -16.498 19.2148 -27.1914
q10.6748 -10.6924 21.0449 -16.1914q10.3691 -5.49902 15.249 -7.33203l-17.3848 -34.5234q-7.62402 -14.9697 -14.6396 -26.2734q-7.01465 -11.3047 -14.0293 -20.4697t-15.5547 -17.1084l-8.23438 -8.55469t-9.45508 -7.33203t-13.4199 -5.19336t-20.1289 -2.13867
q-10.9805 0 -19.2148 2.74902l-11.8945 3.97168q-14.0303 6.72168 -21.96 9.16602q-7.92969 2.44336 -16.4697 2.44336q-7.92969 0 -16.4688 -2.44336q-8.54004 -2.44434 -22.5703 -9.16602l-10.6748 -4.27734q-7.62402 -3.05469 -17.9941 -3.05469
q-18.9092 0 -30.499 6.72168q-11.5898 6.7207 -16.4697 11.6094q-22.5693 18.3301 -35.6846 39.1055q-13.1143 20.7744 -25.9238 51.3252q-4.87988 8.55469 -9.15039 21.0811q-4.26953 12.5254 -7.31934 26.5791t-5.18457 29.0234q-2.13574 14.9707 -2.13574 29.0234
q0 3.05566 0.305664 6.41602q0.304688 3.36035 1.52441 6.41602h3.0498zM576.25 261.518q0 -3.05469 2.13477 -5.19336t5.18457 -2.13867t5.18457 2.13867q2.13574 2.13867 2.13574 5.19336q0 7.33203 -7.32031 7.33203q-3.0498 0 -5.18457 -2.1377
q-2.13477 -2.13867 -2.13477 -5.19434z" />
    <glyph glyph-name="threequarters" unicode="&#xbe;" horiz-adv-x="897" 
d="M683.796 194.916q-17.6895 0 -29.8896 7.33301q-12.1992 7.33203 -21.3496 16.1914q-9.14941 8.86035 -15.8594 16.1924t-12.8096 7.94336h-4.87988q-4.87988 0 -7.31934 -2.13867q-2.44043 -2.13867 -7.32031 -10.6934q-13.4199 -19.5527 -34.1592 -19.5527
q-4.26953 0 -7.31934 0.611328q2.43945 1.83301 2.43945 3.66602t-2.43945 4.88867q6.70996 1.83301 5.48926 7.33203q-1.21973 4.27734 -8.53906 3.05469q0 6.72168 -5.49023 6.72168q-4.87988 0 -4.87988 -6.72168q-7.32031 1.22266 -8.54004 -4.27637
q-7.92969 12.8311 -7.92969 23.8291q0 6.11035 1.52539 10.3877q1.52441 4.27734 3.35449 7.33203q24.3994 42.7725 61.6084 42.7725q24.3994 0 37.5146 -7.33301q13.1143 -7.33203 20.7393 -16.4971l14.0293 -16.498q6.40527 -7.33203 17.3848 -7.33203
q9.75977 0 12.8096 7.33203q10.3701 23.2188 33.5498 23.2188q17.6895 0 28.6689 -11.915t10.9795 -26.5791q0 -15.8867 -6.4043 -26.8848q-6.40527 -10.999 -16.4697 -18.3311q-10.0654 -7.33203 -21.96 -10.6924q-11.8945 -3.36133 -22.2646 -3.36133h-4.26953z
M888.141 458.268q0 -5.5 0.305664 -10.6934q0.304688 -5.19336 0.304688 -10.082q0 -14.0537 -4.87988 -25.9678q-4.87988 -11.915 -13.1143 -21.9971q-8.23535 -10.082 -18.6045 -18.6367q-10.3701 -8.55371 -21.96 -16.4971q-4.87988 -2.44434 -13.7246 -3.05566
q-8.84473 -0.610352 -17.9951 -1.83301q-1.21973 3.05566 -1.52441 5.19434t-0.304688 5.19336q0 8.55469 6.70996 25.9688q6.70898 17.4141 17.6895 31.4678q17.6895 21.9961 33.5488 29.6338q15.8594 7.63867 33.5488 11.3047zM605.107 227.301
q4.87988 -0.611328 11.2852 -7.94336q6.4043 -7.33203 15.8594 -15.8867t22.875 -15.5811q13.4189 -7.02637 32.9385 -7.02637q-0.609375 0 3.96484 -0.305664q4.5752 -0.305664 11.8955 0.610352q7.31934 0.916992 16.4688 3.05566q9.15039 2.13867 18.2998 6.41504
q17.0801 6.72168 27.4492 21.3867q10.3701 14.6641 10.3701 34.2168q0 25.6631 -17.6895 43.0771t-43.3086 17.4141q-19.5195 0 -34.7695 -10.3877q-15.25 -10.3867 -18.2998 -23.2188q-6.70996 3.05566 -14.0293 12.832q-7.32031 9.77637 -19.5195 19.5527
q17.6895 25.6631 43.3086 36.0498q25.6191 10.3877 53.0693 10.3877q13.4189 0 22.5693 -2.75q9.14941 -2.74902 17.0791 -6.41504t16.165 -6.41602q8.23438 -2.75 19.2139 -2.75q10.9805 0 18.9102 2.75t15.8594 6.41602t17.0801 6.41504q9.14941 2.75 23.1787 2.75
q26.8398 0 50.6289 -10.082q23.79 -10.082 45.1387 -35.1338q-14.0293 -9.16504 -24.0938 -18.3311q-10.0654 -9.16504 -16.4697 -20.1631q-6.40527 -10.999 -9.45508 -24.1357t-3.0498 -30.8564q0.610352 -23.8301 9.14941 -40.3271q8.54004 -16.498 19.2148 -27.1914
q10.6748 -10.6924 21.0449 -16.1914q10.3691 -5.49902 15.249 -7.33203l-17.3848 -34.5234q-7.62402 -14.9697 -14.6396 -26.2734q-7.01465 -11.3047 -14.0293 -20.4697t-15.5547 -17.1084l-8.23438 -8.55469t-9.45508 -7.33203t-13.4199 -5.19336t-20.1289 -2.13867
q-10.9805 0 -19.2148 2.74902l-11.8945 3.97168q-14.0303 6.72168 -21.96 9.16602q-7.92969 2.44336 -16.4697 2.44336q-7.92969 0 -16.4688 -2.44336q-8.54004 -2.44434 -22.5703 -9.16602l-10.6748 -4.27734q-7.62402 -3.05469 -17.9941 -3.05469
q-18.9092 0 -30.499 6.72168q-11.5898 6.7207 -16.4697 11.6094q-22.5693 18.3301 -35.6846 39.1055q-13.1143 20.7744 -25.9238 51.3252q-4.87988 8.55469 -9.15039 21.0811q-4.26953 12.5254 -7.31934 26.5791t-5.18457 29.0234q-2.13574 14.9707 -2.13574 29.0234
q0 3.05566 0.305664 6.41602q0.304688 3.36035 1.52441 6.41602h3.0498zM528.25 261.518q0 -3.05469 2.13477 -5.19336t5.18457 -2.13867t5.18457 2.13867q2.13574 2.13867 2.13574 5.19336q0 7.33203 -7.32031 7.33203q-3.0498 0 -5.18457 -2.1377
q-2.13477 -2.13867 -2.13477 -5.19434zM275 0q-13 0 -21 11.5t-3 24.5l291 683q12 25 38 25h64q14 0 21.5 -11t3.5 -24l-292 -684q-10 -25 -38 -25h-64zM34.3994 693.886q0 21.3857 14.9443 36.0508q14.9453 14.665 36.2949 14.665h160.426q16.4697 0 30.499 -5.5
q14.0303 -5.49902 24.0947 -15.5811t15.5547 -23.8291q5.48926 -13.748 4.26953 -29.6348q-1.21973 -18.9424 -12.1992 -33.6064l-54.8994 -76.3779v-4.88867q21.3496 -6.10938 37.21 -18.0244q15.8594 -11.915 26.2285 -26.8857q10.3701 -14.9697 15.25 -32.9951
t4.87988 -36.3555q0 -29.3291 -9.14941 -57.7422q-9.15039 -28.4121 -29.2793 -50.7148q-20.1299 -22.3018 -51.5439 -36.0498t-74.7236 -13.748q-33.5488 0 -57.6436 7.02637q-24.0947 7.02734 -42.3936 16.8037q-18.9102 10.998 -25.3145 31.1621
q-6.40527 20.1631 2.13477 40.3271q4.26953 10.3877 12.8096 17.7197t18.2998 10.998t20.7393 3.36133q10.9795 -0.305664 21.3496 -4.58301q9.75977 -4.88867 19.8242 -7.33203q10.0654 -2.44434 20.4346 -2.44434q25.6191 0 36.5996 11.6094
q10.9795 11.6094 10.9795 27.4961t-12.2002 28.1074q-12.1992 12.2197 -41.4785 12.2197h-4.26953q-6.70996 -0.610352 -12.5049 2.44434t-8.84473 9.16504l-13.4199 32.3848q-4.87988 10.3877 1.83008 19.5527l74.418 101.43v5.49902h-60.3887
q0 -12.2207 -3.96484 -21.0801q-3.96484 -8.86035 -10.6748 -15.8867t-15.5547 -10.6934q-8.84473 -3.66602 -19.2139 -3.66602q-20.7402 0 -35.0742 14.3594q-14.335 14.3594 -14.335 35.1338v50.1035z" />
    <glyph glyph-name="Eth" unicode="&#xd0;" horiz-adv-x="750" 
d="M98 0q-32 0 -54 22t-22 53q0 32 22 54t54 22h18v133h-10q-17 0 -32.5 6.5t-26.5 18t-17.5 26.5t-6.5 32q0 34 24 58.5t59 24.5h10v142h-18q-32 0 -54 22t-22 54t22 54t54 22h271q83 0 150 -24.5t113.5 -72t71 -116.5t24.5 -157q0 -87 -24.5 -156t-71 -117.5t-113.5 -74.5
t-150 -26h-271zM363 166q72 0 112.5 52.5t40.5 155.5q0 104 -42 154.5t-111 50.5h-42v-129h35q35 0 59.5 -24.5t24.5 -58.5q0 -17 -6.5 -32t-18 -26.5t-27 -18t-32.5 -6.5h-35v-118h42z" />
    <glyph glyph-name="multiply" unicode="&#xd7;" horiz-adv-x="529" 
d="M471 205q12 -12 18.5 -28t7 -33t-6 -33t-19.5 -29q-12 -12 -28 -19t-33 -7t-33.5 7t-28.5 19l-72 71l-74 -74q-14 -15 -32.5 -22t-37.5 -7t-37.5 7.5t-32.5 21.5q-15 15 -22 33t-7 37t7 37t22 33l73 73l-71 73q-12 12 -18.5 28.5t-6.5 33t6.5 33t18.5 28.5q12 13 28.5 19
t33.5 6.5t33 -6t29 -19.5l71 -72l74 74q14 14 32 21.5t37 7t37.5 -7.5t32.5 -21q15 -15 22 -33.5t7 -37t-7 -36.5t-22 -33l-73 -74z" />
    <glyph glyph-name="Thorn" unicode="&#xde;" horiz-adv-x="574" 
d="M99 0q-32 0 -54 22t-22 53q0 32 22 54t54 22h17v441h-17q-32 0 -54 22t-22 54t22 54t54 22h253q32 0 54 -22t22 -54t-22 -54t-54 -22h-35v-55h35q104 0 154.5 -44t50.5 -118q0 -77 -50.5 -123.5t-154.5 -46.5h-35v-54h35q32 0 54 -22t22 -54q0 -31 -22 -53t-54 -22h-253z
M354 332q37 0 48 11t11 30q0 17 -10.5 27t-44.5 10h-41v-78h37z" />
    <glyph glyph-name="eth" unicode="&#xf0;" horiz-adv-x="562" 
d="M19 245q0 46 15.5 88.5t43 75t66 51t85.5 18.5q35 -1 57 -7l8 3q-9 13 -16.5 21t-16.5 16t-34 26l-59 -25l-46 -20.5t-36 -14.5q-5 -3 -9 -4q-14 -4 -26.5 3.5t-16.5 22.5q-5 14 3 26t22 17l88 37l-37 18q-30 16 -40.5 48t2.5 63q7 17 19.5 28.5t28.5 17.5t33.5 6
t34.5 -6q47 -17 89 -37.5t75 -43.5l107 49q19 7 33 -0.5t18 -21.5q5 -15 -2 -26.5t-16 -16t-20 -9.5l-24 -11q-15 -6 -32 -14v-7q56 -63 88.5 -144t32.5 -173q0 -56 -14 -111t-45 -99.5t-80 -72.5t-120 -28q-64 0 -112.5 22t-80.5 58t-49 82t-17 95zM221 239
q0 -13 2.5 -27.5t8.5 -26t16 -19t26 -7.5q18 0 30 8.5t19 21.5t10 29.5t3 32.5q0 72 -54 72q-31 0 -46 -22t-15 -62z" />
    <glyph glyph-name="thorn" unicode="&#xfe;" horiz-adv-x="616" 
d="M253 266q0 -31 6 -52t16.5 -33.5t22.5 -17.5t25 -5q23 0 39 10t26 26t14 36t4 40t-4 39.5t-13.5 34.5t-24.5 24.5t-37 9.5q-14 0 -27.5 -5t-24 -18t-16.5 -34.5t-6 -54.5zM55 602q-31 0 -52.5 21.5t-21.5 51.5t21.5 51.5t52.5 21.5h120q36 0 59.5 -24.5t23.5 -58.5v-160
l30 22q13 8 35 15.5t53 7.5q52 0 94.5 -22t72.5 -60t47 -89.5t17 -109.5t-16.5 -109.5t-46 -90t-72 -60.5t-94.5 -22q-32 0 -55 5.5t-36 13.5q-8 4 -16.5 9.5t-13.5 10.5v-91q31 0 52.5 -21.5t21.5 -51.5t-21.5 -52t-51.5 -22h-197q-30 0 -51.5 22t-21.5 52t21.5 51.5
t51.5 21.5v667h-6z" />
    <glyph glyph-name="commaaccent" unicode="&#xf6c3;" horiz-adv-x="315" 
d="M103 -95q-1 16 8 29t25 13h88q12 0 21 -8t11 -20q1 -7 1.5 -14t0.5 -15q0 -63 -33.5 -102.5t-84.5 -57.5q-13 -4 -25 7l-30 29q-11 9 -9 20.5t10 22.5q20 29 20 69q0 13 -3 27z" />
    <glyph glyph-name="Dcroat" unicode="&#x110;" horiz-adv-x="750" 
d="M98 0q-32 0 -54 22t-22 53q0 32 22 54t54 22h18v133h-10q-17 0 -32.5 6.5t-26.5 18t-17.5 26.5t-6.5 32q0 34 24 58.5t59 24.5h10v142h-18q-32 0 -54 22t-22 54t22 54t54 22h271q83 0 150 -24.5t113.5 -72t71 -116.5t24.5 -157q0 -87 -24.5 -156t-71 -117.5t-113.5 -74.5
t-150 -26h-271zM363 166q72 0 112.5 52.5t40.5 155.5q0 104 -42 154.5t-111 50.5h-42v-129h35q35 0 59.5 -24.5t24.5 -58.5q0 -17 -6.5 -32t-18 -26.5t-27 -18t-32.5 -6.5h-35v-118h42z" />
    <glyph glyph-name="Lslash" unicode="&#x141;" horiz-adv-x="610" 
d="M104 0q-32 0 -54 22t-22 53q0 32 22 54t54 22h12v69l-23 -13q-8 -5 -17 -4.5t-16.5 4.5t-12.5 12t-5 17v85q0 19 17 29l57 34v195h-12q-34 0 -58 24t-24 59t24 58.5t58 23.5h230q34 0 58 -23.5t24 -58.5t-24 -59t-58 -24h-13v-73l90 52q17 10 34 0.5t17 -29.5v-84
q0 -19 -16 -30l-125 -73v-176h119v45q0 32 23.5 55.5t56.5 23.5t56.5 -23.5t23.5 -55.5v-127q0 -35 -24.5 -59.5t-59.5 -24.5h-412v0z" />
    <glyph glyph-name="lslash" unicode="&#x142;" horiz-adv-x="360" 
d="M43 211q-13 -8 -25.5 -0.5t-12.5 22.5v110q0 20 17 29l46 27v204q-30 0 -52 21.5t-22 51.5t22 51.5t52 21.5h115q35 0 59.5 -24.5t24.5 -58.5v-148l45 27q13 8 26.5 1t13.5 -23v-109q0 -20 -17 -30l-68 -40v-109q0 -55 15 -66q29 -14 42.5 -41t8.5 -58q-4 -19 -14 -34
t-24.5 -25t-32.5 -14.5t-42.5 -0.5t-53 15.5t-50.5 36t-35 66.5t-13 111z" />
    <glyph glyph-name="Eng" unicode="&#x14a;" horiz-adv-x="816" 
d="M719 -15q0 -62 -23.5 -100.5t-58 -60.5t-74 -30.5t-72.5 -10.5q-34 -3 -61 17.5t-31 54.5q-3 17 1 33.5t13.5 29.5t24 22t31.5 12q16 4 28.5 12t18.5 24v4l-165 338l-31 89h-5l6 -99v-169h22q31 0 53 -22t22 -54q0 -31 -22 -53t-53 -22h-244q-32 0 -54 22t-22 53
q0 32 22 54t54 22h17v441h-17q-32 0 -54 22t-22 54q0 31 22 53.5t54 22.5h174q24 0 44 -12.5t31 -34.5l135 -284l32 -90h5l-7 99v170h-22q-32 0 -54 22t-22 54q0 31 22 53.5t54 22.5h245q31 0 53.5 -22.5t22.5 -53.5q0 -32 -22.5 -54t-53.5 -22h-17v-607z" />
    <glyph glyph-name="eng" unicode="&#x14b;" horiz-adv-x="650" 
d="M81 0q-30 0 -51.5 21.5t-21.5 51.5t21.5 52t51.5 22h7v217q0 27 -21 27q-30 0 -52 21.5t-22 51.5t22 52t52 22h140q36 0 54 -16t18 -42v-31q10 27 32 52q18 19 48 34.5t80 15.5q32 0 62 -9t54 -31.5t38.5 -60.5t14.5 -97v-368q0 -56 -19 -93.5t-49.5 -60t-66.5 -33
t-69 -14.5q-31 -7 -58 8.5t-40 45.5q-6 17 -5 34.5t8 33t19 27.5t29 19q19 4 34.5 14.5t15.5 35.5v309q0 30 -11.5 40.5t-31.5 10.5q-22 0 -36.5 -12.5t-23 -33t-12 -45t-3.5 -47.5v-77h14q30 0 51.5 -22t21.5 -52t-21.5 -51.5t-51.5 -21.5h-222z" />
    <glyph glyph-name="obreve" unicode="&#x14f;" horiz-adv-x="598" 
d="M13 267q0 64 22.5 116t61.5 89.5t91.5 58t112.5 20.5t113 -20.5t92 -58t61.5 -89.5t22.5 -116t-22.5 -115.5t-61.5 -88t-91.5 -56t-112.5 -19.5t-112.5 19.5t-92 56t-62 88t-22.5 115.5zM215 267q0 -54 26 -81t61 -27t60.5 27t25.5 81q0 53 -25.5 82.5t-60.5 29.5
t-61 -29.5t-26 -82.5zM301 582q-54 0 -97.5 21.5t-67.5 62.5q-2 4 -3 6.5t-2 5.5q-7 25 5.5 48t37.5 30q24 8 47 -5t31 -37q7 -19 20.5 -28t28.5 -9q14 0 28 9t21 28q8 24 30.5 37t47.5 5q25 -7 37.5 -30t5.5 -48q-1 -3 -2 -5.5t-3 -6.5q-23 -41 -67.5 -62.5t-97.5 -21.5z
" />
    <glyph glyph-name="ohungarumlaut" unicode="&#x151;" horiz-adv-x="598" 
d="M13 267q0 64 22.5 116t61.5 89.5t91.5 58t112.5 20.5t113 -20.5t92 -58t61.5 -89.5t22.5 -116t-22.5 -115.5t-61.5 -88t-91.5 -56t-112.5 -19.5t-112.5 19.5t-92 56t-62 88t-22.5 115.5zM215 267q0 -54 26 -81t61 -27t60.5 27t25.5 81q0 53 -25.5 82.5t-60.5 29.5
t-61 -29.5t-26 -82.5zM373 589q-14 0 -22 11.5t-1 25.5l52 109q8 15 24 15h111q15 0 22.5 -14.5t-2.5 -27.5l-78 -109q-7 -10 -20 -10h-86zM149 589q-13 0 -21 11.5t-2 25.5l50 109q5 15 23 15h95q15 0 22.5 -12t1.5 -25l-52 -109q-3 -8 -9 -11.5t-14 -3.5h-94z" />
    <glyph glyph-name="Tbar" unicode="&#x166;" horiz-adv-x="668" 
d="M149 275q-28 0 -46.5 19t-18.5 46q0 28 18.5 46.5t46.5 18.5h85v174h-45v-20q0 -35 -25 -60t-61 -25q-35 0 -60 25t-25 60v102q0 35 24.5 59t59.5 24h470q34 0 58.5 -24t24.5 -59v-102q0 -35 -25 -59.5t-60 -24.5q-36 0 -60.5 24.5t-24.5 59.5v20h-45v-174h85
q28 0 46.5 -18.5t18.5 -46.5q0 -27 -18.5 -46t-46.5 -19h-85v-124h11q32 0 54 -22t22 -54q0 -31 -22 -53t-54 -22h-228q-32 0 -54 22t-22 53q0 32 22 54t54 22h11v124h-85z" />
    <glyph glyph-name="tbar" unicode="&#x167;" horiz-adv-x="403" 
d="M75 218q-25 0 -43 18t-18 43q0 26 18 43.5t43 17.5v64q-27 0 -47 19.5t-20 47.5q0 27 20 47t47 20h8v93q0 19 7.5 37t20.5 31.5t31 21t38 7.5q19 0 37 -7.5t31 -21t20.5 -31.5t7.5 -37v-93h55q27 0 47 -20t20 -47q0 -28 -20 -47.5t-47 -19.5h-55v-64h49q26 0 43.5 -17.5
t17.5 -43.5q0 -25 -17.5 -43t-43.5 -18h-51v-6q3 -19 14.5 -28.5t26.5 -14.5q17 -4 31 -13.5t23 -24t12 -31t0 -34.5q-7 -31 -31 -51t-55 -20q-5 0 -9.5 0.5t-23.5 3t-53.5 13.5t-63 34t-47.5 59.5t-22 91.5z" />
    <glyph glyph-name="longs" unicode="&#x17f;" horiz-adv-x="374" 
d="M292 147h12q30 0 51.5 -22t21.5 -52t-21.5 -51.5t-51.5 -21.5h-216q-30 0 -51.5 21.5t-21.5 51.5t21.5 52t51.5 22h4v244h-8q-30 0 -52 21.5t-22 51.5t22 52t52 22h8v25q0 62 22 100.5t55.5 60.5t71.5 30t71 10q31 1 54.5 -18t29.5 -49q3 -17 -1 -32.5t-13 -28.5t-22 -22
t-30 -11q-22 -3 -30 -11.5t-8 -23.5v-421z" />
    <glyph glyph-name="minus" unicode="&#x2212;" horiz-adv-x="600" 
d="M28 299q0 32 22 54t54 22h398q32 0 54 -22t22 -54t-22 -54t-54 -22h-398q-32 0 -54 22t-22 54z" />
    <glyph glyph-name="apple" unicode="&#xf8ff;" horiz-adv-x="810" 
d="M280 319q-29 0 -49 12t-35 26.5t-26 26.5t-21 13h-8q-8 0 -12 -3.5t-12 -17.5q-22 -32 -56 -32q-7 0 -12 1q4 3 4 6t-4 8q11 3 9 12q-2 7 -14 5q0 11 -9 11q-8 0 -8 -11q-12 2 -14 -7q-13 21 -13 39q0 10 2.5 17t5.5 12q40 70 101 70q40 0 61.5 -12t34 -27l23 -27
t28.5 -12q16 0 21 12q17 38 55 38q29 0 47 -19.5t18 -43.5q0 -26 -10.5 -44t-27 -30t-36 -17.5t-36.5 -5.5h-7zM615 750q0 -9 0.5 -17.5t0.5 -16.5q0 -23 -8 -42.5t-21.5 -36t-30.5 -30.5t-36 -27q-8 -4 -22.5 -5t-29.5 -3q-2 5 -2.5 8.5t-0.5 8.5q0 14 11 42.5t29 51.5
q29 36 55 48.5t55 18.5zM151 372q8 -1 18.5 -13t26 -26t37.5 -25.5t54 -11.5q-1 0 6.5 -0.5t19.5 1t27 5t30 10.5q28 11 45 35t17 56q0 42 -29 70.5t-71 28.5q-32 0 -57 -17t-30 -38q-11 5 -23 21t-32 32q29 42 71 59t87 17q22 0 37 -4.5t28 -10.5t26.5 -10.5t31.5 -4.5
t31 4.5t26 10.5t28 10.5t38 4.5q44 0 83 -16.5t74 -57.5q-23 -15 -39.5 -30t-27 -33t-15.5 -39.5t-5 -50.5q1 -39 15 -66t31.5 -44.5t34.5 -26.5t25 -12l-28.5 -56.5t-24 -43t-23 -33.5t-25.5 -28l-13.5 -14t-15.5 -12t-22 -8.5t-33 -3.5q-18 0 -31.5 4.5l-19.5 6.5
q-23 11 -36 15t-27 4q-13 0 -27 -4t-37 -15l-17.5 -7t-29.5 -5q-31 0 -50 11t-27 19q-37 30 -58.5 64t-42.5 84q-8 14 -15 34.5t-12 43.5t-8.5 47.5t-3.5 47.5q0 5 0.5 10.5t2.5 10.5h5zM25 428q0 -5 3.5 -8.5t8.5 -3.5t8.5 3.5t3.5 8.5q0 12 -12 12q-5 0 -8.5 -3.5
t-3.5 -8.5z" />
    <glyph glyph-name="hyphen.case" horiz-adv-x="415" 
d="M138 272q-19 0 -35 7t-28 19t-19 28t-7 35t7 35.5t19 28.5t28 19t35 7h146q37 0 63.5 -26t26.5 -64q0 -19 -7 -35t-19 -28t-28.5 -19t-35.5 -7h-146z" />
    <glyph glyph-name="parenleft.case" horiz-adv-x="348" 
d="M314 13q17 -24 12.5 -53t-28.5 -47q-12 -10 -26.5 -13t-28.5 -1.5t-26.5 8.5t-22.5 20q-40 46 -74.5 96t-59.5 105.5t-39.5 116.5t-14.5 129t15 129.5t40.5 118t60 106t73.5 94.5q17 21 44.5 26t51.5 -9q27 -16 34.5 -45.5t-8.5 -55.5q-30 -42 -53.5 -81t-40 -81.5
t-26 -91.5t-9.5 -110q0 -64 10.5 -116t28.5 -96t40.5 -80.5t46.5 -68.5z" />
    <glyph glyph-name="parenright.case" horiz-adv-x="347" 
d="M35.0215 13q-16.999 -24 -12.499 -53q4.49902 -29 28.498 -47q11.999 -10 26.498 -13t28.498 -1.5t26.499 8.5q12.499 7 22.498 20q39.998 46 74.4961 96q34.4971 50 59.4961 105.5q24.998 55.5 39.4971 116.5t14.499 129t-14.999 129.5t-40.4971 118t-59.9961 106
t-73.4961 94.5q-16.999 21 -44.4971 26t-51.4971 -9q-26.998 -16 -34.498 -45.5q-7.49902 -29.5 8.5 -55.5q29.998 -42 53.4971 -81q23.498 -39 39.9971 -81.5t25.998 -91.5q9.5 -49 9.5 -110q0 -64 -10.499 -116q-10.5 -52 -28.499 -96t-40.4971 -80.5
q-22.499 -36.5 -46.4971 -68.5z" />
    <glyph glyph-name="bracketleft.case" horiz-adv-x="362" 
d="M154 -68q-35 0 -59.5 24.5t-24.5 59.5v718q0 35 24.5 59.5t59.5 24.5h125q30 0 50.5 -20.5t20.5 -50.5q0 -29 -20.5 -49t-50.5 -20h-45v-605h45q30 0 50.5 -20.5t20.5 -49.5t-20.5 -50t-50.5 -21h-125z" />
    <glyph glyph-name="bracketright.case" horiz-adv-x="361" 
d="M212.01 -68q34.9971 0 59.4961 24.5q24.498 24.5 24.498 59.5v718q0 35 -24.498 59.5q-24.499 24.5 -59.4961 24.5h-124.993q-29.998 0 -50.4961 -20.5q-20.499 -20.5 -20.499 -50.5q0 -29 20.499 -49q20.498 -20 50.4961 -20h44.998v-605h-44.998
q-29.998 0 -50.4961 -20.5q-20.499 -20.5 -20.499 -49.5t20.499 -50q20.498 -21 50.4961 -21h124.993z" />
    <glyph glyph-name="braceleft.case" horiz-adv-x="378" 
d="M99 189q0 40 -12.5 60t-30.5 34.5t-28 41t-10 54t10.5 53.5t28 41.5t30 36t12.5 61.5v95q0 51 21 82t52 48t66.5 22.5t68.5 -1.5t45 -44q4 -15 2 -30t-9 -28.5t-18.5 -23t-26.5 -14.5q-16 -3 -27 -11t-11 -22v-131q0 -37 -12.5 -62t-27.5 -40q-8 -8 -18 -15.5t-24 -12.5
v-10q26 -6 42 -22q15 -15 27.5 -40t12.5 -65v-138q0 -13 9.5 -21t22.5 -11q40 -9 56 -48q5 -15 4.5 -30.5t-6 -29t-16.5 -25t-33.5 -14t-58 3t-67 22.5t-53 48.5t-21.5 83.5v102z" />
    <glyph glyph-name="braceright.case" horiz-adv-x="379" 
d="M283.006 190q0 40 12.499 60q12.5 20 30.499 34.5q17.998 14.5 27.998 41q9.99902 26.5 9.99902 54t-10.499 53.5q-10.5 26 -27.998 41.5q-17.499 15.5 -29.999 36q-12.499 20.5 -12.499 61.5v95q0 51 -20.998 82q-20.999 31 -51.9971 48t-66.4961 22.5t-68.4961 -1.5
t-44.9971 -44q-4 -15 -2 -30t9 -28.5q6.99902 -13.5 18.498 -23q11.5 -9.5 26.499 -14.5q15.999 -3 26.998 -11t10.999 -22v-131q0 -37 12.5 -62q12.499 -25 27.498 -40q7.99902 -8 17.999 -15.5q9.99902 -7.5 23.998 -12.5v-10q-25.998 -6 -41.9971 -22
q-14.999 -15 -27.498 -40q-12.5 -25 -12.5 -65v-138q0 -13 -9.49902 -21t-22.499 -11q-39.9971 -9 -55.9961 -48q-5 -15 -4.5 -30.5t6 -29q5.49902 -13.5 16.499 -25q10.999 -11.5 33.498 -14q22.498 -2.5 57.9961 3t66.9961 22.5t52.9971 48.5q21.498 31.5 21.498 83.5v102
z" />
    <glyph glyph-name="at.case" horiz-adv-x="838" 
d="M481 467q-8 9 -20.5 16t-25.5 7q-16 0 -28.5 -17.5t-20.5 -42t-11.5 -50t-3.5 -39.5q0 -19 4 -28t22 -9q9 0 20 6t21.5 17.5t18.5 28t11 36.5zM820 508q0 -69 -21.5 -124.5t-59 -94.5t-86 -60.5t-103.5 -21.5q-78 0 -92 54q-25 -25 -50 -39.5t-61 -14.5q-54 0 -78.5 34.5
t-24.5 90.5q0 50 13.5 96t37 81.5t54 56.5t64.5 21q66 0 96 -31q6 15 19 23t28 8q23 0 37.5 -15t14.5 -36q0 -3 -1 -15q-39 -175 -39 -196q0 -11 6 -17t22 -6q21 0 40.5 18t35 46t25 64t9.5 72q0 42 -14.5 78.5t-44 64.5t-73.5 43.5t-102 15.5q-76 0 -138.5 -28t-107 -76.5
t-69 -113.5t-24.5 -140q0 -68 22 -114t59.5 -74t86 -39.5t101.5 -11.5q64 0 119.5 9.5t109.5 29.5q16 7 26 7q19 0 37 -14.5t18 -39.5q0 -16 -8.5 -28.5t-23.5 -20.5q-26 -12 -58 -22t-68.5 -17t-74.5 -10.5t-75 -3.5q-83 0 -155 21t-124.5 64.5t-82.5 109.5t-30 157
q0 100 37 184t100 144.5t147.5 94.5t180.5 34q77 0 140 -20t108 -58.5t70 -93.5t25 -126z" />
    <glyph glyph-name="guillemotleft.case" horiz-adv-x="654" 
d="M294 238q11 -25 6 -50.5t-26 -43.5q-26 -21 -58 -17.5t-53 27.5l-108 154q-20 29 -20 48t13 38l108 150q9 13 23 21t29 10.5t30 -0.5t28 -13q13 -9 21.5 -23t11 -29t-1 -30.5t-12.5 -28.5l-62 -100zM572 238q11 -25 5.5 -50.5t-26.5 -43.5q-26 -21 -57.5 -17.5
t-53.5 27.5l-107 154q-21 29 -21 48t13 38l108 150q10 13 23.5 21t28.5 10.5t30 -0.5t28 -13q13 -9 21.5 -23t11 -29t-0.5 -30.5t-13 -28.5l-62 -100z" />
    <glyph glyph-name="guillemotright.case" horiz-adv-x="654" 
d="M439 352l-62 100q-9 13 -12.5 28.5t-1 30.5t11 29t21.5 23t28 12.5t30 1t28.5 -10.5t23.5 -21l108 -150q13 -19 13 -38t-21 -48l-107 -154q-21 -24 -53 -27.5t-58 17.5q-21 18 -26.5 43.5t6.5 50.5zM162 352l-62 100q-10 13 -13 28.5t-1 30.5t10.5 29t21.5 23
q14 9 29 12.5t30 1t28.5 -10.5t22.5 -21l109 -150q13 -19 13 -38t-21 -48l-107 -154q-22 -24 -54 -27.5t-57 17.5q-22 18 -27 43.5t6 50.5z" />
    <glyph glyph-name="guilsinglleft.case" horiz-adv-x="384" 
d="M297 240q11 -25 6 -50.5t-27 -43.5q-25 -21 -57 -17.5t-54 27.5l-107 154q-20 29 -20 48t13 38l108 150q9 13 23 21t29 10.5t30 -1t28 -12.5t21.5 -23t11 -29t-1 -30.5t-12.5 -28.5l-62 -101z" />
    <glyph glyph-name="guilsinglright.case" horiz-adv-x="384" 
d="M164 352l-62 101q-10 13 -13 28.5t-1 30.5t10.5 29t21.5 23t28.5 12.5t30.5 1t28.5 -10.5t22.5 -21l108 -150q14 -19 14 -38t-21 -48l-107 -154q-22 -24 -54 -27.5t-57 17.5q-22 18 -27 43.5t6 50.5z" />
    <glyph glyph-name="endash.case" horiz-adv-x="704" 
d="M51 363q0 32 22 54t54 22h456q32 0 54 -22t22 -54t-22 -54t-54 -22h-456q-32 0 -54 22t-22 54z" />
    <glyph glyph-name="emdash.case" horiz-adv-x="892" 
d="M46 363q0 32 22 54t54 22h656q32 0 54 -22t22 -54t-22 -54t-54 -22h-656q-32 0 -54 22t-22 54z" />
    <glyph glyph-name="periodcentered.case" horiz-adv-x="283" 
d="M47 360q0 41 28.5 69.5t69.5 28.5q20 0 37.5 -7.5t31 -21t21.5 -31.5t8 -38t-8 -37.5t-21.5 -31t-31 -21t-37.5 -7.5t-38 7.5t-31.5 21t-21 31t-7.5 37.5z" />
    <glyph glyph-name="questiondown.case" horiz-adv-x="446" 
d="M146.021 638.007q0 25.998 9.49902 47.4971t25.998 37.998t37.998 25.998q21.499 9.5 45.4971 9.5q25.998 0 47.9971 -9.5q21.999 -9.49902 38.498 -25.998t25.998 -37.998t9.49902 -47.4971q0 -23.998 -9.49902 -45.4971t-25.998 -37.498t-38.498 -25.498
q-21.999 -9.5 -47.9971 -9.5q-23.998 0 -45.4971 9.5q-21.499 9.49902 -37.998 25.498t-25.998 37.498t-9.49902 45.4971zM7.0293 198.034q0 65.9951 41.998 115.492q41.9971 49.4971 129.991 79.4951q6 34.998 30.499 57.9971q24.498 22.998 58.4961 22.998
q22.998 0 40.4971 -7.99902q17.499 -8 28.999 -21.999q11.499 -13.999 17.998 -32.498q6.5 -18.499 6.5 -38.4971v-64.9961q0 -15.999 -24.998 -23.999q-35.998 -10.999 -62.4971 -17.999q-26.498 -6.99902 -42.9971 -15.499q-16.499 -8.49902 -24.998 -20.498
q-8.5 -12 -8.5 -33.998q0 -18.999 12.499 -31.498q12.5 -12.5 56.4971 -12.5q15.999 0 57.4961 12q41.498 11.999 53.4971 11.999q14.999 0 28.998 -6q13.999 -5.99902 25.499 -16.499q11.499 -10.499 17.998 -25.498q6.5 -14.999 6.5 -32.998q0 -25.998 -14.499 -43.4971
t-41.4971 -30.998q-26.999 -13.5 -75.4961 -22.999t-79.4951 -9.49902q-52.9961 0 -96.4941 14.999q-43.4971 14.999 -75.4951 42.4971t-49.4971 65.9961t-17.499 86.4951z" />
    <glyph glyph-name="exclamdown.case" horiz-adv-x="330" 
d="M81 399.02l-24 -362.978q0 -22.999 9 -42.9971q9 -19.999 23.5 -34.998t35 -23.499q20.5 -8.49902 42.5 -8.49902q23 0 43 8.49902q20 8.5 35 23.499t23.5 34.998q8.5 19.998 8.5 42.9971l-22 361.978q0 17.999 -7.5 33.998t-19.5 26.999q-12 10.999 -28 17.499
q-16 6.49902 -34 6.49902q-35 -1 -59 -24.498q-24 -23.499 -26 -59.4971zM283 663.004q0 23.998 -9.5 45.4971t-25 37.498t-37 24.998q-21.5 9 -45.5 9t-45 -9q-21 -8.99902 -37 -24.998t-25.5 -37.498t-9.5 -45.4971q0 -23.999 9.5 -45.4971q9.5 -21.499 25.5 -36.998
t37 -24.998q21 -9.5 45 -9.5t45.5 9.5q21.5 9.49902 37 24.998t25 36.998q9.5 21.498 9.5 45.4971z" />
    <glyph glyph-name="bullet.case" horiz-adv-x="444" 
d="M28 374q0 40 15 75t41.5 61.5t61.5 41.5t75 15t75 -15t61.5 -41.5t41.5 -61.5t15 -75t-15 -75t-41.5 -61.5t-61.5 -41.5t-75 -15t-75 15t-61.5 41.5t-41.5 61.5t-15 75z" />
    <glyph glyph-name="zero.p_osf" horiz-adv-x="561" 
d="M32 291q0 57 13.5 111t43.5 96.5t78 68.5t117 26t116.5 -26t77.5 -69t43.5 -97.5t13.5 -111.5q0 -58 -13.5 -112t-43.5 -96t-77.5 -67.5t-116.5 -25.5t-117 26t-78 68.5t-43.5 97t-13.5 111.5zM230 290q0 -25 2 -48.5t8 -42t16.5 -29.5t27.5 -11q18 0 28 11t15.5 29
t7 41.5t1.5 48.5q0 24 -1.5 48t-7 42.5t-16 30t-27.5 11.5t-27.5 -11.5t-16.5 -30t-8 -42t-2 -47.5z" />
    <glyph glyph-name="one.p_osf" horiz-adv-x="519" 
d="M100 0q-33 0 -57 23t-24 57t24 57.5t57 23.5h79v177q-15 -22 -36 -43q-26 -23 -60.5 -20.5t-57.5 29.5q-22 26 -19.5 60.5t29.5 56.5l130 134q34 35 84 35q25 0 47 -9t38 -25t25 -38t9 -46v-311h60q33 0 57 -23.5t24 -57.5t-24 -57t-57 -23h-328z" />
    <glyph glyph-name="two.p_osf" horiz-adv-x="547" 
d="M133 0q-35 0 -59.5 24.5t-24.5 59.5v33q2 21 23 34q45 28 70.5 46.5t52 40.5t47.5 45t34.5 46.5t13.5 46.5t-12 34t-33 11q-15 0 -30.5 -5.5t-29.5 -14.5q-4 -2 -6.5 -3.5t-6.5 -3.5q-31 -14 -62.5 -2.5t-45.5 42.5t-2 62.5t42 45.5q31 19 73.5 35t93.5 16q34 0 73.5 -9
t72 -30t54.5 -56.5t22 -88.5t-21 -93t-49.5 -69.5t-59 -48.5t-50.5 -29v-16l69 7h60q33 0 56.5 -23.5t23.5 -56.5t-23.5 -56.5t-56.5 -23.5h-309z" />
    <glyph glyph-name="three.p_osf" horiz-adv-x="522" 
d="M30 500q0 33 23 56t56 23h248q26 0 47.5 -9t37.5 -24.5t24.5 -36.5t6.5 -46q-3 -29 -20 -51l-84 -119v-7q33 -10 57.5 -28t40 -41.5t23.5 -51t8 -55.5q0 -46 -14.5 -90t-45.5 -78.5t-79.5 -55.5t-115.5 -21q-51 0 -88.5 11t-67.5 26q-28 17 -38 48t4 62q6 16 19.5 27.5
t28.5 17.5t31.5 5.5t32.5 -7.5q15 -8 31 -12t32 -4q40 0 57 18.5t17 42.5q0 25 -19.5 43.5t-64.5 18.5h-6q-11 -1 -20 4t-12 14l-22 50q-8 16 3 30l115 157v9h-94q0 -19 -6 -32.5t-16.5 -24.5t-24 -16.5t-29.5 -5.5q-32 0 -54 22t-22 54v77z" />
    <glyph glyph-name="four.p_osf" horiz-adv-x="602" 
d="M197 182v-6h103v149q0 13 8 91h-4q-27 -70 -31 -79zM112 20q-42 0 -70 28t-28 69q0 25 12 47l200 373q23 43 72 43h115q34 0 58 -24t24 -59v-321h28q16 0 30.5 -6t24.5 -17t16.5 -25t6.5 -31q0 -32 -22.5 -54.5t-55.5 -22.5h-28v-75q0 -21 -8 -38.5t-20.5 -31t-31 -21
t-38.5 -7.5t-38 7.5t-31 21t-20.5 31t-7.5 38.5v75h-188z" />
    <glyph glyph-name="five.p_osf" horiz-adv-x="519" 
d="M244 -139q-47 0 -84 10t-59 20t-34.5 21.5t-19.5 26.5t-7.5 31.5t4.5 33.5t16.5 29.5t26.5 20t32.5 9t34.5 -5.5q18 -7 37.5 -13.5t38.5 -6.5q32 0 55.5 16.5t23.5 51.5q0 28 -19.5 48t-65 18t-60.5 -7q-42 -10 -80 10q-21 10 -33 30.5t-11 43.5q15 246 15 257
q1 16 8 29.5t17.5 24t24.5 16t30 5.5h249q33 0 55.5 -23t22.5 -57v-59q0 -27 -15.5 -47.5t-41.5 -26.5q-16 -5 -31.5 -2t-28 10.5t-22.5 19.5t-14 28h-93l-8 -102q41 8 64 8q57 0 100.5 -17.5t73.5 -47.5t45 -71t15 -88q0 -51 -19 -96t-53 -78t-82 -51.5t-108 -18.5z" />
    <glyph glyph-name="six.p_osf" horiz-adv-x="569" 
d="M299 -13q-51 0 -100 19t-87 59t-61.5 102t-23.5 150q0 81 21.5 153t63 126.5t102 86.5t139.5 32q23 0 44.5 -2.5t36.5 -11t25.5 -22t15.5 -30.5t3 -35t-10.5 -33t-22 -25t-30 -15t-35.5 -2l-21 1q-40 0 -70 -17t-46 -61v-6q45 12 78 12q52 0 93 -21.5t69 -56t42.5 -76.5
t14.5 -84q0 -44 -15.5 -87.5t-47 -78t-76.5 -56t-102 -21.5zM218 268q0 -22 6 -40.5t18 -33t26 -23.5t29 -9q23 0 38 17t15 46q0 12 -4 26.5t-14.5 27.5t-27.5 21.5t-44 8.5q-24 0 -33 -8.5t-9 -32.5z" />
    <glyph glyph-name="seven.p_osf" horiz-adv-x="524" 
d="M173 -143q-18 0 -33 7t-26 18t-16.5 25.5t-5.5 30.5q0 8 1.5 16.5t5.5 17.5l208 442v7h-121q0 -27 -17 -44.5t-42 -17.5h-26q-34 0 -57.5 24t-23.5 58v57q0 34 23.5 57.5t57.5 23.5h333q34 0 58 -23.5t24 -57.5v-44q-1 -18 -7 -35l-240 -516q-11 -21 -30.5 -33.5
t-43.5 -12.5h-22z" />
    <glyph glyph-name="eight.p_osf" horiz-adv-x="568" 
d="M365 203q0 20 -6.5 35t-17.5 25.5t-25.5 19t-29.5 15.5l-28 -16.5t-24 -20.5t-17 -26t-7 -32q0 -31 20 -50.5t60 -19.5q36 0 55.5 19.5t19.5 50.5zM347 509q0 30 -14.5 44.5t-42.5 14.5q-26 0 -42 -14.5t-16 -42.5q0 -30 19.5 -46t42.5 -27q25 10 39 26.5t14 44.5z
M538 202q0 -56 -22 -97t-57 -67t-79.5 -38t-89.5 -12q-55 0 -100.5 13.5t-78.5 41t-51 67t-18 89.5q0 55 30 98t78 71q-37 28 -60.5 66t-23.5 86q0 44 18 79.5t48 61.5t70.5 39.5t87.5 13.5t88 -13.5t72 -39t48 -61t17 -79.5q0 -47 -23 -84.5t-61 -65.5q19 -13 39 -30
t34.5 -38t24 -46.5t9.5 -54.5z" />
    <glyph glyph-name="nine.p_osf" horiz-adv-x="572" 
d="M263 593q51 0 100 -19t86.5 -59.5t61.5 -103.5t24 -150q0 -81 -21.5 -153t-63 -126.5t-102.5 -86.5t-141 -32q-27 0 -49.5 4t-39.5 15t-27 28t-10 43q0 19 7 35.5t19 28t28 18t34 6.5q8 0 16 -1t18 -1q40 0 71.5 19.5t47.5 65.5v9q-44 -18 -80 -18q-52 0 -93 21
t-68.5 54.5t-42 75t-14.5 83.5q0 44 16 87.5t47 78.5t75.5 56.5t100.5 21.5zM344 314q0 21 -7 39.5t-18 32t-25.5 22t-28.5 8.5q-23 0 -38.5 -17t-15.5 -45q0 -12 4 -26.5t15 -27.5t28 -22t44 -9q23 0 32.5 10.5t9.5 34.5z" />
    <glyph glyph-name="zero.t_osf" horiz-adv-x="576" 
d="M39 291q0 57 13.5 111t43.5 96.5t78 68.5t117 26t117 -26t77.5 -69t43 -97.5t13.5 -111.5q0 -58 -13.5 -112t-43 -96t-77.5 -67.5t-117 -25.5t-117 26t-78 68.5t-43.5 97t-13.5 111.5zM238 290q0 -25 2 -48.5t7.5 -42t16 -29.5t27.5 -11q18 0 28 11t15.5 29t7 41.5
t1.5 48.5q0 24 -1.5 48t-7 42.5t-16 30t-27.5 11.5t-27.5 -11.5t-16 -30t-7.5 -42t-2 -47.5z" />
    <glyph glyph-name="one.t_osf" horiz-adv-x="576" 
d="M136 0q-33 0 -57 23t-24 57t24 57.5t57 23.5h79v177q-14 -22 -35 -43q-27 -23 -61 -20.5t-57 29.5q-23 26 -20 60.5t29 56.5l131 134q34 35 84 35q25 0 46.5 -9t37.5 -25t25.5 -38t9.5 -46v-311h59q33 0 57 -23.5t24 -57.5t-24 -57t-57 -23h-328z" />
    <glyph glyph-name="two.t_osf" horiz-adv-x="576" 
d="M147 0q-35 0 -59.5 24.5t-24.5 59.5v33q2 21 23 34q45 28 70.5 46.5t52 40.5t47.5 45t34.5 46.5t13.5 46.5t-12 34t-33 11q-15 0 -30.5 -5.5t-29.5 -14.5q-3 -2 -6 -3.5l-7 -3.5q-31 -14 -62.5 -2.5t-45.5 42.5t-2 62.5t42 45.5q85 47 167 51q35 0 74 -9t71.5 -30
t54.5 -56.5t22 -88.5t-21 -93t-49.5 -69.5t-59 -48.5t-50.5 -29v-16l69 7h60q33 0 56.5 -23.5t23.5 -56.5t-23.5 -56.5t-56.5 -23.5h-309z" />
    <glyph glyph-name="three.t_osf" horiz-adv-x="576" 
d="M57 500q0 33 23 56t56 23h248q26 0 47.5 -9t37.5 -24.5t24.5 -36.5t6.5 -46q-3 -29 -20 -51l-83 -119v-7q33 -10 57 -28t39.5 -41.5t23.5 -51t8 -55.5q0 -46 -14.5 -90t-45.5 -78.5t-79.5 -55.5t-114.5 -21q-52 0 -89.5 11t-66.5 26q-29 17 -39 48t4 62q6 16 19.5 27.5
t28.5 17.5t32 5.5t33 -7.5q15 -8 31 -12t32 -4q39 0 56 18.5t17 42.5q0 25 -19.5 43.5t-64.5 18.5h-5q-12 -1 -20.5 4t-12.5 14l-22 50q-7 16 3 30l116 157v9h-94q0 -19 -6.5 -32.5t-16.5 -24.5t-24 -16.5t-30 -5.5q-31 0 -53.5 22t-22.5 54v77z" />
    <glyph glyph-name="four.t_osf" horiz-adv-x="576" 
d="M192 186v-6h102v149q0 13 9 91h-5q-26 -70 -31 -80zM106 23q-41 0 -69.5 28.5t-28.5 69.5q0 25 13 46l199 373q23 44 72 44h115q35 0 59 -24t24 -59v-321h27q16 0 30.5 -6.5t25 -17t16.5 -25t6 -30.5q0 -32 -22.5 -55t-55.5 -23h-27v-75q0 -20 -8 -37.5t-21 -31t-31 -21
t-39 -7.5q-20 0 -37.5 7.5t-31 21t-21 31t-7.5 37.5v75h-188z" />
    <glyph glyph-name="five.t_osf" horiz-adv-x="576" 
d="M272 -139q-47 0 -84.5 10t-59.5 20t-34.5 21.5t-19 26.5t-7.5 31.5t4 33.5t17 29.5t27 20t32 9t34 -5.5q18 -7 37.5 -13.5t39.5 -6.5q32 0 55.5 16.5t23.5 51.5q0 28 -20 48t-65.5 18t-60.5 -7q-42 -10 -80 10q-21 10 -33 30.5t-10 43.5q14 246 15 257q1 16 7.5 29.5
t17 24t25 16t30.5 5.5h248q34 0 56.5 -23t22.5 -57v-59q0 -27 -16 -47.5t-42 -26.5q-16 -5 -31.5 -2t-28 10.5t-22.5 19.5t-13 28h-94l-8 -102q41 8 64 8q57 0 101 -17.5t73.5 -47.5t44.5 -71t15 -88q0 -51 -19 -96t-52.5 -78t-82 -51.5t-107.5 -18.5z" />
    <glyph glyph-name="six.t_osf" horiz-adv-x="576" 
d="M304 -12q-51 0 -100 19t-87 59t-61.5 102t-23.5 150q0 81 21.5 153t63 126.5t102 86.5t139.5 32q23 0 44.5 -2.5t36.5 -11t25.5 -22.5t15.5 -30.5t3 -34.5q-3 -18 -11.5 -33t-21.5 -25t-30 -15t-36 -2h-20q-41 0 -70.5 -16.5t-45.5 -61.5v-5q44 12 77 12q53 0 94 -21.5
t69 -56t42.5 -76.5t14.5 -84q0 -44 -16 -87.5t-47 -78t-76 -56t-102 -21.5zM223 269q0 -22 6 -40.5t17.5 -33.5t26 -23.5t29.5 -8.5q22 0 37 17t15 46q0 12 -3.5 26.5t-14 27.5t-28 21.5t-43.5 8.5q-24 0 -33 -8.5t-9 -32.5z" />
    <glyph glyph-name="seven.t_osf" horiz-adv-x="576" 
d="M199 -143q-18 0 -33 7t-25.5 18t-16.5 25.5t-6 30.5q0 8 1.5 16.5t5.5 17.5l209 442v7h-122q0 -27 -16.5 -44.5t-42.5 -17.5h-26q-34 0 -57.5 24t-23.5 58v57q0 34 23.5 57.5t57.5 23.5h334q33 0 57 -23.5t24 -57.5v-44q-1 -18 -7 -35l-240 -516q-10 -21 -30 -33.5
t-44 -12.5h-22z" />
    <glyph glyph-name="eight.t_osf" horiz-adv-x="576" 
d="M368 203q0 20 -6 35t-17 25.5t-25.5 19t-29.5 15.5q-15 -8 -28.5 -16.5t-24 -20.5t-17.5 -26t-7 -32q0 -31 20.5 -50.5t59.5 -19.5q37 0 56 19.5t19 50.5zM351 509q0 30 -15 44.5t-43 14.5q-25 0 -41 -14.5t-16 -42.5q0 -30 19 -46t43 -27q24 10 38.5 26.5t14.5 44.5z
M541 202q0 -56 -21.5 -97t-56.5 -67t-80 -38t-90 -12q-54 0 -99.5 13.5t-78.5 41t-51 67t-18 89.5q0 55 29.5 98t78.5 71q-37 28 -60.5 66t-23.5 86q0 44 17.5 79.5t47.5 61.5t70.5 39.5t87.5 13.5q48 0 89 -13.5t72 -39t48 -61t17 -79.5q0 -47 -23 -84.5t-62 -65.5
q20 -13 39.5 -30t34.5 -38t24 -46.5t9 -54.5z" />
    <glyph glyph-name="nine.t_osf" horiz-adv-x="576" 
d="M272 593q50 0 99 -19t86.5 -59.5t61.5 -103.5t24 -150q0 -81 -21.5 -153t-63 -126.5t-102.5 -86.5t-141 -32q-26 0 -48.5 4t-40 15t-27.5 28t-10 43q0 19 7 35.5t19.5 28t28.5 18t34 6.5q7 0 15 -1t18 -1q40 0 72 19.5t48 65.5v9q-44 -18 -81 -18q-52 0 -92.5 21
t-68.5 54.5t-42 75t-14 83.5q0 44 16 87.5t47 78.5t75 56.5t101 21.5zM352 314q0 21 -7 39.5t-17.5 32t-25 22t-28.5 8.5q-24 0 -39.5 -17t-15.5 -45q0 -12 4 -26.5t15 -27.5t28.5 -22t43.5 -9q24 0 33 10.5t9 34.5z" />
    <glyph glyph-name="dollar.osf" horiz-adv-x="526" 
d="M219 -5q-30 7 -54.5 16t-44.5 20q-3 2 -4 4q-14 8 -22.5 21t-12.5 28t-1 30t12 29q9 13 21.5 22t27.5 12.5t30 1t29 -12.5q18 -8 36.5 -15t34.5 -7q19 0 33.5 8t14.5 26q0 20 -22.5 33t-55.5 26q-29 11 -60.5 25.5t-57.5 36.5t-43.5 53t-17.5 75q0 36 12 67t33 55
t49.5 40.5t62.5 25.5v50q0 21 15.5 36t36.5 15t36 -15t15 -36v-47q39 -2 92 -25q14 -8 23.5 -20.5t14 -27t3.5 -30t-9 -30.5q-8 -14 -20 -24.5t-27 -14.5t-30.5 -2.5t-30.5 8.5t-30 11t-30 4q-16 0 -30 -7t-14 -26q0 -11 6 -20.5t17.5 -17t27 -13.5l32.5 -13l58.5 -23.5
t56 -33t42 -49.5t16.5 -72q0 -34 -11 -66.5t-32 -59.5t-52.5 -45.5t-72.5 -25.5v-49q0 -21 -15 -36t-36 -15t-36.5 15t-15.5 36v49z" />
    <glyph glyph-name="cent.osf" horiz-adv-x="523" 
d="M215.422 35.5947q-36.8672 11.3477 -71.8438 36.8799q-34.9766 25.5312 -61.918 61.4648t-43.0117 81.3232t-16.0703 97.3984t16.0703 97.3984t43.0117 81.3232t61.918 60.9922t71.8438 36.4062v48.2266q0 24.5859 17.0156 41.1348q17.0156 16.5479 40.6484 16.5479
q25.5234 0 42.0664 -16.5479q16.543 -16.5488 16.543 -41.1348v-48.2266q32.1406 -9.45605 61.4453 -25.5312q29.3047 -16.0762 52.9375 -38.7705q4.72656 -5.67383 7.5625 -9.45605q12.2891 -14.1846 18.4336 -31.2061q6.14453 -17.0205 5.19922 -34.5146
t-8.98047 -34.5146q-8.03516 -17.0215 -22.2148 -29.3145t-31.668 -17.9668t-34.9766 -4.25488q-17.4883 1.41797 -33.5586 8.9834q-16.0703 7.56445 -29.3047 21.749q-7.5625 7.56445 -17.9609 12.7656t-22.6875 5.20117q-25.5234 0 -44.9023 -25.0596
q-19.3789 -25.0586 -19.3789 -76.1221q0 -52.0088 18.9062 -75.1768q18.9062 -23.167 43.4844 -23.167q21.7422 0 37.8125 14.1836q12.2891 14.1846 28.832 22.6953t34.0312 9.92871q17.4883 1.41895 34.9766 -4.25488t32.6133 -17.9668q14.1797 -12.293 22.6875 -28.8418
q8.50781 -16.5479 9.92578 -34.042t-4.25391 -35.4609t-17.9609 -32.1504q-22.6875 -25.5322 -52.9375 -45.8623q-30.25 -20.3311 -68.0625 -25.0596v-51.0635q0 -23.6396 -16.543 -40.6611t-42.0664 -17.0215q-23.6328 0 -40.6484 17.0215t-17.0156 40.6611v51.0635z" />
    <glyph glyph-name="sterling.osf" horiz-adv-x="577" 
d="M476.295 146.728q15.1768 0 28.2461 -6.74609q13.0684 -6.74609 22.3428 -17.2871q9.27441 -10.54 13.9121 -24.4541q4.63672 -13.9141 3.79395 -29.0928q-0.84375 -15.1787 -7.58789 -28.249q-6.74609 -13.0703 -17.2852 -22.3467t-24.4512 -13.9141
q-13.9111 -4.6377 -29.0879 -3.79395h-365.923q-2.5293 0 -4.21582 0.420898q-1.68555 0.421875 -3.37207 0.421875q-15.1768 2.53027 -27.4023 10.1191t-20.6572 18.9736q-8.43066 11.3838 -12.2246 25.7188q-3.79492 14.3359 -1.26562 29.5146
q2.53027 14.335 10.54 26.9844t18.9707 20.6602q10.96 8.01074 25.2939 11.8057q14.333 3.79492 29.5098 1.26465h4.21582q3.37207 16.8652 4.63672 29.9355q1.26465 13.0713 0.421875 25.7197t-2.95117 25.7197q-2.10742 13.0703 -6.32324 29.0928h-36.2549
q-12.6475 0.842773 -24.0293 7.16699q-11.3828 6.3252 -18.9707 14.7568q-7.58887 8.43359 -11.8037 19.8174q-4.21582 11.3838 -3.37305 24.876q2.5293 25.2979 21.5 41.7412q18.9707 16.4443 45.1084 13.9141l-5.05957 28.249q-2.5293 14.7578 -2.5293 31.623
q0 45.5352 18.1279 82.6387q18.127 37.1035 50.167 62.4023q32.0391 25.2969 76.3037 39.2109t98.2256 13.9141q44.6865 0 76.3047 -8.01074q31.6172 -8.01074 54.3818 -17.2871q1.68652 -1.68652 2.1084 -1.68652t1.26465 -0.84375q26.9805 -12.6484 36.6768 -39.6328
q9.69531 -26.9844 -2.95117 -53.9688q-5.90234 -13.4922 -16.4414 -22.7676q-10.5391 -9.27637 -23.6074 -13.4922q-13.0693 -4.2168 -26.9805 -4.2168q-13.9121 0 -26.5596 6.74609q-18.5488 6.74609 -35.833 10.541t-36.6768 3.79492q-35.4121 0 -53.9609 -18.1309
q-18.5488 -18.1299 -18.5488 -48.4873q0 -11.8057 0.842773 -22.7686q0.84375 -10.9619 5.90234 -26.1406h96.9609q26.1367 -1.68652 42.5781 -21.082q16.4414 -19.3945 14.7549 -45.5352q-1.68555 -25.2988 -21.5 -41.7422q-19.8135 -16.4434 -45.1074 -15.5996h-61.5498
q5.05957 -10.1191 7.16699 -24.4551q2.1084 -14.3359 2.95117 -29.5137q0.842773 -15.1797 0 -29.9365t-2.5293 -26.5625h183.804z" />
    <glyph glyph-name="yen.osf" horiz-adv-x="650" 
d="M554 189q24 -2 38.5 -18t12.5 -38q-2 -21 -17.5 -35t-37.5 -12h-130v-39q-1 -20 -9.5 -37.5t-22 -30t-32 -19.5t-37.5 -6q-20 1 -37.5 9.5t-30 22t-18.5 32t-6 37.5v31h-149q-22 1 -35.5 17t-11.5 38t18 35.5t37 12.5h136l-28 56h-116q-22 2 -35.5 18t-11.5 38
q2 21 18 35.5t37 12.5h47l-51 104h-4q-33 0 -55.5 22.5t-22.5 55.5q0 17 6 31t16.5 25t25 17t30.5 6h101q27 0 48.5 -15.5t30.5 -41.5l54 -165l15 -86l15 86l57 166q9 26 30.5 41t48.5 15h81q16 0 30 -6t25 -17t17 -25t6 -31q0 -33 -22.5 -55.5t-55.5 -22.5l-51 -104h49
q22 -2 36 -17.5t13 -37.5q-1 -10 -5.5 -19.5t-12 -16t-17 -10t-20.5 -3.5h-100l-26 -56h129z" />
    <glyph glyph-name="florin.osf" horiz-adv-x="582" 
d="M119 -98q-34 -2 -60.5 19.5t-32.5 54.5q-3 18 1.5 35.5t14.5 31.5t25 23.5t33 12.5q30 0 50 12.5t24 50.5l7 121h-10q-33 0 -56.5 23.5t-23.5 56.5t23.5 56.5t56.5 23.5h25l7 94q6 66 35 105.5t67.5 60t79 27t72.5 8.5t59 -19t34 -56q3 -19 -1.5 -36t-14 -31t-25 -24
t-32.5 -12q-31 0 -52 -12.5t-26 -49.5l-4 -55h40q33 0 56.5 -23.5t23.5 -56.5t-23.5 -56.5t-56.5 -23.5h-53l-12 -161q-5 -66 -34.5 -105t-68 -60.5t-78.5 -28t-70 -6.5z" />
    <glyph glyph-name="Euro.osf" horiz-adv-x="528" 
d="M406.256 126.757q6.61816 3.30566 14.0645 4.95898q13.2373 2.47949 26.0615 0q12.8232 -2.47949 23.5781 -9.09082q10.7559 -6.6123 18.2021 -17.7695q7.44531 -11.1572 10.7549 -23.5547q3.30957 -13.2236 0.414062 -26.0342q-2.89648 -12.8105 -9.51465 -23.5547
q-6.61914 -10.7441 -17.374 -18.1826t-30.1973 -13.6367t-47.5723 -10.7441q-28.1289 -4.5459 -52.9492 -4.5459q-103.416 0 -162.984 54.1348q-59.5674 54.1338 -81.0781 154.964h-27.3018q-18.2012 1.65332 -29.7842 15.7031q-11.583 14.0508 -9.92773 32.2324
q1.6543 18.1826 16.1328 29.3408q14.4785 11.1572 31.8525 9.50391h9.10059v47.1094h-18.2012q-18.2021 1.65332 -29.3711 15.29t-9.51367 31.8193q1.6543 17.3555 15.7188 28.0996q14.0654 10.7451 31.4385 10.7451h17.374q8.27344 46.2822 28.543 85.127
q20.2705 38.8438 51.2949 66.9443q31.0254 28.1006 71.1504 43.8037q40.126 15.7031 89.7656 15.7031q33.0928 0 67.0137 -8.26562q33.9209 -8.26465 54.1904 -19.0088t27.3018 -20.6621q7.03223 -9.91699 10.7559 -21.4883q3.72266 -11.5703 2.48145 -23.5547
q-1.24121 -11.9834 -7.03223 -23.5547q-12.4102 -25.6201 -38.0576 -33.4717q-25.6465 -7.85156 -49.6396 4.54492q-15.7188 5.78613 -31.0244 9.50488q-15.3057 3.71973 -31.0254 3.71973q-27.3018 0 -48.8125 -17.7695t-32.2656 -61.5723h127.409
q18.2012 -0.827148 28.9561 -15.29q10.7559 -14.4639 9.92773 -32.6465q-2.48145 -17.3555 -16.5459 -27.6865q-14.0654 -10.3311 -32.2666 -10.3311h-124.927v-47.1094h89.3516q18.2012 -0.826172 30.6113 -14.4629t11.583 -30.9932q-1.6543 -18.1826 -14.8926 -30.166
q-13.2363 -11.9844 -31.4385 -11.1582h-68.668q12.4102 -44.6289 34.334 -61.5723q21.9248 -16.9424 49.2266 -16.9424q15.7188 0 28.9561 2.89258t24.8203 8.67773z" />
    <glyph glyph-name="zerosuperior" unicode="&#x2070;" horiz-adv-x="385" 
d="M181.257 638.467q-17.9443 0 -30.3203 7.42871q-12.375 7.42773 -21.6572 16.4033q-9.28125 8.97656 -16.0879 16.4043t-12.9941 8.04688h-4.9502q-4.9502 0 -7.4248 -2.16602q-2.47559 -2.16699 -7.42578 -10.833q-13.6133 -19.8086 -34.6514 -19.8086
q-4.33105 0 -7.4248 0.619141q2.47461 1.85645 2.47461 3.71387t-2.47461 4.95215q6.80664 1.85742 5.56836 7.42871q-1.2373 4.33301 -8.66211 3.09473q0 6.80957 -5.56934 6.80957q-4.9502 0 -4.9502 -6.80957q-7.42578 1.23828 -8.66309 -4.33301
q-8.04395 12.999 -8.04395 24.1416q0 6.19043 1.54688 10.5234t3.40332 7.42773q24.751 43.332 62.4961 43.332q24.751 0 38.0547 -7.42871q13.3037 -7.42773 21.0381 -16.7129l14.2324 -16.7139q6.49707 -7.42871 17.6348 -7.42871q9.90039 0 12.9941 7.42871
q10.5195 23.5225 34.0332 23.5225q17.9443 0 29.082 -12.0703q11.1377 -12.0713 11.1377 -26.9277q0 -16.0947 -6.49707 -27.2363q-6.49707 -11.1426 -16.707 -18.5713q-10.21 -7.42773 -22.2754 -10.833q-12.0664 -3.4043 -22.5859 -3.4043h-4.33105zM388.546 905.264
q0 -5.57129 0.30957 -10.833q0.30957 -5.26074 0.30957 -10.2139q0 -14.2373 -4.9502 -26.3076q-4.9502 -12.0713 -13.3037 -22.2852t-18.8721 -18.8799q-10.5195 -8.66602 -22.2764 -16.7129q-4.9502 -2.47656 -13.9229 -3.0957q-8.97168 -0.619141 -18.2539 -1.85742
q-1.2373 3.0957 -1.54688 5.26172q-0.308594 2.16699 -0.308594 5.26172q0 8.66699 6.80664 26.3086q6.80566 17.6426 17.9443 31.8799q17.9443 22.2842 34.0322 30.0225q16.0879 7.7373 34.0322 11.4512zM101.435 671.275q4.9502 -0.619141 11.4473 -8.04785
q6.49707 -7.42773 16.0889 -16.0947q9.59082 -8.66602 23.2041 -15.7842q13.6123 -7.11914 33.4131 -7.11914q-0.618164 0 4.02246 -0.30957t12.0664 0.619141q7.4248 0.928711 16.7061 3.09473q9.28223 2.16699 18.5635 6.5q17.3262 6.80957 27.8447 21.666
q10.5195 14.8564 10.5195 34.665q0 25.998 -17.9443 43.6406q-17.9443 17.6416 -43.9326 17.6416q-19.8008 0 -35.2705 -10.5234q-15.4697 -10.5225 -18.5635 -23.5225q-6.80664 3.0957 -14.2314 13q-7.42578 9.9043 -19.8008 19.8086q17.9443 25.998 43.9326 36.5215
t53.834 10.5234q13.6123 0 22.8945 -2.78516q9.28125 -2.78613 17.3252 -6.5t16.3975 -6.5q8.35352 -2.78516 19.4912 -2.78516q11.1387 0 19.1826 2.78516q8.04395 2.78613 16.0879 6.5t17.3262 6.5q9.28125 2.78516 23.5127 2.78516q27.2266 0 51.3584 -10.2139
q24.1328 -10.2139 45.7891 -35.5938q-14.2314 -9.28516 -24.4414 -18.5703t-16.707 -20.4277t-9.59082 -24.4512t-3.09375 -31.2607q0.619141 -24.1416 9.28125 -40.8545q8.66309 -16.7139 19.4922 -27.5469q10.8281 -10.833 21.3477 -16.4033
q10.5186 -5.57129 15.4688 -7.42871l-17.6348 -34.9746t-14.8506 -26.6182q-7.11621 -11.4512 -14.2314 -20.7363q-7.11621 -9.28516 -15.7793 -17.333l-8.35352 -8.66602q-4.02148 -4.33301 -9.59082 -7.42871q-5.56934 -3.09473 -13.6133 -5.26172
q-8.04395 -2.16602 -20.4189 -2.16602q-11.1387 0 -19.4922 2.78516l-12.0654 4.02344q-14.2324 6.80957 -22.2764 9.28613q-8.04395 2.47559 -16.707 2.47559q-8.04395 0 -16.7061 -2.47559q-8.66309 -2.47656 -22.8955 -9.28613l-10.8281 -4.33301
q-7.73438 -3.09473 -18.2539 -3.09473q-19.1816 0 -30.9385 6.80957q-11.7568 6.80859 -16.707 11.7607q-22.8945 18.5703 -36.1982 39.6172t-26.2979 51.998q-4.9502 8.66602 -9.28223 21.3555q-4.33105 12.6904 -7.4248 26.9277t-5.25977 29.4033t-2.16602 29.4033
q0 3.0957 0.30957 6.5t1.54688 6.5h3.09375zM23.4697 705.939q0 -3.09473 2.16504 -5.26074q2.16602 -2.16699 5.25977 -2.16699t5.25977 2.16699q2.16602 2.16602 2.16602 5.26074q0 7.42871 -7.42578 7.42871q-3.09375 0 -5.25977 -2.16699
q-2.16504 -2.16602 -2.16504 -5.26172z" />
    <glyph glyph-name="fivesuperior" unicode="&#x2075;" horiz-adv-x="379" 
d="M171.896 437.19q-30.3311 0 -54.4727 6.19043q-24.1426 6.19043 -38.6895 13q-14.5469 6.80859 -22.5938 14.2373q-8.04688 7.42773 -12.3809 17.0225q-4.33301 9.59473 -4.95215 20.4277q-0.618164 10.833 2.47656 21.9756q3.71387 11.1416 11.1426 19.1895
q7.42773 8.04688 17.332 12.999t21.0469 5.88086t22.2842 -2.78516q11.7617 -5.57129 24.4512 -9.5957q12.6904 -4.02344 25.6895 -4.02344q20.4277 0 35.9033 10.833t15.4756 33.7363q0 17.9521 -13 30.9512q-12.999 12.999 -34.0459 12.999q-21.0459 0 -29.7129 -1.2373
q-8.66602 -1.23828 -18.5703 -4.33301q-26.6182 -6.80957 -51.3779 6.18945q-14.2383 6.80957 -21.9756 19.8086q-7.7373 13 -6.5 29.0938q9.28516 159.707 9.9043 166.517q0 10.5234 4.64258 19.499t11.4521 15.4756q6.80957 6.49902 15.7852 10.2139
q8.97559 3.71387 19.499 3.71387h162.183q21.666 0 36.5225 -14.8564t14.8564 -36.5225v-38.998q0 -17.332 -10.5234 -30.6416q-10.5234 -13.3086 -27.2373 -17.6416q-10.5225 -3.09473 -20.4268 -1.23828q-9.9043 1.85742 -18.2617 6.80957
q-8.35645 4.95215 -14.8564 12.6895q-6.49902 7.73828 -8.35645 18.2617h-60.6641l-6.19043 -65.6162q27.8564 4.33301 42.0938 4.33301q37.1406 0 65.6162 -11.1426q28.4746 -11.1426 47.6641 -30.6416t29.0938 -46.4258q9.9043 -26.9277 9.9043 -57.2598
q0 -33.4268 -12.0703 -62.5205q-12.0713 -29.0938 -34.3555 -50.7598q-22.2852 -21.666 -53.5459 -33.7363q-31.2598 -12.0713 -70.2588 -12.0713z" />
    <glyph glyph-name="sixsuperior" unicode="&#x2076;" horiz-adv-x="379" 
d="M179.325 641.467q-17.9512 0 -30.332 7.42871q-12.3799 7.42773 -21.665 16.4033q-9.28613 8.97656 -16.0947 16.4043q-6.80957 7.42773 -13 8.04688h-4.95215q-4.95215 0 -7.42773 -2.16602q-2.47656 -2.16699 -7.42871 -10.833q-13.6182 -19.8086 -34.665 -19.8086
q-4.33301 0 -7.42773 0.619141q2.47559 1.85645 2.47559 3.71387t-2.47559 4.95215q6.80859 1.85742 5.57129 7.42871q-1.23828 4.33301 -8.66699 3.09473q0 6.80957 -5.57031 6.80957q-4.95215 0 -4.95215 -6.80957q-7.42871 1.23828 -8.66699 -4.33301
q-8.04688 12.999 -8.04688 24.1416q0 6.19043 1.54785 10.5234q1.54688 4.33301 3.4043 7.42773q24.7607 43.332 62.5205 43.332q24.7607 0 38.0703 -7.42871q13.3086 -7.42773 21.0459 -16.7129l14.2383 -16.7139q6.49902 -7.42871 17.6416 -7.42871
q9.9043 0 12.999 7.42871q10.5234 23.5225 34.0459 23.5225q17.9521 0 29.0947 -12.0703q11.1416 -12.0713 11.1416 -26.9277q0 -16.0947 -6.49902 -27.2363q-6.5 -11.1426 -16.7139 -18.5713q-10.2139 -7.42773 -22.2842 -10.833q-12.0713 -3.4043 -22.5947 -3.4043
h-4.33301zM386.696 908.264q0 -5.57129 0.30957 -10.833q0.30957 -5.26074 0.30957 -10.2139q0 -14.2373 -4.95215 -26.3076q-4.95215 -12.0713 -13.3086 -22.2852q-8.35742 -10.2139 -18.8809 -18.8799q-10.5225 -8.66602 -22.2842 -16.7129
q-4.95215 -2.47656 -13.9277 -3.0957t-18.2607 -1.85742q-1.23828 3.0957 -1.54785 5.26172q-0.30957 2.16699 -0.30957 5.26172q0 8.66699 6.80859 26.3086q6.80957 17.6426 17.9521 31.8799q17.9512 22.2842 34.0459 30.0225q16.0947 7.7373 34.0459 11.4512z
M99.4717 674.275q4.95215 -0.619141 11.4521 -8.04785q6.5 -7.42773 16.0947 -16.0947q9.59473 -8.66602 23.2129 -15.7842q13.6182 -7.11914 33.4268 -7.11914q-0.619141 0 4.02344 -0.30957t12.0713 0.619141q7.42773 0.928711 16.7139 3.09473
q9.28516 2.16699 18.5703 6.5q17.332 6.80957 27.8555 21.666t10.5234 34.665q0 25.998 -17.9512 43.6406q-17.9521 17.6416 -43.9512 17.6416q-19.8086 0 -35.2832 -10.5234q-15.4756 -10.5225 -18.5713 -23.5225q-6.80859 3.0957 -14.2373 13
q-7.42773 9.9043 -19.8086 19.8086q17.9521 25.998 43.9502 36.5215q25.999 10.5234 53.8545 10.5234q13.6191 0 22.9043 -2.78516q9.28516 -2.78613 17.332 -6.5q8.04785 -3.71387 16.4043 -6.5q8.35645 -2.78516 19.499 -2.78516t19.1895 2.78516
q8.04785 2.78613 16.0947 6.5t17.332 6.5q9.28613 2.78516 23.5234 2.78516q27.2363 0 51.3779 -10.2139t45.8076 -35.5938q-14.2373 -9.28516 -24.4512 -18.5703t-16.7139 -20.4277q-6.49902 -11.1426 -9.59473 -24.4512q-3.09473 -13.3086 -3.09473 -31.2607
q0.619141 -24.1416 9.28516 -40.8545q8.66602 -16.7139 19.499 -27.5469t21.3564 -16.4033q10.5234 -5.57129 15.4756 -7.42871l-17.6426 -34.9746q-7.7373 -15.166 -14.8564 -26.6182q-7.11816 -11.4512 -14.2373 -20.7363q-7.11816 -9.28516 -15.7852 -17.333
l-8.35645 -8.66602t-9.59473 -7.42871q-5.57129 -3.09473 -13.6182 -5.26172q-8.04785 -2.16602 -20.4277 -2.16602q-11.1426 0 -19.499 2.78516l-12.0713 4.02344q-14.2373 6.80957 -22.2842 9.28613q-8.04785 2.47559 -16.7139 2.47559q-8.04688 0 -16.7139 -2.47559
q-8.66602 -2.47656 -22.9033 -9.28613l-10.833 -4.33301q-7.7373 -3.09473 -18.2607 -3.09473q-19.1895 0 -30.9512 6.80957q-11.7607 6.80859 -16.7129 11.7607q-22.9043 18.5703 -36.2129 39.6172t-26.3086 51.998q-4.95215 8.66602 -9.28516 21.3555
q-4.33301 12.6904 -7.42773 26.9277q-3.0957 14.2373 -5.26172 29.4033q-2.16699 15.166 -2.16699 29.4033q0 3.0957 0.30957 6.5t1.54785 6.5h3.09473zM21.4756 708.939q0 -3.09473 2.16602 -5.26074q2.16699 -2.16699 5.26172 -2.16699q3.0957 0 5.26172 2.16699
q2.16699 2.16602 2.16699 5.26074q0 7.42871 -7.42871 7.42871q-3.09473 0 -5.26172 -2.16699q-2.16602 -2.16602 -2.16602 -5.26172z" />
    <glyph glyph-name="sevensuperior" unicode="&#x2077;" horiz-adv-x="368" 
d="M119.899 444q-11.7617 0 -21.0469 4.33301t-16.0947 11.4521q-6.80859 7.11816 -10.5225 16.4043q-3.71484 9.28516 -3.71484 19.8086q0 4.95117 0.619141 10.5225t3.71387 10.5234l133.09 282.272v4.95215h-77.3779q0 -17.332 -10.833 -28.4746
q-10.832 -11.1426 -26.9268 -11.1426h-16.7139q-21.665 0 -36.8311 15.166t-15.166 36.832v36.5215q0 21.666 15.166 36.5225t36.8311 14.8564h212.942q21.666 0 36.832 -14.8564t15.166 -36.5225v-27.8555q-0.619141 -11.7617 -4.95215 -22.2842l-152.897 -329.318
q-6.19043 -14.2373 -18.8809 -21.9756q-12.6895 -7.7373 -28.165 -7.7373h-14.2373z" />
    <glyph glyph-name="eightsuperior" unicode="&#x2078;" horiz-adv-x="387" 
d="M237.656 578.327q0 12.999 -4.02441 22.9033q-4.02344 9.9043 -11.1416 16.7139q-7.11914 6.80957 -16.7139 12.3799q-9.59473 5.57129 -19.499 9.9043q-9.28516 -4.95215 -18.2607 -10.832q-8.97559 -5.88086 -15.7852 -13.6191q-6.80957 -7.7373 -11.4521 -16.7129
q-4.64258 -8.97656 -4.64258 -20.7373q0 -20.4277 13.3086 -33.4268q13.3096 -13 39.3086 -13q24.1416 0 36.5215 13q12.3809 12.999 12.3809 33.4268zM225.895 778.889q0 19.1895 -9.59473 28.7852q-9.59473 9.59473 -27.5459 9.59473q-16.7139 0 -27.2373 -9.59473
q-10.5234 -9.5957 -10.5234 -27.5469q0 -19.8086 12.6904 -30.0225q12.6895 -10.2139 28.165 -18.2607q15.4756 7.42773 24.7607 17.9512t9.28516 29.0938zM351.556 577.089q0 -36.5225 -14.2373 -63.1396q-14.2383 -26.6182 -37.4512 -43.6406
q-23.2129 -17.0234 -52.6162 -25.0703q-29.4033 -8.04785 -59.1162 -8.04785q-35.2842 0 -65.3066 8.97656q-30.0225 8.97559 -51.3789 26.6172q-21.3555 17.6426 -33.1172 43.6406q-11.7617 25.999 -11.7617 58.8076q0 36.5215 19.499 64.6865
q19.499 28.166 51.6885 46.7363q-25.3799 17.9512 -40.5459 42.7119t-15.166 56.3311q0 29.0938 11.7617 52.6162q11.7607 23.5234 31.2598 40.2363q19.499 16.7139 46.4268 25.999t57.2598 9.28516q31.5693 0 58.4971 -9.28516q26.9268 -9.28516 46.7354 -25.6895
q19.8086 -16.4033 31.2607 -39.9268q11.4521 -23.5225 11.4521 -52.6162q0 -30.9512 -15.166 -55.0928t-40.5459 -42.7119q12.999 -8.66699 25.999 -19.8086q12.999 -11.1426 22.5938 -25.0703q9.59473 -13.9287 15.7852 -30.6416q6.19043 -16.7139 6.19043 -35.9033z" />
    <glyph glyph-name="ninesuperior" unicode="&#x2079;" horiz-adv-x="379" 
d="M179.325 641.467q-17.9512 0 -30.332 7.42871q-12.3799 7.42773 -21.665 16.4033q-9.28613 8.97656 -16.0947 16.4043q-6.80957 7.42773 -13 8.04688h-4.95215q-4.95215 0 -7.42773 -2.16602q-2.47656 -2.16699 -7.42871 -10.833q-13.6182 -19.8086 -34.665 -19.8086
q-4.33301 0 -7.42773 0.619141q2.47559 1.85645 2.47559 3.71387t-2.47559 4.95215q6.80859 1.85742 5.57129 7.42871q-1.23828 4.33301 -8.66699 3.09473q0 6.80957 -5.57031 6.80957q-4.95215 0 -4.95215 -6.80957q-7.42871 1.23828 -8.66699 -4.33301
q-8.04688 12.999 -8.04688 24.1416q0 6.19043 1.54785 10.5234q1.54688 4.33301 3.4043 7.42773q24.7607 43.332 62.5205 43.332q24.7607 0 38.0703 -7.42871q13.3086 -7.42773 21.0459 -16.7129l14.2383 -16.7139q6.49902 -7.42871 17.6416 -7.42871
q9.9043 0 12.999 7.42871q10.5234 23.5225 34.0459 23.5225q17.9521 0 29.0947 -12.0703q11.1416 -12.0713 11.1416 -26.9277q0 -16.0947 -6.49902 -27.2363q-6.5 -11.1426 -16.7139 -18.5713q-10.2139 -7.42773 -22.2842 -10.833q-12.0713 -3.4043 -22.5947 -3.4043
h-4.33301zM386.696 908.264q0 -5.57129 0.30957 -10.833q0.30957 -5.26074 0.30957 -10.2139q0 -14.2373 -4.95215 -26.3076q-4.95215 -12.0713 -13.3086 -22.2852q-8.35742 -10.2139 -18.8809 -18.8799q-10.5225 -8.66602 -22.2842 -16.7129
q-4.95215 -2.47656 -13.9277 -3.0957t-18.2607 -1.85742q-1.23828 3.0957 -1.54785 5.26172q-0.30957 2.16699 -0.30957 5.26172q0 8.66699 6.80859 26.3086q6.80957 17.6426 17.9521 31.8799q17.9512 22.2842 34.0459 30.0225q16.0947 7.7373 34.0459 11.4512z
M99.4717 674.275q4.95215 -0.619141 11.4521 -8.04785q6.5 -7.42773 16.0947 -16.0947q9.59473 -8.66602 23.2129 -15.7842q13.6182 -7.11914 33.4268 -7.11914q-0.619141 0 4.02344 -0.30957t12.0713 0.619141q7.42773 0.928711 16.7139 3.09473
q9.28516 2.16699 18.5703 6.5q17.332 6.80957 27.8555 21.666t10.5234 34.665q0 25.998 -17.9512 43.6406q-17.9521 17.6416 -43.9512 17.6416q-19.8086 0 -35.2832 -10.5234q-15.4756 -10.5225 -18.5713 -23.5225q-6.80859 3.0957 -14.2373 13
q-7.42773 9.9043 -19.8086 19.8086q17.9521 25.998 43.9502 36.5215q25.999 10.5234 53.8545 10.5234q13.6191 0 22.9043 -2.78516q9.28516 -2.78613 17.332 -6.5q8.04785 -3.71387 16.4043 -6.5q8.35645 -2.78516 19.499 -2.78516t19.1895 2.78516
q8.04785 2.78613 16.0947 6.5t17.332 6.5q9.28613 2.78516 23.5234 2.78516q27.2363 0 51.3779 -10.2139t45.8076 -35.5938q-14.2373 -9.28516 -24.4512 -18.5703t-16.7139 -20.4277q-6.49902 -11.1426 -9.59473 -24.4512q-3.09473 -13.3086 -3.09473 -31.2607
q0.619141 -24.1416 9.28516 -40.8545q8.66602 -16.7139 19.499 -27.5469t21.3564 -16.4033q10.5234 -5.57129 15.4756 -7.42871l-17.6426 -34.9746q-7.7373 -15.166 -14.8564 -26.6182q-7.11816 -11.4512 -14.2373 -20.7363q-7.11816 -9.28516 -15.7852 -17.333
l-8.35645 -8.66602t-9.59473 -7.42871q-5.57129 -3.09473 -13.6182 -5.26172q-8.04785 -2.16602 -20.4277 -2.16602q-11.1426 0 -19.499 2.78516l-12.0713 4.02344q-14.2373 6.80957 -22.2842 9.28613q-8.04785 2.47559 -16.7139 2.47559q-8.04688 0 -16.7139 -2.47559
q-8.66602 -2.47656 -22.9033 -9.28613l-10.833 -4.33301q-7.7373 -3.09473 -18.2607 -3.09473q-19.1895 0 -30.9512 6.80957q-11.7607 6.80859 -16.7129 11.7607q-22.9043 18.5703 -36.2129 39.6172t-26.3086 51.998q-4.95215 8.66602 -9.28516 21.3555
q-4.33301 12.6904 -7.42773 26.9277q-3.0957 14.2373 -5.26172 29.4033q-2.16699 15.166 -2.16699 29.4033q0 3.0957 0.30957 6.5t1.54785 6.5h3.09473zM21.4756 708.939q0 -3.09473 2.16602 -5.26074q2.16699 -2.16699 5.26172 -2.16699q3.0957 0 5.26172 2.16699
q2.16699 2.16602 2.16699 5.26074q0 7.42871 -7.42871 7.42871q-3.09473 0 -5.26172 -2.16699q-2.16602 -2.16602 -2.16602 -5.26172z" />
    <glyph glyph-name="thinspace" unicode="&#x2009;" horiz-adv-x="205" 
 />
    <glyph glyph-name="uni00AD" unicode="&#xad;" horiz-adv-x="420" 
d="M45 298q0 38 26.5 63.5t63.5 25.5h152q38 0 64 -25.5t26 -63.5t-26 -64t-64 -26h-152q-37 0 -63.5 26t-26.5 64z" />
    <glyph glyph-name="Agrave" unicode="&#xc0;" horiz-adv-x="694" 
d="M390 371v6l-38 209h-5l-41 -209v-6h84zM86 1q-31 0 -55.5 20t-24.5 56q0 25 14 45.5t38 29.5l154 533q8 28 30 44t51 16h111q27 0 50.5 -16t30.5 -44l154 -533q23 -9 38 -28t15 -48q0 -27 -17.5 -47.5t-44.5 -27.5h-173q-31 1 -54 22t-23 57q0 24 14.5 44.5t38.5 27.5
l3 1l-14 79h-146l-14 -80q25 -8 39.5 -27.5t14.5 -46.5q0 -28 -18 -50t-48 -27h-164zM300 802q-16 0 -25 11l-37 42q-15 16 -30.5 34.5t-26.5 29.5q-5 7 -6 14.5t2.5 14t9.5 11t14 4.5h109q20 0 28 -16l69 -106q8 -13 1 -26t-23 -13h-85z" />
    <glyph glyph-name="Aacute" unicode="&#xc1;" horiz-adv-x="694" 
d="M390 371v6l-38 209h-5l-41 -209v-6h84zM86 1q-31 0 -55.5 20t-24.5 56q0 25 14 45.5t38 29.5l154 533q8 28 30 44t51 16h111q27 0 50.5 -16t30.5 -44l154 -533q23 -9 38 -28t15 -48q0 -27 -17.5 -47.5t-44.5 -27.5h-173q-31 1 -54 22t-23 57q0 24 14.5 44.5t38.5 27.5
l3 1l-14 79h-146l-14 -80q25 -8 39.5 -27.5t14.5 -46.5q0 -28 -18 -50t-48 -27h-164zM324 801q-16 0 -23 13t1 26l67 106q10 16 28 16h111q8 0 14 -4.5t9 -11t2.5 -14t-5.5 -14.5l-94 -106q-11 -11 -26 -11h-84z" />
    <glyph glyph-name="Acircumflex" unicode="&#xc2;" horiz-adv-x="694" 
d="M390 371v6l-38 209h-5l-41 -209v-6h84zM86 1q-31 0 -55.5 20t-24.5 56q0 25 14 45.5t38 29.5l154 533q8 28 30 44t51 16h111q27 0 50.5 -16t30.5 -44l154 -533q23 -9 38 -28t15 -48q0 -27 -17.5 -47.5t-44.5 -27.5h-173q-31 1 -54 22t-23 57q0 24 14.5 44.5t38.5 27.5
l3 1l-14 79h-146l-14 -80q25 -8 39.5 -27.5t14.5 -46.5q0 -28 -18 -50t-48 -27h-164zM472 910q22 -20 24 -45.5t-14 -44.5q-17 -20 -42 -22t-45 14l-45 32l-55 -37q-22 -14 -46 -8t-37 27q-13 22 -7.5 44.5t27.5 39.5l79 64q19 17 40 17t42 -17z" />
    <glyph glyph-name="Atilde" unicode="&#xc3;" horiz-adv-x="694" 
d="M390 371v6l-38 209h-5l-41 -209v-6h84zM86 1q-31 0 -55.5 20t-24.5 56q0 25 14 45.5t38 29.5l154 533q8 28 30 44t51 16h111q27 0 50.5 -16t30.5 -44l154 -533q23 -9 38 -28t15 -48q0 -27 -17.5 -47.5t-44.5 -27.5h-173q-31 1 -54 22t-23 57q0 24 14.5 44.5t38.5 27.5
l3 1l-14 79h-146l-14 -80q25 -8 39.5 -27.5t14.5 -46.5q0 -28 -18 -50t-48 -27h-164zM302 860q-10 0 -17 -3.5t-13 -21.5q-11 -25 -34.5 -35.5t-47.5 -1.5q-25 11 -35.5 34.5t-1.5 47.5q26 87 117 87q34 0 53.5 -11.5t32.5 -24.5q10 -10 19.5 -16.5t21.5 -6.5q23 0 27 15
q7 26 29 39t48 6q25 -7 39 -29.5t6 -48.5q-13 -45 -42 -67.5t-74 -22.5q-36 0 -55.5 12.5t-40.5 30t-32 17.5z" />
    <glyph glyph-name="Adieresis" unicode="&#xc4;" horiz-adv-x="694" 
d="M390 371v6l-38 209h-5l-41 -209v-6h84zM86 1q-31 0 -55.5 20t-24.5 56q0 25 14 45.5t38 29.5l154 533q8 28 30 44t51 16h111q27 0 50.5 -16t30.5 -44l154 -533q23 -9 38 -28t15 -48q0 -27 -17.5 -47.5t-44.5 -27.5h-173q-31 1 -54 22t-23 57q0 24 14.5 44.5t38.5 27.5
l3 1l-14 79h-146l-14 -80q25 -8 39.5 -27.5t14.5 -46.5q0 -28 -18 -50t-48 -27h-164zM153 869q0 31 21 52.5t51 21.5q31 0 52.5 -21.5t21.5 -52.5q0 -30 -21.5 -51t-52.5 -21q-30 0 -51 21t-21 51zM398 869q0 31 21 52.5t52 21.5q30 0 51.5 -21.5t21.5 -52.5
q0 -30 -21.5 -51t-51.5 -21q-31 0 -52 21t-21 51z" />
    <glyph glyph-name="Aring" unicode="&#xc5;" horiz-adv-x="694" 
d="M390 371v6l-38 209h-5l-41 -209v-6h84zM86 1q-31 0 -55.5 20t-24.5 56q0 25 14 45.5t38 29.5l154 533q8 28 30 44t51 16h111q27 0 50.5 -16t30.5 -44l154 -533q23 -9 38 -28t15 -48q0 -27 -17.5 -47.5t-44.5 -27.5h-173q-31 1 -54 22t-23 57q0 24 14.5 44.5t38.5 27.5
l3 1l-14 79h-146l-14 -80q25 -8 39.5 -27.5t14.5 -46.5q0 -28 -18 -50t-48 -27h-164zM312 885q0 -20 10.5 -33.5t26.5 -13.5t26.5 13.5t10.5 33.5q0 19 -10.5 33t-26.5 14t-26.5 -14t-10.5 -33zM228 885q0 20 9.5 38t26 31.5t38 21t47.5 7.5q25 0 47 -7.5t38.5 -21t26 -31.5
t9.5 -38q0 -19 -9.5 -37t-26 -31.5t-38.5 -21t-47 -7.5q-26 0 -47.5 7.5t-38 21t-26 31.5t-9.5 37z" />
    <glyph glyph-name="Ccedilla" unicode="&#xc7;" horiz-adv-x="705" 
d="M23 373q0 85 28.5 155.5t77.5 121t114.5 79.5t141.5 29q21 0 50 -3t61 -9.5t63 -17.5t55.5 -27t40.5 -39t16 -66q0 -68 -30.5 -91t-64.5 -23q-27 0 -51 14.5t-37 41.5q-14 27 -30 32t-32.5 6.5t-30.5 1.5q-72 0 -115.5 -47t-43.5 -145q0 -55 12.5 -96.5t35.5 -68.5
t54.5 -40.5t68.5 -13.5q23 0 48 5t35 21q8 33 34 52t59 19q20 0 38 -8t31 -21t20.5 -30.5t7.5 -36.5q-1 -70 -45 -108q-79 -73 -215 -73h-14.5t-15.5 1q-79 0 -146 29.5t-116 81t-77 122t-28 152.5zM287 -113l-8 1q-7 3 -9.5 9t-0.5 14l37 112l79 -21l-22 -61
q41 -2 70.5 -24t29.5 -66q0 -28 -13.5 -47.5t-34 -32.5t-46.5 -19t-51 -6q-21 0 -41 3q-16 2 -25.5 14.5t-7.5 28.5q1 16 14 26t29 8h7q6 0 14 1.5t15 4.5t11.5 9t4.5 15q0 11 -4.5 17t-12.5 9t-17.5 4t-17.5 1z" />
    <glyph glyph-name="Egrave" unicode="&#xc8;" 
d="M597 72q0 -30 -21 -50.5t-51 -21.5h-28h-104h-110t-98.5 0.5t-67.5 0.5q-36 2 -54 22t-20 50q-1 15 4.5 29.5t15 25t23.5 17.5t30 8v440q-31 2 -51 22.5t-22 50.5q-1 15 5 29.5t15.5 25t23.5 17t30 7.5h391q32 0 55.5 -23.5t23.5 -55.5v-66q1 -32 -18 -56.5t-51 -31.5
q-18 -3 -35 0.5t-30.5 12.5t-23.5 23t-14 32h-94v-120h98q35 0 59.5 -24.5t24.5 -59.5t-24.5 -59.5t-59.5 -24.5h-98v-125h102q8 32 34 51.5t59 16.5q37 -4 60.5 -31.5t20.5 -64.5v-67zM280 801q-16 0 -25 11l-37 42q-15 16 -30.5 34.5t-26.5 29.5q-5 7 -6 14.5t2.5 14
t9.5 11t14 4.5h109q20 0 28 -16l69 -106q8 -13 1 -26t-23 -13h-85z" />
    <glyph glyph-name="Eacute" unicode="&#xc9;" 
d="M597 72q0 -30 -21 -50.5t-51 -21.5h-28h-104h-110t-98.5 0.5t-67.5 0.5q-36 2 -54 22t-20 50q-1 15 4.5 29.5t15 25t23.5 17.5t30 8v440q-31 2 -51 22.5t-22 50.5q-1 15 5 29.5t15.5 25t23.5 17t30 7.5h391q32 0 55.5 -23.5t23.5 -55.5v-66q1 -32 -18 -56.5t-51 -31.5
q-18 -3 -35 0.5t-30.5 12.5t-23.5 23t-14 32h-94v-120h98q35 0 59.5 -24.5t24.5 -59.5t-24.5 -59.5t-59.5 -24.5h-98v-125h102q8 32 34 51.5t59 16.5q37 -4 60.5 -31.5t20.5 -64.5v-67zM303 802q-16 0 -23 13t1 26l67 106q10 16 28 16h111q8 0 14 -4.5t9 -11t2.5 -14
t-5.5 -14.5l-94 -106q-11 -11 -26 -11h-84z" />
    <glyph glyph-name="Ecircumflex" unicode="&#xca;" 
d="M597 72q0 -30 -21 -50.5t-51 -21.5h-28h-104h-110t-98.5 0.5t-67.5 0.5q-36 2 -54 22t-20 50q-1 15 4.5 29.5t15 25t23.5 17.5t30 8v440q-31 2 -51 22.5t-22 50.5q-1 15 5 29.5t15.5 25t23.5 17t30 7.5h391q32 0 55.5 -23.5t23.5 -55.5v-66q1 -32 -18 -56.5t-51 -31.5
q-18 -3 -35 0.5t-30.5 12.5t-23.5 23t-14 32h-94v-120h98q35 0 59.5 -24.5t24.5 -59.5t-24.5 -59.5t-59.5 -24.5h-98v-125h102q8 32 34 51.5t59 16.5q37 -4 60.5 -31.5t20.5 -64.5v-67zM439 908q22 -20 24 -45.5t-14 -44.5q-17 -20 -42 -22t-45 14l-45 32l-55 -37
q-22 -14 -46 -8t-37 27q-13 22 -7.5 44.5t27.5 39.5l79 64q19 17 40 17t42 -17z" />
    <glyph glyph-name="Edieresis" unicode="&#xcb;" 
d="M597 72q0 -30 -21 -50.5t-51 -21.5h-28h-104h-110t-98.5 0.5t-67.5 0.5q-36 2 -54 22t-20 50q-1 15 4.5 29.5t15 25t23.5 17.5t30 8v440q-31 2 -51 22.5t-22 50.5q-1 15 5 29.5t15.5 25t23.5 17t30 7.5h391q32 0 55.5 -23.5t23.5 -55.5v-66q1 -32 -18 -56.5t-51 -31.5
q-18 -3 -35 0.5t-30.5 12.5t-23.5 23t-14 32h-94v-120h98q35 0 59.5 -24.5t24.5 -59.5t-24.5 -59.5t-59.5 -24.5h-98v-125h102q8 32 34 51.5t59 16.5q37 -4 60.5 -31.5t20.5 -64.5v-67zM119 868q0 31 21 52.5t51 21.5q31 0 52.5 -21.5t21.5 -52.5q0 -30 -21.5 -51t-52.5 -21
q-30 0 -51 21t-21 51zM364 868q0 31 21 52.5t52 21.5q30 0 51.5 -21.5t21.5 -52.5q0 -30 -21.5 -51t-51.5 -21q-31 0 -52 21t-21 51z" />
    <glyph glyph-name="Ograve" unicode="&#xd2;" horiz-adv-x="769" 
d="M23 377q0 79 27 148.5t75 121.5t115 81.5t147 29.5t147 -29.5t115 -81.5t75 -121.5t27 -148.5q0 -82 -27 -153t-75 -123.5t-115 -82.5t-147 -30t-147 30t-115 82.5t-75 123.5t-27 153zM236 377q0 -44 12 -81t32.5 -64.5t48 -43t58.5 -15.5t58.5 15.5t48.5 43t33 64.5
t12 81q0 42 -12 77.5t-33 62t-48.5 41t-58.5 14.5t-58.5 -14.5t-48 -41t-32.5 -62t-12 -77.5zM334 801q-16 0 -25 11l-37 42q-15 16 -30.5 34.5t-26.5 29.5q-5 7 -6 14.5t2.5 14t9.5 11t14 4.5h109q20 0 28 -16l69 -106q8 -13 1 -26t-23 -13h-85z" />
    <glyph glyph-name="Oacute" unicode="&#xd3;" horiz-adv-x="769" 
d="M23 377q0 79 27 148.5t75 121.5t115 81.5t147 29.5t147 -29.5t115 -81.5t75 -121.5t27 -148.5q0 -82 -27 -153t-75 -123.5t-115 -82.5t-147 -30t-147 30t-115 82.5t-75 123.5t-27 153zM236 377q0 -44 12 -81t32.5 -64.5t48 -43t58.5 -15.5t58.5 15.5t48.5 43t33 64.5
t12 81q0 42 -12 77.5t-33 62t-48.5 41t-58.5 14.5t-58.5 -14.5t-48 -41t-32.5 -62t-12 -77.5zM357 802q-16 0 -23 13t1 26l67 106q10 16 28 16h111q8 0 14 -4.5t9 -11t2.5 -14t-5.5 -14.5l-94 -106q-11 -11 -26 -11h-84z" />
    <glyph glyph-name="Ocircumflex" unicode="&#xd4;" horiz-adv-x="769" 
d="M23 377q0 79 27 148.5t75 121.5t115 81.5t147 29.5t147 -29.5t115 -81.5t75 -121.5t27 -148.5q0 -82 -27 -153t-75 -123.5t-115 -82.5t-147 -30t-147 30t-115 82.5t-75 123.5t-27 153zM236 377q0 -44 12 -81t32.5 -64.5t48 -43t58.5 -15.5t58.5 15.5t48.5 43t33 64.5
t12 81q0 42 -12 77.5t-33 62t-48.5 41t-58.5 14.5t-58.5 -14.5t-48 -41t-32.5 -62t-12 -77.5zM511 909q22 -20 24 -45.5t-14 -44.5q-17 -20 -42 -22t-45 14l-45 32l-55 -37q-22 -14 -46 -8t-37 27q-13 22 -7.5 44.5t27.5 39.5l79 64q19 17 40 17t42 -17z" />
    <glyph glyph-name="Otilde" unicode="&#xd5;" horiz-adv-x="769" 
d="M23 377q0 79 27 148.5t75 121.5t115 81.5t147 29.5t147 -29.5t115 -81.5t75 -121.5t27 -148.5q0 -82 -27 -153t-75 -123.5t-115 -82.5t-147 -30t-147 30t-115 82.5t-75 123.5t-27 153zM236 377q0 -44 12 -81t32.5 -64.5t48 -43t58.5 -15.5t58.5 15.5t48.5 43t33 64.5
t12 81q0 42 -12 77.5t-33 62t-48.5 41t-58.5 14.5t-58.5 -14.5t-48 -41t-32.5 -62t-12 -77.5zM341 861q-10 0 -17 -3.5t-13 -21.5q-11 -25 -34.5 -35.5t-47.5 -1.5q-25 11 -35.5 34.5t-1.5 47.5q26 87 117 87q34 0 53.5 -11.5t32.5 -24.5q10 -10 19.5 -16.5t21.5 -6.5
q23 0 27 15q7 26 29 39t48 6q25 -7 39 -29.5t6 -48.5q-13 -45 -42 -67.5t-74 -22.5q-36 0 -55.5 12.5t-40.5 30t-32 17.5z" />
    <glyph glyph-name="Odieresis" unicode="&#xd6;" horiz-adv-x="769" 
d="M23 377q0 79 27 148.5t75 121.5t115 81.5t147 29.5t147 -29.5t115 -81.5t75 -121.5t27 -148.5q0 -82 -27 -153t-75 -123.5t-115 -82.5t-147 -30t-147 30t-115 82.5t-75 123.5t-27 153zM236 377q0 -44 12 -81t32.5 -64.5t48 -43t58.5 -15.5t58.5 15.5t48.5 43t33 64.5
t12 81q0 42 -12 77.5t-33 62t-48.5 41t-58.5 14.5t-58.5 -14.5t-48 -41t-32.5 -62t-12 -77.5zM193 869q0 31 21 52.5t51 21.5q31 0 52.5 -21.5t21.5 -52.5q0 -30 -21.5 -51t-52.5 -21q-30 0 -51 21t-21 51zM438 869q0 31 21 52.5t52 21.5q30 0 51.5 -21.5t21.5 -52.5
q0 -30 -21.5 -51t-51.5 -21q-31 0 -52 21t-21 51z" />
    <glyph glyph-name="Ugrave" unicode="&#xd9;" horiz-adv-x="781" 
d="M93 592q-15 1 -28 7.5t-22.5 16.5t-15 23t-5.5 28q0 30 20.5 53t50.5 24h207q29 -1 49.5 -23t20.5 -53q0 -15 -5 -28t-14.5 -23.5t-22.5 -17t-28 -7.5v-306q0 -57 25 -85t70 -28q38 0 65 27t27 86v306q-31 3 -51 24.5t-20 51.5q0 29 20 51.5t50 24.5h208
q31 -1 51.5 -23.5t20.5 -52.5t-21 -52t-51 -24v-305q0 -77 -24.5 -133.5t-65.5 -93.5t-95.5 -54.5t-114.5 -17.5q-71 0 -127 20.5t-95 59.5t-59 94t-20 125v305zM338 801q-16 0 -25 11l-37 42q-15 16 -30.5 34.5t-26.5 29.5q-5 7 -6 14.5t2.5 14t9.5 11t14 4.5h109
q20 0 28 -16l69 -106q8 -13 1 -26t-23 -13h-85z" />
    <glyph glyph-name="Uacute" unicode="&#xda;" horiz-adv-x="781" 
d="M93 592q-15 1 -28 7.5t-22.5 16.5t-15 23t-5.5 28q0 30 20.5 53t50.5 24h207q29 -1 49.5 -23t20.5 -53q0 -15 -5 -28t-14.5 -23.5t-22.5 -17t-28 -7.5v-306q0 -57 25 -85t70 -28q38 0 65 27t27 86v306q-31 3 -51 24.5t-20 51.5q0 29 20 51.5t50 24.5h208
q31 -1 51.5 -23.5t20.5 -52.5t-21 -52t-51 -24v-305q0 -77 -24.5 -133.5t-65.5 -93.5t-95.5 -54.5t-114.5 -17.5q-71 0 -127 20.5t-95 59.5t-59 94t-20 125v305zM361 801q-16 0 -23 13t1 26l67 106q10 16 28 16h111q8 0 14 -4.5t9 -11t2.5 -14t-5.5 -14.5l-94 -106
q-11 -11 -26 -11h-84z" />
    <glyph glyph-name="Ucircumflex" unicode="&#xdb;" horiz-adv-x="781" 
d="M93 592q-15 1 -28 7.5t-22.5 16.5t-15 23t-5.5 28q0 30 20.5 53t50.5 24h207q29 -1 49.5 -23t20.5 -53q0 -15 -5 -28t-14.5 -23.5t-22.5 -17t-28 -7.5v-306q0 -57 25 -85t70 -28q38 0 65 27t27 86v306q-31 3 -51 24.5t-20 51.5q0 29 20 51.5t50 24.5h208
q31 -1 51.5 -23.5t20.5 -52.5t-21 -52t-51 -24v-305q0 -77 -24.5 -133.5t-65.5 -93.5t-95.5 -54.5t-114.5 -17.5q-71 0 -127 20.5t-95 59.5t-59 94t-20 125v305zM518 908q22 -20 24 -45.5t-14 -44.5q-17 -20 -42 -22t-45 14l-45 32l-55 -37q-22 -14 -46 -8t-37 27
q-13 22 -7.5 44.5t27.5 39.5l79 64q19 17 40 17t42 -17z" />
    <glyph glyph-name="Udieresis" unicode="&#xdc;" horiz-adv-x="781" 
d="M93 592q-15 1 -28 7.5t-22.5 16.5t-15 23t-5.5 28q0 30 20.5 53t50.5 24h207q29 -1 49.5 -23t20.5 -53q0 -15 -5 -28t-14.5 -23.5t-22.5 -17t-28 -7.5v-306q0 -57 25 -85t70 -28q38 0 65 27t27 86v306q-31 3 -51 24.5t-20 51.5q0 29 20 51.5t50 24.5h208
q31 -1 51.5 -23.5t20.5 -52.5t-21 -52t-51 -24v-305q0 -77 -24.5 -133.5t-65.5 -93.5t-95.5 -54.5t-114.5 -17.5q-71 0 -127 20.5t-95 59.5t-59 94t-20 125v305zM199 869q0 31 21 52.5t51 21.5q31 0 52.5 -21.5t21.5 -52.5q0 -30 -21.5 -51t-52.5 -21q-30 0 -51 21t-21 51z
M444 869q0 31 21 52.5t52 21.5q30 0 51.5 -21.5t21.5 -52.5q0 -30 -21.5 -51t-51.5 -21q-31 0 -52 21t-21 51z" />
    <glyph glyph-name="agrave" unicode="&#xe0;" horiz-adv-x="558" 
d="M13 147q0 57 29 92t70 53t84.5 23.5t71.5 5.5h28v30q0 21 -16.5 30t-36.5 9q-14 0 -26.5 -3.5t-25 -8t-26 -7.5t-27.5 -3q-31 0 -55 23t-24 56q0 27 16.5 46.5t45 32.5t66.5 19t80 6q111 0 170.5 -57.5t59.5 -167.5v-151q0 -18 7 -25q21 -10 34.5 -28t13.5 -41
q0 -35 -22.5 -58t-55.5 -23h-90q-17 0 -30.5 6t-22 15.5t-12 20.5t-2.5 20l1 15h-4q-5 -13 -15 -27t-27 -27.5t-41 -22.5t-57 -9t-62 11t-51 32t-35 49.5t-13 63.5zM206 168q0 -20 10 -31.5t24 -11.5q20 0 39.5 21t19.5 61v26h-11q-23 0 -38.5 -6t-25.5 -15t-14 -20.5
t-4 -23.5zM225 589q-16 0 -25 11l-37 42q-15 16 -30.5 34.5t-26.5 29.5q-5 7 -6 14.5t2.5 14t9.5 11t14 4.5h109q20 0 28 -16l69 -106q8 -13 1 -26t-23 -13h-85z" />
    <glyph glyph-name="aacute" unicode="&#xe1;" horiz-adv-x="558" 
d="M13 147q0 57 29 92t70 53t84.5 23.5t71.5 5.5h28v30q0 21 -16.5 30t-36.5 9q-14 0 -26.5 -3.5t-25 -8t-26 -7.5t-27.5 -3q-31 0 -55 23t-24 56q0 27 16.5 46.5t45 32.5t66.5 19t80 6q111 0 170.5 -57.5t59.5 -167.5v-151q0 -18 7 -25q21 -10 34.5 -28t13.5 -41
q0 -35 -22.5 -58t-55.5 -23h-90q-17 0 -30.5 6t-22 15.5t-12 20.5t-2.5 20l1 15h-4q-5 -13 -15 -27t-27 -27.5t-41 -22.5t-57 -9t-62 11t-51 32t-35 49.5t-13 63.5zM206 168q0 -20 10 -31.5t24 -11.5q20 0 39.5 21t19.5 61v26h-11q-23 0 -38.5 -6t-25.5 -15t-14 -20.5
t-4 -23.5zM231 590q-16 0 -23 13t1 26l67 106q10 16 28 16h111q8 0 14 -4.5t9 -11t2.5 -14t-5.5 -14.5l-94 -106q-11 -11 -26 -11h-84z" />
    <glyph glyph-name="acircumflex" unicode="&#xe2;" horiz-adv-x="558" 
d="M13 147q0 57 29 92t70 53t84.5 23.5t71.5 5.5h28v30q0 21 -16.5 30t-36.5 9q-14 0 -26.5 -3.5t-25 -8t-26 -7.5t-27.5 -3q-31 0 -55 23t-24 56q0 27 16.5 46.5t45 32.5t66.5 19t80 6q111 0 170.5 -57.5t59.5 -167.5v-151q0 -18 7 -25q21 -10 34.5 -28t13.5 -41
q0 -35 -22.5 -58t-55.5 -23h-90q-17 0 -30.5 6t-22 15.5t-12 20.5t-2.5 20l1 15h-4q-5 -13 -15 -27t-27 -27.5t-41 -22.5t-57 -9t-62 11t-51 32t-35 49.5t-13 63.5zM206 168q0 -20 10 -31.5t24 -11.5q20 0 39.5 21t19.5 61v26h-11q-23 0 -38.5 -6t-25.5 -15t-14 -20.5
t-4 -23.5zM389 698q22 -20 24 -45.5t-14 -44.5q-17 -20 -42 -22t-45 14l-45 32l-55 -37q-22 -14 -46 -8t-37 27q-13 22 -7.5 44.5t27.5 39.5l79 64q19 17 40 17t42 -17z" />
    <glyph glyph-name="atilde" unicode="&#xe3;" horiz-adv-x="558" 
d="M13 147q0 57 29 92t70 53t84.5 23.5t71.5 5.5h28v30q0 21 -16.5 30t-36.5 9q-14 0 -26.5 -3.5t-25 -8t-26 -7.5t-27.5 -3q-31 0 -55 23t-24 56q0 27 16.5 46.5t45 32.5t66.5 19t80 6q111 0 170.5 -57.5t59.5 -167.5v-151q0 -18 7 -25q21 -10 34.5 -28t13.5 -41
q0 -35 -22.5 -58t-55.5 -23h-90q-17 0 -30.5 6t-22 15.5t-12 20.5t-2.5 20l1 15h-4q-5 -13 -15 -27t-27 -27.5t-41 -22.5t-57 -9t-62 11t-51 32t-35 49.5t-13 63.5zM206 168q0 -20 10 -31.5t24 -11.5q20 0 39.5 21t19.5 61v26h-11q-23 0 -38.5 -6t-25.5 -15t-14 -20.5
t-4 -23.5zM230 649q-10 0 -17 -3.5t-13 -21.5q-11 -25 -34.5 -35.5t-47.5 -1.5q-25 11 -35.5 34.5t-1.5 47.5q26 87 117 87q34 0 53.5 -11.5t32.5 -24.5q10 -10 19.5 -16.5t21.5 -6.5q23 0 27 15q7 26 29 39t48 6q25 -7 39 -29.5t6 -48.5q-13 -45 -42 -67.5t-74 -22.5
q-36 0 -55.5 12.5t-40.5 30t-32 17.5z" />
    <glyph glyph-name="adieresis" unicode="&#xe4;" horiz-adv-x="558" 
d="M13 147q0 57 29 92t70 53t84.5 23.5t71.5 5.5h28v30q0 21 -16.5 30t-36.5 9q-14 0 -26.5 -3.5t-25 -8t-26 -7.5t-27.5 -3q-31 0 -55 23t-24 56q0 27 16.5 46.5t45 32.5t66.5 19t80 6q111 0 170.5 -57.5t59.5 -167.5v-151q0 -18 7 -25q21 -10 34.5 -28t13.5 -41
q0 -35 -22.5 -58t-55.5 -23h-90q-17 0 -30.5 6t-22 15.5t-12 20.5t-2.5 20l1 15h-4q-5 -13 -15 -27t-27 -27.5t-41 -22.5t-57 -9t-62 11t-51 32t-35 49.5t-13 63.5zM206 168q0 -20 10 -31.5t24 -11.5q20 0 39.5 21t19.5 61v26h-11q-23 0 -38.5 -6t-25.5 -15t-14 -20.5
t-4 -23.5zM82 658q0 31 21 52.5t51 21.5q31 0 52.5 -21.5t21.5 -52.5q0 -30 -21.5 -51t-52.5 -21q-30 0 -51 21t-21 51zM327 658q0 31 21 52.5t52 21.5q30 0 51.5 -21.5t21.5 -52.5q0 -30 -21.5 -51t-51.5 -21q-31 0 -52 21t-21 51z" />
    <glyph glyph-name="aring" unicode="&#xe5;" horiz-adv-x="558" 
d="M13 147q0 57 29 92t70 53t84.5 23.5t71.5 5.5h28v30q0 21 -16.5 30t-36.5 9q-14 0 -26.5 -3.5t-25 -8t-26 -7.5t-27.5 -3q-31 0 -55 23t-24 56q0 27 16.5 46.5t45 32.5t66.5 19t80 6q111 0 170.5 -57.5t59.5 -167.5v-151q0 -18 7 -25q21 -10 34.5 -28t13.5 -41
q0 -35 -22.5 -58t-55.5 -23h-90q-17 0 -30.5 6t-22 15.5t-12 20.5t-2.5 20l1 15h-4q-5 -13 -15 -27t-27 -27.5t-41 -22.5t-57 -9t-62 11t-51 32t-35 49.5t-13 63.5zM206 168q0 -20 10 -31.5t24 -11.5q20 0 39.5 21t19.5 61v26h-11q-23 0 -38.5 -6t-25.5 -15t-14 -20.5
t-4 -23.5zM242 677q0 -20 10.5 -33.5t26.5 -13.5t26.5 13.5t10.5 33.5q0 19 -10.5 33t-26.5 14t-26.5 -14t-10.5 -33zM158 677q0 20 9.5 38t26 31.5t38 21t47.5 7.5q25 0 47 -7.5t38.5 -21t26 -31.5t9.5 -38q0 -19 -9.5 -37t-26 -31.5t-38.5 -21t-47 -7.5q-26 0 -47.5 7.5
t-38 21t-26 31.5t-9.5 37z" />
    <glyph glyph-name="egrave" unicode="&#xe8;" horiz-adv-x="531" 
d="M15 274q0 54 17.5 104t50.5 88.5t81.5 61.5t110.5 23q51 0 92 -15.5t71 -43.5t52.5 -67t23.5 -94q0 -38 -26 -64t-64 -26h-208v-6q12 -46 39 -61.5t55 -15.5q17 0 31.5 3t27 7.5l22.5 8t19 3.5q16 0 31 -6.5t27 -17t19 -26t7 -34.5q0 -26 -15.5 -46.5t-42 -34t-63 -20.5
t-79.5 -7q-72 0 -124.5 25t-87 65t-51 91.5t-16.5 104.5zM315 326q0 19 -1.5 33.5t-6 26.5t-13 19.5t-25.5 7.5q-26 -1 -35.5 -26.5t-13.5 -60.5h95zM227 589q-16 0 -25 11l-37 42q-15 16 -30.5 34.5t-26.5 29.5q-5 7 -6 14.5t2.5 14t9.5 11t14 4.5h109q20 0 28 -16l69 -106
q8 -13 1 -26t-23 -13h-85z" />
    <glyph glyph-name="eacute" unicode="&#xe9;" horiz-adv-x="531" 
d="M15 274q0 54 17.5 104t50.5 88.5t81.5 61.5t110.5 23q51 0 92 -15.5t71 -43.5t52.5 -67t23.5 -94q0 -38 -26 -64t-64 -26h-208v-6q12 -46 39 -61.5t55 -15.5q17 0 31.5 3t27 7.5l22.5 8t19 3.5q16 0 31 -6.5t27 -17t19 -26t7 -34.5q0 -26 -15.5 -46.5t-42 -34t-63 -20.5
t-79.5 -7q-72 0 -124.5 25t-87 65t-51 91.5t-16.5 104.5zM315 326q0 19 -1.5 33.5t-6 26.5t-13 19.5t-25.5 7.5q-26 -1 -35.5 -26.5t-13.5 -60.5h95zM243 590q-16 0 -23 13t1 26l67 106q10 16 28 16h111q8 0 14 -4.5t9 -11t2.5 -14t-5.5 -14.5l-94 -106q-11 -11 -26 -11h-84
z" />
    <glyph glyph-name="ecircumflex" unicode="&#xea;" horiz-adv-x="531" 
d="M15 274q0 54 17.5 104t50.5 88.5t81.5 61.5t110.5 23q51 0 92 -15.5t71 -43.5t52.5 -67t23.5 -94q0 -38 -26 -64t-64 -26h-208v-6q12 -46 39 -61.5t55 -15.5q17 0 31.5 3t27 7.5l22.5 8t19 3.5q16 0 31 -6.5t27 -17t19 -26t7 -34.5q0 -26 -15.5 -46.5t-42 -34t-63 -20.5
t-79.5 -7q-72 0 -124.5 25t-87 65t-51 91.5t-16.5 104.5zM315 326q0 19 -1.5 33.5t-6 26.5t-13 19.5t-25.5 7.5q-26 -1 -35.5 -26.5t-13.5 -60.5h95zM392 698q22 -20 24 -45.5t-14 -44.5q-17 -20 -42 -22t-45 14l-45 32l-55 -37q-22 -14 -46 -8t-37 27q-13 22 -7.5 44.5
t27.5 39.5l79 64q19 17 40 17t42 -17z" />
    <glyph glyph-name="edieresis" unicode="&#xeb;" horiz-adv-x="531" 
d="M15 274q0 54 17.5 104t50.5 88.5t81.5 61.5t110.5 23q51 0 92 -15.5t71 -43.5t52.5 -67t23.5 -94q0 -38 -26 -64t-64 -26h-208v-6q12 -46 39 -61.5t55 -15.5q17 0 31.5 3t27 7.5l22.5 8t19 3.5q16 0 31 -6.5t27 -17t19 -26t7 -34.5q0 -26 -15.5 -46.5t-42 -34t-63 -20.5
t-79.5 -7q-72 0 -124.5 25t-87 65t-51 91.5t-16.5 104.5zM315 326q0 19 -1.5 33.5t-6 26.5t-13 19.5t-25.5 7.5q-26 -1 -35.5 -26.5t-13.5 -60.5h95zM70 658q0 31 21 52.5t51 21.5q31 0 52.5 -21.5t21.5 -52.5q0 -30 -21.5 -51t-52.5 -21q-30 0 -51 21t-21 51zM315 658
q0 31 21 52.5t52 21.5q30 0 51.5 -21.5t21.5 -52.5q0 -30 -21.5 -51t-51.5 -21q-31 0 -52 21t-21 51z" />
    <glyph glyph-name="ccedilla" unicode="&#xe7;" horiz-adv-x="539" 
d="M13 268q0 57 20 108.5t56 90t87 61.5t114 23q42 0 83.5 -8t74 -25t53 -44t20.5 -72q0 -18 -7 -34t-19.5 -28.5t-29.5 -20t-36 -7.5q-26 0 -47.5 12.5t-33.5 37.5q-13 17 -49 17q-25 0 -41 -8.5t-26 -23t-14 -33t-4 -38.5q0 -33 8 -55.5t22 -36.5t32.5 -20t40.5 -6
q19 0 36.5 5l47.5 14q14 4 27 4q16 0 31 -6.5t27 -17.5t19 -26.5t7 -33.5q0 -35 -23.5 -56.5t-56.5 -33.5t-68.5 -15.5t-59.5 -3.5q-57 0 -109 18.5t-92.5 54.5t-65 88t-24.5 119zM204 -113l-8 1q-7 3 -9.5 9t-0.5 14l37 112l79 -21l-22 -61q41 -2 70.5 -24t29.5 -66
q0 -28 -13.5 -47.5t-34 -32.5t-46.5 -19t-51 -6q-21 0 -41 3q-16 2 -25.5 14.5t-7.5 28.5q1 16 14 26t29 8h7q6 0 14 1.5t15 4.5t11.5 9t4.5 15q0 11 -4.5 17t-12.5 9t-17.5 4t-17.5 1z" />
    <glyph glyph-name="ograve" unicode="&#xf2;" horiz-adv-x="598" 
d="M13 267q0 64 22.5 116t61.5 89.5t91.5 58t112.5 20.5t113 -20.5t92 -58t61.5 -89.5t22.5 -116t-22.5 -115.5t-61.5 -88t-91.5 -56t-112.5 -19.5t-112.5 19.5t-92 56t-62 88t-22.5 115.5zM215 267q0 -54 26 -81t61 -27t60.5 27t25.5 81q0 53 -25.5 82.5t-60.5 29.5
t-61 -29.5t-26 -82.5zM244 589q-16 0 -25 11l-37 42q-15 16 -30.5 34.5t-26.5 29.5q-5 7 -6 14.5t2.5 14t9.5 11t14 4.5h109q20 0 28 -16l69 -106q8 -13 1 -26t-23 -13h-85z" />
    <glyph glyph-name="oacute" unicode="&#xf3;" horiz-adv-x="598" 
d="M13 267q0 64 22.5 116t61.5 89.5t91.5 58t112.5 20.5t113 -20.5t92 -58t61.5 -89.5t22.5 -116t-22.5 -115.5t-61.5 -88t-91.5 -56t-112.5 -19.5t-112.5 19.5t-92 56t-62 88t-22.5 115.5zM215 267q0 -54 26 -81t61 -27t60.5 27t25.5 81q0 53 -25.5 82.5t-60.5 29.5
t-61 -29.5t-26 -82.5zM279 590q-16 0 -23 13t1 26l67 106q10 16 28 16h111q8 0 14 -4.5t9 -11t2.5 -14t-5.5 -14.5l-94 -106q-11 -11 -26 -11h-84z" />
    <glyph glyph-name="ocircumflex" unicode="&#xf4;" horiz-adv-x="598" 
d="M13 267q0 64 22.5 116t61.5 89.5t91.5 58t112.5 20.5t113 -20.5t92 -58t61.5 -89.5t22.5 -116t-22.5 -115.5t-61.5 -88t-91.5 -56t-112.5 -19.5t-112.5 19.5t-92 56t-62 88t-22.5 115.5zM215 267q0 -54 26 -81t61 -27t60.5 27t25.5 81q0 53 -25.5 82.5t-60.5 29.5
t-61 -29.5t-26 -82.5zM422 696q22 -20 24 -45.5t-14 -44.5q-17 -20 -42 -22t-45 14l-45 32l-55 -37q-22 -14 -46 -8t-37 27q-13 22 -7.5 44.5t27.5 39.5l79 64q19 17 40 17t42 -17z" />
    <glyph glyph-name="otilde" unicode="&#xf5;" horiz-adv-x="598" 
d="M13 267q0 64 22.5 116t61.5 89.5t91.5 58t112.5 20.5t113 -20.5t92 -58t61.5 -89.5t22.5 -116t-22.5 -115.5t-61.5 -88t-91.5 -56t-112.5 -19.5t-112.5 19.5t-92 56t-62 88t-22.5 115.5zM215 267q0 -54 26 -81t61 -27t60.5 27t25.5 81q0 53 -25.5 82.5t-60.5 29.5
t-61 -29.5t-26 -82.5zM252 649q-10 0 -17 -3.5t-13 -21.5q-11 -25 -34.5 -35.5t-47.5 -1.5q-25 11 -35.5 34.5t-1.5 47.5q26 87 117 87q34 0 53.5 -11.5t32.5 -24.5q10 -10 19.5 -16.5t21.5 -6.5q23 0 27 15q7 26 29 39t48 6q25 -7 39 -29.5t6 -48.5q-13 -45 -42 -67.5
t-74 -22.5q-36 0 -55.5 12.5t-40.5 30t-32 17.5z" />
    <glyph glyph-name="odieresis" unicode="&#xf6;" horiz-adv-x="598" 
d="M13 267q0 64 22.5 116t61.5 89.5t91.5 58t112.5 20.5t113 -20.5t92 -58t61.5 -89.5t22.5 -116t-22.5 -115.5t-61.5 -88t-91.5 -56t-112.5 -19.5t-112.5 19.5t-92 56t-62 88t-22.5 115.5zM215 267q0 -54 26 -81t61 -27t60.5 27t25.5 81q0 53 -25.5 82.5t-60.5 29.5
t-61 -29.5t-26 -82.5zM106 658q0 31 21 52.5t51 21.5q31 0 52.5 -21.5t21.5 -52.5q0 -30 -21.5 -51t-52.5 -21q-30 0 -51 21t-21 51zM351 658q0 31 21 52.5t52 21.5q30 0 51.5 -21.5t21.5 -52.5q0 -30 -21.5 -51t-51.5 -21q-31 0 -52 21t-21 51z" />
    <glyph glyph-name="ugrave" unicode="&#xf9;" horiz-adv-x="664" 
d="M390 390q-29 6 -47 30t-13 54q2 15 10 27.5t19 21t25.5 12t29.5 3.5h92q35 0 59.5 -24.5t24.5 -60.5v-277q0 -21 23 -28q21 -13 32.5 -35t6.5 -46q-4 -33 -28 -50t-61 -17h-91q-73 0 -73 62v29q-10 -30 -31 -52q-17 -19 -47 -35t-79 -16q-31 0 -61 9.5t-53.5 32t-38 60.5
t-14.5 95v206q-26 5 -43 25t-17 47q0 31 21.5 53t52.5 22h104q34 0 58 -24.5t24 -59.5v-229q0 -31 9 -43t28 -12q20 0 34.5 11.5t24.5 30t14.5 44t4.5 52.5v82zM259 589q-16 0 -25 11l-37 42q-15 16 -30.5 34.5t-26.5 29.5q-5 7 -6 14.5t2.5 14t9.5 11t14 4.5h109
q20 0 28 -16l69 -106q8 -13 1 -26t-23 -13h-85z" />
    <glyph glyph-name="uacute" unicode="&#xfa;" horiz-adv-x="664" 
d="M390 390q-29 6 -47 30t-13 54q2 15 10 27.5t19 21t25.5 12t29.5 3.5h92q35 0 59.5 -24.5t24.5 -60.5v-277q0 -21 23 -28q21 -13 32.5 -35t6.5 -46q-4 -33 -28 -50t-61 -17h-91q-73 0 -73 62v29q-10 -30 -31 -52q-17 -19 -47 -35t-79 -16q-31 0 -61 9.5t-53.5 32t-38 60.5
t-14.5 95v206q-26 5 -43 25t-17 47q0 31 21.5 53t52.5 22h104q34 0 58 -24.5t24 -59.5v-229q0 -31 9 -43t28 -12q20 0 34.5 11.5t24.5 30t14.5 44t4.5 52.5v82zM266 590q-16 0 -23 13t1 26l67 106q10 16 28 16h111q8 0 14 -4.5t9 -11t2.5 -14t-5.5 -14.5l-94 -106
q-11 -11 -26 -11h-84z" />
    <glyph glyph-name="ucircumflex" unicode="&#xfb;" horiz-adv-x="664" 
d="M390 390q-29 6 -47 30t-13 54q2 15 10 27.5t19 21t25.5 12t29.5 3.5h92q35 0 59.5 -24.5t24.5 -60.5v-277q0 -21 23 -28q21 -13 32.5 -35t6.5 -46q-4 -33 -28 -50t-61 -17h-91q-73 0 -73 62v29q-10 -30 -31 -52q-17 -19 -47 -35t-79 -16q-31 0 -61 9.5t-53.5 32t-38 60.5
t-14.5 95v206q-26 5 -43 25t-17 47q0 31 21.5 53t52.5 22h104q34 0 58 -24.5t24 -59.5v-229q0 -31 9 -43t28 -12q20 0 34.5 11.5t24.5 30t14.5 44t4.5 52.5v82zM428 697q22 -20 24 -45.5t-14 -44.5q-17 -20 -42 -22t-45 14l-45 32l-55 -37q-22 -14 -46 -8t-37 27
q-13 22 -7.5 44.5t27.5 39.5l79 64q19 17 40 17t42 -17z" />
    <glyph glyph-name="udieresis" unicode="&#xfc;" horiz-adv-x="664" 
d="M390 390q-29 6 -47 30t-13 54q2 15 10 27.5t19 21t25.5 12t29.5 3.5h92q35 0 59.5 -24.5t24.5 -60.5v-277q0 -21 23 -28q21 -13 32.5 -35t6.5 -46q-4 -33 -28 -50t-61 -17h-91q-73 0 -73 62v29q-10 -30 -31 -52q-17 -19 -47 -35t-79 -16q-31 0 -61 9.5t-53.5 32t-38 60.5
t-14.5 95v206q-26 5 -43 25t-17 47q0 31 21.5 53t52.5 22h104q34 0 58 -24.5t24 -59.5v-229q0 -31 9 -43t28 -12q20 0 34.5 11.5t24.5 30t14.5 44t4.5 52.5v82zM117 658q0 31 21 52.5t51 21.5q31 0 52.5 -21.5t21.5 -52.5q0 -30 -21.5 -51t-52.5 -21q-30 0 -51 21t-21 51z
M362 658q0 31 21 52.5t52 21.5q30 0 51.5 -21.5t21.5 -52.5q0 -30 -21.5 -51t-51.5 -21q-31 0 -52 21t-21 51z" />
    <glyph glyph-name="Scaron" unicode="&#x160;" horiz-adv-x="596" 
d="M293 -12q-50 0 -97 11.5t-84.5 35t-60 58.5t-22.5 80q0 19 7 36.5t20 31t30 21.5t38 8q28 0 52.5 -15t37.5 -42q10 -19 30 -29.5t49 -10.5q34 0 53 12.5t19 33.5q0 24 -23.5 40.5t-59.5 31.5l-77 32.5t-76.5 44t-59 66.5t-23.5 99q0 66 23 109.5t59.5 69t83 36t93.5 10.5
q51 0 96 -10t78 -30.5t52.5 -52t19.5 -73.5q0 -19 -7.5 -36.5t-21 -32t-31.5 -22.5t-41 -8q-28 0 -52 16t-37 44q-9 19 -56 19q-21 0 -36 -8t-15 -31q0 -16 8.5 -28t23 -21t33 -17l40.5 -17q40 -14 78 -32t68 -43.5t48.5 -61.5t18.5 -86q0 -68 -25 -113.5t-64.5 -73.5
t-89.5 -40t-100 -12zM341 959q21 16 45 14.5t41 -19.5q17 -19 15.5 -45t-20.5 -43l-70 -57q-33 -27 -52 -27t-41 16l-93 77q-15 16 -15 37.5t13 39.5q16 19 39 22.5t47 -12.5l47 -31z" />
    </font>
</defs>
</svg>
